G75*
G70*
%OFA0B0*%
%FSLAX24Y24*%
%IPPOS*%
%LPD*%
%AMOC8*
5,1,8,0,0,1.08239X$1,22.5*
%
%ADD10C,0.0000*%
%ADD11C,0.0030*%
%ADD12C,0.0050*%
%ADD13C,0.0040*%
%ADD14C,0.0070*%
%ADD15C,0.0020*%
%ADD16C,0.0080*%
%ADD17C,0.0100*%
%ADD18C,0.0060*%
%ADD19R,0.0230X0.0160*%
%ADD20C,0.0160*%
%ADD21R,0.0150X0.0200*%
%ADD22C,0.0120*%
%ADD23C,0.0010*%
D10*
X002510Y000181D02*
X002510Y019866D01*
X034006Y019866D01*
X034006Y000181D01*
X002510Y000181D01*
X002510Y005693D02*
X002913Y005693D01*
X003307Y005693D02*
X003710Y005693D01*
X004104Y005693D02*
X004508Y005693D01*
X004901Y005693D02*
X005305Y005693D01*
X005699Y005693D02*
X006102Y005693D01*
X006496Y005693D02*
X006899Y005693D01*
X007293Y005693D02*
X007697Y005693D01*
X008090Y005693D02*
X008494Y005693D01*
X008888Y005693D02*
X009291Y005693D01*
X009685Y005693D02*
X010088Y005693D01*
X010482Y005693D02*
X010886Y005693D01*
X011279Y005693D02*
X011683Y005693D01*
X012077Y005693D02*
X012480Y005693D01*
X012874Y005693D02*
X013277Y005693D01*
X013671Y005693D02*
X014075Y005693D01*
X014468Y005693D02*
X014872Y005693D01*
X015266Y005693D02*
X015669Y005693D01*
X016063Y005693D02*
X016466Y005693D01*
X016860Y005693D02*
X017264Y005693D01*
X017657Y005693D02*
X018061Y005693D01*
X018454Y005693D02*
X018858Y005693D01*
X019252Y005693D02*
X019655Y005693D01*
X020049Y005693D02*
X020453Y005693D01*
X020846Y005693D02*
X021250Y005693D01*
X021643Y005693D02*
X022047Y005693D01*
X022441Y005693D02*
X022844Y005693D01*
X023238Y005693D02*
X023641Y005693D01*
X024035Y005693D02*
X024439Y005693D01*
X024832Y005693D02*
X025236Y005693D01*
X025630Y005693D02*
X026033Y005693D01*
X026427Y005693D02*
X026830Y005693D01*
X027224Y005693D02*
X027628Y005693D01*
X028021Y005693D02*
X028425Y005693D01*
X028819Y005693D02*
X029222Y005693D01*
X029616Y005693D02*
X030019Y005693D01*
X030413Y005693D02*
X030817Y005693D01*
X031210Y005693D02*
X031614Y005693D01*
X032008Y005693D02*
X032411Y005693D01*
X032805Y005693D02*
X033208Y005693D01*
X033602Y005693D02*
X034006Y005693D01*
X032371Y006677D02*
X032373Y006727D01*
X032379Y006777D01*
X032389Y006827D01*
X032402Y006875D01*
X032419Y006923D01*
X032440Y006969D01*
X032464Y007013D01*
X032492Y007055D01*
X032523Y007095D01*
X032557Y007132D01*
X032594Y007167D01*
X032633Y007198D01*
X032674Y007227D01*
X032718Y007252D01*
X032764Y007274D01*
X032811Y007292D01*
X032859Y007306D01*
X032908Y007317D01*
X032958Y007324D01*
X033008Y007327D01*
X033059Y007326D01*
X033109Y007321D01*
X033159Y007312D01*
X033207Y007300D01*
X033255Y007283D01*
X033301Y007263D01*
X033346Y007240D01*
X033389Y007213D01*
X033429Y007183D01*
X033467Y007150D01*
X033502Y007114D01*
X033535Y007075D01*
X033564Y007034D01*
X033590Y006991D01*
X033613Y006946D01*
X033632Y006899D01*
X033647Y006851D01*
X033659Y006802D01*
X033667Y006752D01*
X033671Y006702D01*
X033671Y006652D01*
X033667Y006602D01*
X033659Y006552D01*
X033647Y006503D01*
X033632Y006455D01*
X033613Y006408D01*
X033590Y006363D01*
X033564Y006320D01*
X033535Y006279D01*
X033502Y006240D01*
X033467Y006204D01*
X033429Y006171D01*
X033389Y006141D01*
X033346Y006114D01*
X033301Y006091D01*
X033255Y006071D01*
X033207Y006054D01*
X033159Y006042D01*
X033109Y006033D01*
X033059Y006028D01*
X033008Y006027D01*
X032958Y006030D01*
X032908Y006037D01*
X032859Y006048D01*
X032811Y006062D01*
X032764Y006080D01*
X032718Y006102D01*
X032674Y006127D01*
X032633Y006156D01*
X032594Y006187D01*
X032557Y006222D01*
X032523Y006259D01*
X032492Y006299D01*
X032464Y006341D01*
X032440Y006385D01*
X032419Y006431D01*
X032402Y006479D01*
X032389Y006527D01*
X032379Y006577D01*
X032373Y006627D01*
X032371Y006677D01*
X032371Y018882D02*
X032373Y018932D01*
X032379Y018982D01*
X032389Y019032D01*
X032402Y019080D01*
X032419Y019128D01*
X032440Y019174D01*
X032464Y019218D01*
X032492Y019260D01*
X032523Y019300D01*
X032557Y019337D01*
X032594Y019372D01*
X032633Y019403D01*
X032674Y019432D01*
X032718Y019457D01*
X032764Y019479D01*
X032811Y019497D01*
X032859Y019511D01*
X032908Y019522D01*
X032958Y019529D01*
X033008Y019532D01*
X033059Y019531D01*
X033109Y019526D01*
X033159Y019517D01*
X033207Y019505D01*
X033255Y019488D01*
X033301Y019468D01*
X033346Y019445D01*
X033389Y019418D01*
X033429Y019388D01*
X033467Y019355D01*
X033502Y019319D01*
X033535Y019280D01*
X033564Y019239D01*
X033590Y019196D01*
X033613Y019151D01*
X033632Y019104D01*
X033647Y019056D01*
X033659Y019007D01*
X033667Y018957D01*
X033671Y018907D01*
X033671Y018857D01*
X033667Y018807D01*
X033659Y018757D01*
X033647Y018708D01*
X033632Y018660D01*
X033613Y018613D01*
X033590Y018568D01*
X033564Y018525D01*
X033535Y018484D01*
X033502Y018445D01*
X033467Y018409D01*
X033429Y018376D01*
X033389Y018346D01*
X033346Y018319D01*
X033301Y018296D01*
X033255Y018276D01*
X033207Y018259D01*
X033159Y018247D01*
X033109Y018238D01*
X033059Y018233D01*
X033008Y018232D01*
X032958Y018235D01*
X032908Y018242D01*
X032859Y018253D01*
X032811Y018267D01*
X032764Y018285D01*
X032718Y018307D01*
X032674Y018332D01*
X032633Y018361D01*
X032594Y018392D01*
X032557Y018427D01*
X032523Y018464D01*
X032492Y018504D01*
X032464Y018546D01*
X032440Y018590D01*
X032419Y018636D01*
X032402Y018684D01*
X032389Y018732D01*
X032379Y018782D01*
X032373Y018832D01*
X032371Y018882D01*
X002844Y018882D02*
X002846Y018932D01*
X002852Y018982D01*
X002862Y019032D01*
X002875Y019080D01*
X002892Y019128D01*
X002913Y019174D01*
X002937Y019218D01*
X002965Y019260D01*
X002996Y019300D01*
X003030Y019337D01*
X003067Y019372D01*
X003106Y019403D01*
X003147Y019432D01*
X003191Y019457D01*
X003237Y019479D01*
X003284Y019497D01*
X003332Y019511D01*
X003381Y019522D01*
X003431Y019529D01*
X003481Y019532D01*
X003532Y019531D01*
X003582Y019526D01*
X003632Y019517D01*
X003680Y019505D01*
X003728Y019488D01*
X003774Y019468D01*
X003819Y019445D01*
X003862Y019418D01*
X003902Y019388D01*
X003940Y019355D01*
X003975Y019319D01*
X004008Y019280D01*
X004037Y019239D01*
X004063Y019196D01*
X004086Y019151D01*
X004105Y019104D01*
X004120Y019056D01*
X004132Y019007D01*
X004140Y018957D01*
X004144Y018907D01*
X004144Y018857D01*
X004140Y018807D01*
X004132Y018757D01*
X004120Y018708D01*
X004105Y018660D01*
X004086Y018613D01*
X004063Y018568D01*
X004037Y018525D01*
X004008Y018484D01*
X003975Y018445D01*
X003940Y018409D01*
X003902Y018376D01*
X003862Y018346D01*
X003819Y018319D01*
X003774Y018296D01*
X003728Y018276D01*
X003680Y018259D01*
X003632Y018247D01*
X003582Y018238D01*
X003532Y018233D01*
X003481Y018232D01*
X003431Y018235D01*
X003381Y018242D01*
X003332Y018253D01*
X003284Y018267D01*
X003237Y018285D01*
X003191Y018307D01*
X003147Y018332D01*
X003106Y018361D01*
X003067Y018392D01*
X003030Y018427D01*
X002996Y018464D01*
X002965Y018504D01*
X002937Y018546D01*
X002913Y018590D01*
X002892Y018636D01*
X002875Y018684D01*
X002862Y018732D01*
X002852Y018782D01*
X002846Y018832D01*
X002844Y018882D01*
X002844Y006677D02*
X002846Y006727D01*
X002852Y006777D01*
X002862Y006827D01*
X002875Y006875D01*
X002892Y006923D01*
X002913Y006969D01*
X002937Y007013D01*
X002965Y007055D01*
X002996Y007095D01*
X003030Y007132D01*
X003067Y007167D01*
X003106Y007198D01*
X003147Y007227D01*
X003191Y007252D01*
X003237Y007274D01*
X003284Y007292D01*
X003332Y007306D01*
X003381Y007317D01*
X003431Y007324D01*
X003481Y007327D01*
X003532Y007326D01*
X003582Y007321D01*
X003632Y007312D01*
X003680Y007300D01*
X003728Y007283D01*
X003774Y007263D01*
X003819Y007240D01*
X003862Y007213D01*
X003902Y007183D01*
X003940Y007150D01*
X003975Y007114D01*
X004008Y007075D01*
X004037Y007034D01*
X004063Y006991D01*
X004086Y006946D01*
X004105Y006899D01*
X004120Y006851D01*
X004132Y006802D01*
X004140Y006752D01*
X004144Y006702D01*
X004144Y006652D01*
X004140Y006602D01*
X004132Y006552D01*
X004120Y006503D01*
X004105Y006455D01*
X004086Y006408D01*
X004063Y006363D01*
X004037Y006320D01*
X004008Y006279D01*
X003975Y006240D01*
X003940Y006204D01*
X003902Y006171D01*
X003862Y006141D01*
X003819Y006114D01*
X003774Y006091D01*
X003728Y006071D01*
X003680Y006054D01*
X003632Y006042D01*
X003582Y006033D01*
X003532Y006028D01*
X003481Y006027D01*
X003431Y006030D01*
X003381Y006037D01*
X003332Y006048D01*
X003284Y006062D01*
X003237Y006080D01*
X003191Y006102D01*
X003147Y006127D01*
X003106Y006156D01*
X003067Y006187D01*
X003030Y006222D01*
X002996Y006259D01*
X002965Y006299D01*
X002937Y006341D01*
X002913Y006385D01*
X002892Y006431D01*
X002875Y006479D01*
X002862Y006527D01*
X002852Y006577D01*
X002846Y006627D01*
X002844Y006677D01*
D11*
X005288Y005705D02*
X005288Y005458D01*
X005350Y005396D01*
X005473Y005396D01*
X005535Y005458D01*
X005656Y005458D02*
X005656Y005520D01*
X005718Y005582D01*
X005841Y005582D01*
X005903Y005520D01*
X005903Y005458D01*
X005841Y005396D01*
X005718Y005396D01*
X005656Y005458D01*
X005718Y005582D02*
X005656Y005643D01*
X005656Y005705D01*
X005718Y005767D01*
X005841Y005767D01*
X005903Y005705D01*
X005903Y005643D01*
X005841Y005582D01*
X005535Y005705D02*
X005473Y005767D01*
X005350Y005767D01*
X005288Y005705D01*
X008825Y007558D02*
X008886Y007496D01*
X009010Y007496D01*
X009071Y007558D01*
X009071Y007867D01*
X009193Y007867D02*
X009440Y007867D01*
X009440Y007805D01*
X009193Y007558D01*
X009193Y007496D01*
X008825Y007558D02*
X008825Y007867D01*
X006677Y009439D02*
X006677Y009501D01*
X006615Y009563D01*
X006430Y009563D01*
X006430Y009439D01*
X006492Y009378D01*
X006615Y009378D01*
X006677Y009439D01*
X006553Y009686D02*
X006430Y009563D01*
X006308Y009686D02*
X006247Y009748D01*
X006123Y009748D01*
X006062Y009686D01*
X006062Y009439D01*
X006123Y009378D01*
X006247Y009378D01*
X006308Y009439D01*
X006553Y009686D02*
X006677Y009748D01*
X011425Y005505D02*
X011425Y005258D01*
X011486Y005196D01*
X011610Y005196D01*
X011671Y005258D01*
X011793Y005258D02*
X011855Y005196D01*
X011978Y005196D01*
X012040Y005258D01*
X012040Y005505D01*
X011978Y005567D01*
X011855Y005567D01*
X011793Y005505D01*
X011793Y005443D01*
X011855Y005382D01*
X012040Y005382D01*
X011671Y005505D02*
X011610Y005567D01*
X011486Y005567D01*
X011425Y005505D01*
X014025Y007558D02*
X014086Y007496D01*
X014210Y007496D01*
X014271Y007558D01*
X014271Y007867D01*
X014393Y007805D02*
X014393Y007743D01*
X014455Y007682D01*
X014578Y007682D01*
X014640Y007620D01*
X014640Y007558D01*
X014578Y007496D01*
X014455Y007496D01*
X014393Y007558D01*
X014393Y007620D01*
X014455Y007682D01*
X014578Y007682D02*
X014640Y007743D01*
X014640Y007805D01*
X014578Y007867D01*
X014455Y007867D01*
X014393Y007805D01*
X014025Y007867D02*
X014025Y007558D01*
X018430Y003822D02*
X018430Y003636D01*
X018554Y003698D01*
X018615Y003698D01*
X018677Y003636D01*
X018677Y003513D01*
X018615Y003451D01*
X018492Y003451D01*
X018430Y003513D01*
X018430Y003822D02*
X018677Y003822D01*
X018798Y003698D02*
X018922Y003451D01*
X019045Y003698D01*
X019535Y003636D02*
X019535Y003513D01*
X019597Y003451D01*
X019720Y003451D01*
X019782Y003513D01*
X019782Y003636D01*
X019720Y003698D01*
X019597Y003698D01*
X019535Y003636D01*
X019903Y003575D02*
X020027Y003698D01*
X020089Y003698D01*
X019903Y003698D02*
X019903Y003451D01*
X020026Y003222D02*
X020211Y003222D01*
X020273Y003160D01*
X020273Y003036D01*
X020211Y002975D01*
X020026Y002975D01*
X020150Y002975D02*
X020273Y002851D01*
X020394Y002913D02*
X020394Y003036D01*
X020456Y003098D01*
X020580Y003098D01*
X020641Y003036D01*
X020641Y002975D01*
X020394Y002975D01*
X020394Y002913D02*
X020456Y002851D01*
X020580Y002851D01*
X020763Y002913D02*
X020824Y002975D01*
X021010Y002975D01*
X021010Y003036D02*
X021010Y002851D01*
X020824Y002851D01*
X020763Y002913D01*
X020824Y003098D02*
X020948Y003098D01*
X021010Y003036D01*
X021131Y002851D02*
X021254Y002851D01*
X021193Y002851D02*
X021193Y003222D01*
X021131Y003222D01*
X021132Y003451D02*
X021009Y003451D01*
X020947Y003513D01*
X021194Y003760D01*
X021194Y003513D01*
X021132Y003451D01*
X020947Y003513D02*
X020947Y003760D01*
X021009Y003822D01*
X021132Y003822D01*
X021194Y003760D01*
X021315Y003698D02*
X021439Y003451D01*
X021562Y003698D01*
X022052Y003575D02*
X022237Y003575D01*
X022299Y003636D01*
X022299Y003760D01*
X022237Y003822D01*
X022052Y003822D01*
X022052Y003451D01*
X022175Y003283D02*
X022175Y003222D01*
X022175Y003098D02*
X022175Y002851D01*
X022113Y002851D02*
X022237Y002851D01*
X022359Y002851D02*
X022359Y003098D01*
X022420Y003098D01*
X022482Y003036D01*
X022544Y003098D01*
X022606Y003036D01*
X022606Y002851D01*
X022482Y002851D02*
X022482Y003036D01*
X022727Y003036D02*
X022727Y002913D01*
X022789Y002851D01*
X022912Y002851D01*
X022974Y002975D02*
X022727Y002975D01*
X022727Y003036D02*
X022789Y003098D01*
X022912Y003098D01*
X022974Y003036D01*
X022974Y002975D01*
X023464Y002913D02*
X023525Y002851D01*
X023649Y002851D01*
X023710Y002913D01*
X023832Y002851D02*
X023955Y002851D01*
X023894Y002851D02*
X023894Y003222D01*
X023832Y003222D01*
X023710Y003160D02*
X023649Y003222D01*
X023525Y003222D01*
X023464Y003160D01*
X023464Y002913D01*
X024077Y002913D02*
X024139Y002851D01*
X024263Y002851D01*
X024324Y002913D01*
X024324Y003036D01*
X024263Y003098D01*
X024139Y003098D01*
X024077Y003036D01*
X024077Y002913D01*
X024446Y002913D02*
X024446Y003036D01*
X024507Y003098D01*
X024693Y003098D01*
X024814Y002975D02*
X024999Y003098D01*
X024814Y002975D02*
X024999Y002851D01*
X024814Y002851D02*
X024814Y003222D01*
X024753Y003451D02*
X024692Y003513D01*
X024692Y003760D01*
X024753Y003698D02*
X024630Y003698D01*
X024509Y003636D02*
X024509Y003451D01*
X024509Y003636D02*
X024447Y003698D01*
X024262Y003698D01*
X024262Y003451D01*
X024140Y003513D02*
X024140Y003636D01*
X024079Y003698D01*
X023955Y003698D01*
X023893Y003636D01*
X023893Y003513D01*
X023955Y003451D01*
X024079Y003451D01*
X024140Y003513D01*
X023772Y003513D02*
X023710Y003451D01*
X023587Y003451D01*
X023525Y003513D01*
X023525Y003760D01*
X023587Y003822D01*
X023710Y003822D01*
X023772Y003760D01*
X023035Y003822D02*
X023035Y003451D01*
X022788Y003451D02*
X022788Y003822D01*
X022912Y003698D01*
X023035Y003822D01*
X022667Y003822D02*
X022667Y003451D01*
X022544Y003575D01*
X022420Y003451D01*
X022420Y003822D01*
X021992Y003222D02*
X021745Y003222D01*
X021868Y003222D02*
X021868Y002851D01*
X022113Y003098D02*
X022175Y003098D01*
X020825Y003451D02*
X020579Y003451D01*
X020702Y003451D02*
X020702Y003822D01*
X020579Y003698D01*
X020026Y003222D02*
X020026Y002851D01*
X019536Y002851D02*
X019536Y003036D01*
X019475Y003098D01*
X019351Y003098D01*
X019289Y003036D01*
X019167Y003098D02*
X019044Y003098D01*
X019106Y003160D02*
X019106Y002913D01*
X019167Y002851D01*
X019289Y002851D02*
X019289Y003222D01*
X018860Y003222D02*
X018860Y003283D01*
X018860Y003098D02*
X018860Y002851D01*
X018798Y002851D02*
X018922Y002851D01*
X018677Y002913D02*
X018677Y003098D01*
X018798Y003098D02*
X018860Y003098D01*
X018677Y002913D02*
X018615Y002851D01*
X018554Y002913D01*
X018492Y002851D01*
X018430Y002913D01*
X018430Y003098D01*
X024446Y002913D02*
X024507Y002851D01*
X024693Y002851D01*
X024875Y003451D02*
X024875Y003698D01*
X024875Y003575D02*
X024999Y003698D01*
X025061Y003698D01*
X025182Y003636D02*
X025182Y003513D01*
X025244Y003451D01*
X025368Y003451D01*
X025429Y003513D01*
X025429Y003636D01*
X025368Y003698D01*
X025244Y003698D01*
X025182Y003636D01*
X025551Y003451D02*
X025674Y003451D01*
X025612Y003451D02*
X025612Y003822D01*
X025551Y003822D01*
X025796Y003822D02*
X025858Y003822D01*
X025858Y003451D01*
X025796Y003451D02*
X025920Y003451D01*
X026042Y003513D02*
X026042Y003636D01*
X026103Y003698D01*
X026227Y003698D01*
X026289Y003636D01*
X026289Y003575D01*
X026042Y003575D01*
X026042Y003513D02*
X026103Y003451D01*
X026227Y003451D01*
X026410Y003451D02*
X026410Y003698D01*
X026410Y003575D02*
X026533Y003698D01*
X026595Y003698D01*
X026975Y002617D02*
X027110Y002617D01*
X027155Y002572D01*
X027155Y002481D01*
X027110Y002436D01*
X026975Y002436D01*
X026975Y002346D02*
X026975Y002617D01*
X027251Y002617D02*
X027251Y002346D01*
X027341Y002436D01*
X027431Y002346D01*
X027431Y002617D01*
X027527Y002617D02*
X027662Y002617D01*
X027707Y002572D01*
X027707Y002481D01*
X027662Y002436D01*
X027527Y002436D01*
X027527Y002346D02*
X027527Y002617D01*
X027617Y002436D02*
X027707Y002346D01*
X026906Y006346D02*
X026906Y006408D01*
X027153Y006655D01*
X027153Y006717D01*
X026906Y006717D01*
X026785Y006655D02*
X026785Y006532D01*
X026723Y006470D01*
X026538Y006470D01*
X026661Y006470D02*
X026785Y006346D01*
X026538Y006346D02*
X026538Y006717D01*
X026723Y006717D01*
X026785Y006655D01*
X027238Y007746D02*
X027238Y008117D01*
X027423Y008117D01*
X027485Y008055D01*
X027485Y007932D01*
X027423Y007870D01*
X027238Y007870D01*
X027361Y007870D02*
X027485Y007746D01*
X027606Y007808D02*
X027668Y007746D01*
X027791Y007746D01*
X027853Y007808D01*
X027853Y007870D01*
X027791Y007932D01*
X027606Y007932D01*
X027606Y007808D01*
X027606Y007932D02*
X027730Y008055D01*
X027853Y008117D01*
X026691Y010946D02*
X026568Y010946D01*
X026506Y011008D01*
X026506Y011132D02*
X026630Y011193D01*
X026691Y011193D01*
X026753Y011132D01*
X026753Y011008D01*
X026691Y010946D01*
X026506Y011132D02*
X026506Y011317D01*
X026753Y011317D01*
X026385Y011255D02*
X026385Y011132D01*
X026323Y011070D01*
X026138Y011070D01*
X026261Y011070D02*
X026385Y010946D01*
X026138Y010946D02*
X026138Y011317D01*
X026323Y011317D01*
X026385Y011255D01*
X022295Y014158D02*
X022233Y014096D01*
X021986Y014096D01*
X021924Y014158D01*
X021924Y014282D01*
X021986Y014343D01*
X021986Y014465D02*
X021924Y014526D01*
X021924Y014650D01*
X021986Y014712D01*
X022048Y014712D01*
X022109Y014650D01*
X022171Y014712D01*
X022233Y014712D01*
X022295Y014650D01*
X022295Y014526D01*
X022233Y014465D01*
X022233Y014343D02*
X022295Y014282D01*
X022295Y014158D01*
X022109Y014588D02*
X022109Y014650D01*
X021890Y016846D02*
X021643Y016846D01*
X021890Y017093D01*
X021890Y017155D01*
X021828Y017217D01*
X021705Y017217D01*
X021643Y017155D01*
X021521Y017155D02*
X021521Y017032D01*
X021460Y016970D01*
X021275Y016970D01*
X021398Y016970D02*
X021521Y016846D01*
X021275Y016846D02*
X021275Y017217D01*
X021460Y017217D01*
X021521Y017155D01*
X021663Y018741D02*
X021663Y018926D01*
X021724Y018988D01*
X021971Y018988D01*
X022033Y018926D01*
X022033Y018741D01*
X021663Y018741D01*
X021663Y019110D02*
X021663Y019356D01*
X021663Y019478D02*
X021663Y019663D01*
X021724Y019725D01*
X021848Y019725D01*
X021909Y019663D01*
X021909Y019478D01*
X021909Y019601D02*
X022033Y019725D01*
X022033Y019478D02*
X021663Y019478D01*
X021663Y019233D02*
X022033Y019233D01*
X022663Y019110D02*
X023033Y019356D01*
X023033Y019110D02*
X022663Y019356D01*
X022724Y018988D02*
X022848Y018988D01*
X022909Y018926D01*
X022909Y018741D01*
X022909Y018865D02*
X023033Y018988D01*
X023033Y018741D02*
X022663Y018741D01*
X022663Y018926D01*
X022724Y018988D01*
X023663Y018988D02*
X023663Y018741D01*
X023663Y018865D02*
X024033Y018865D01*
X024579Y018750D02*
X024579Y018997D01*
X024579Y019118D02*
X024826Y019118D01*
X024950Y019241D01*
X024826Y019365D01*
X024579Y019365D01*
X024033Y019356D02*
X023663Y019110D01*
X023663Y019356D02*
X024033Y019110D01*
X024579Y018750D02*
X024765Y018750D01*
X024703Y018873D01*
X024703Y018935D01*
X024765Y018997D01*
X024888Y018997D01*
X024950Y018935D01*
X024950Y018811D01*
X024888Y018750D01*
X026592Y018738D02*
X026654Y018676D01*
X026900Y018676D01*
X026962Y018738D01*
X026962Y018861D01*
X026900Y018923D01*
X026777Y018923D01*
X026777Y018800D01*
X026654Y018923D02*
X026592Y018861D01*
X026592Y018738D01*
X026592Y019045D02*
X026962Y019291D01*
X026592Y019291D01*
X026592Y019413D02*
X026592Y019598D01*
X026654Y019660D01*
X026900Y019660D01*
X026962Y019598D01*
X026962Y019413D01*
X026592Y019413D01*
X026592Y019045D02*
X026962Y019045D01*
X027992Y019045D02*
X028362Y019291D01*
X027992Y019291D01*
X027992Y019413D02*
X027992Y019598D01*
X028054Y019660D01*
X028300Y019660D01*
X028362Y019598D01*
X028362Y019413D01*
X027992Y019413D01*
X027992Y019045D02*
X028362Y019045D01*
X028300Y018923D02*
X028177Y018923D01*
X028177Y018800D01*
X028300Y018923D02*
X028362Y018861D01*
X028362Y018738D01*
X028300Y018676D01*
X028054Y018676D01*
X027992Y018738D01*
X027992Y018861D01*
X028054Y018923D01*
X028992Y018923D02*
X028992Y018676D01*
X029177Y018676D01*
X029115Y018800D01*
X029115Y018861D01*
X029177Y018923D01*
X029300Y018923D01*
X029362Y018861D01*
X029362Y018738D01*
X029300Y018676D01*
X029239Y019045D02*
X028992Y019045D01*
X028992Y019291D02*
X029239Y019291D01*
X029362Y019168D01*
X029239Y019045D01*
X029992Y019106D02*
X030054Y019045D01*
X030300Y019045D01*
X030362Y019106D01*
X030362Y019230D01*
X030300Y019291D01*
X030362Y019413D02*
X029992Y019413D01*
X030054Y019291D02*
X029992Y019230D01*
X029992Y019106D01*
X030054Y018923D02*
X029992Y018861D01*
X029992Y018738D01*
X030054Y018676D01*
X030115Y018676D01*
X030177Y018738D01*
X030177Y018861D01*
X030239Y018923D01*
X030300Y018923D01*
X030362Y018861D01*
X030362Y018738D01*
X030300Y018676D01*
X030992Y018738D02*
X031054Y018676D01*
X031115Y018676D01*
X031177Y018738D01*
X031177Y018861D01*
X031239Y018923D01*
X031300Y018923D01*
X031362Y018861D01*
X031362Y018738D01*
X031300Y018676D01*
X030992Y018738D02*
X030992Y018861D01*
X031054Y018923D01*
X030992Y019045D02*
X030992Y019230D01*
X031054Y019291D01*
X031300Y019291D01*
X031362Y019230D01*
X031362Y019045D01*
X030992Y019045D01*
X031115Y019413D02*
X030992Y019536D01*
X031115Y019660D01*
X031362Y019660D01*
X031177Y019660D02*
X031177Y019413D01*
X031115Y019413D02*
X031362Y019413D01*
X030362Y019413D02*
X030362Y019660D01*
X030938Y017217D02*
X031123Y017217D01*
X031185Y017155D01*
X031185Y017032D01*
X031123Y016970D01*
X030938Y016970D01*
X031061Y016970D02*
X031185Y016846D01*
X031306Y016846D02*
X031553Y016846D01*
X031430Y016846D02*
X031430Y017217D01*
X031306Y017093D01*
X030938Y017217D02*
X030938Y016846D01*
X030938Y016317D02*
X031123Y016317D01*
X031185Y016255D01*
X031185Y016132D01*
X031123Y016070D01*
X030938Y016070D01*
X031061Y016070D02*
X031185Y015946D01*
X031306Y016008D02*
X031368Y015946D01*
X031491Y015946D01*
X031553Y016008D01*
X031553Y016070D01*
X031491Y016132D01*
X031430Y016132D01*
X031491Y016132D02*
X031553Y016193D01*
X031553Y016255D01*
X031491Y016317D01*
X031368Y016317D01*
X031306Y016255D01*
X030938Y016317D02*
X030938Y015946D01*
X019340Y012082D02*
X019093Y012082D01*
X019278Y012267D01*
X019278Y011896D01*
X018971Y011958D02*
X018910Y011896D01*
X018786Y011896D01*
X018725Y011958D01*
X018725Y012205D01*
X018786Y012267D01*
X018910Y012267D01*
X018971Y012205D01*
X015140Y017696D02*
X014893Y017696D01*
X015140Y017943D01*
X015140Y018005D01*
X015078Y018067D01*
X014955Y018067D01*
X014893Y018005D01*
X014771Y018005D02*
X014710Y018067D01*
X014586Y018067D01*
X014525Y018005D01*
X014525Y017758D01*
X014586Y017696D01*
X014710Y017696D01*
X014771Y017758D01*
D12*
X021722Y013009D02*
X023297Y013009D01*
X023297Y011395D01*
X021722Y011395D02*
X021722Y013009D01*
X025785Y012407D02*
X025785Y012066D01*
X025785Y012180D02*
X025955Y012180D01*
X026011Y012237D01*
X026011Y012350D01*
X025955Y012407D01*
X025785Y012407D01*
X025898Y012180D02*
X026011Y012066D01*
X026144Y012237D02*
X026371Y012237D01*
X026314Y012407D02*
X026144Y012237D01*
X026314Y012407D02*
X026314Y012066D01*
X025899Y010557D02*
X025674Y010332D01*
X025974Y010332D01*
X026185Y010331D02*
X027834Y010331D01*
X027562Y009731D02*
X027457Y009731D01*
X026185Y010331D02*
X026148Y010281D01*
X026114Y010229D01*
X026083Y010175D01*
X026056Y010119D01*
X025899Y010106D02*
X025899Y010557D01*
X025514Y010557D02*
X025514Y010181D01*
X025439Y010106D01*
X025289Y010106D01*
X025214Y010181D01*
X025214Y010557D01*
X026457Y009731D02*
X026562Y009731D01*
X027835Y010331D02*
X027870Y010283D01*
X027903Y010233D01*
X027933Y010182D01*
X027960Y010128D01*
X027960Y009234D02*
X027931Y009177D01*
X027898Y009121D01*
X027863Y009068D01*
X027823Y009017D01*
X027781Y008969D01*
X027736Y008923D01*
X027689Y008880D01*
X027639Y008840D01*
X027586Y008803D01*
X027531Y008770D01*
X027475Y008739D01*
X027416Y008713D01*
X027356Y008690D01*
X027295Y008670D01*
X027233Y008655D01*
X027170Y008643D01*
X027106Y008635D01*
X027042Y008631D01*
X026978Y008631D01*
X026914Y008635D01*
X026850Y008643D01*
X026787Y008655D01*
X026725Y008670D01*
X026664Y008690D01*
X026604Y008713D01*
X026545Y008739D01*
X026489Y008770D01*
X026434Y008803D01*
X026381Y008840D01*
X026331Y008880D01*
X026284Y008923D01*
X026239Y008969D01*
X026197Y009017D01*
X026157Y009068D01*
X026122Y009121D01*
X026089Y009177D01*
X026060Y009234D01*
X029285Y010331D02*
X030934Y010331D01*
X030939Y010406D02*
X031014Y010481D01*
X031014Y010857D01*
X031174Y010857D02*
X031174Y010632D01*
X031324Y010707D01*
X031399Y010707D01*
X031474Y010632D01*
X031474Y010481D01*
X031399Y010406D01*
X031249Y010406D01*
X031174Y010481D01*
X030939Y010406D02*
X030789Y010406D01*
X030714Y010481D01*
X030714Y010857D01*
X031174Y010857D02*
X031474Y010857D01*
X030662Y009731D02*
X030557Y009731D01*
X029285Y010331D02*
X029248Y010281D01*
X029214Y010229D01*
X029183Y010175D01*
X029156Y010119D01*
X029557Y009731D02*
X029662Y009731D01*
X030935Y010331D02*
X030970Y010283D01*
X031003Y010233D01*
X031033Y010182D01*
X031060Y010128D01*
X031060Y009234D02*
X031031Y009177D01*
X030998Y009121D01*
X030963Y009068D01*
X030923Y009017D01*
X030881Y008969D01*
X030836Y008923D01*
X030789Y008880D01*
X030739Y008840D01*
X030686Y008803D01*
X030631Y008770D01*
X030575Y008739D01*
X030516Y008713D01*
X030456Y008690D01*
X030395Y008670D01*
X030333Y008655D01*
X030270Y008643D01*
X030206Y008635D01*
X030142Y008631D01*
X030078Y008631D01*
X030014Y008635D01*
X029950Y008643D01*
X029887Y008655D01*
X029825Y008670D01*
X029764Y008690D01*
X029704Y008713D01*
X029645Y008739D01*
X029589Y008770D01*
X029534Y008803D01*
X029481Y008840D01*
X029431Y008880D01*
X029384Y008923D01*
X029339Y008969D01*
X029297Y009017D01*
X029257Y009068D01*
X029222Y009121D01*
X029189Y009177D01*
X029160Y009234D01*
X030714Y008257D02*
X030714Y007881D01*
X030789Y007806D01*
X030939Y007806D01*
X031014Y007881D01*
X031014Y008257D01*
X031174Y008032D02*
X031324Y008182D01*
X031474Y008257D01*
X031399Y008032D02*
X031174Y008032D01*
X031174Y007881D01*
X031249Y007806D01*
X031399Y007806D01*
X031474Y007881D01*
X031474Y007957D01*
X031399Y008032D01*
X031034Y007731D02*
X029385Y007731D01*
X029657Y007131D02*
X029762Y007131D01*
X029256Y007519D02*
X029283Y007575D01*
X029314Y007629D01*
X029348Y007681D01*
X029385Y007731D01*
X029260Y006634D02*
X029289Y006577D01*
X029322Y006521D01*
X029357Y006468D01*
X029397Y006417D01*
X029439Y006369D01*
X029484Y006323D01*
X029531Y006280D01*
X029581Y006240D01*
X029634Y006203D01*
X029689Y006170D01*
X029745Y006139D01*
X029804Y006113D01*
X029864Y006090D01*
X029925Y006070D01*
X029987Y006055D01*
X030050Y006043D01*
X030114Y006035D01*
X030178Y006031D01*
X030242Y006031D01*
X030306Y006035D01*
X030370Y006043D01*
X030433Y006055D01*
X030495Y006070D01*
X030556Y006090D01*
X030616Y006113D01*
X030675Y006139D01*
X030731Y006170D01*
X030786Y006203D01*
X030839Y006240D01*
X030889Y006280D01*
X030936Y006323D01*
X030981Y006369D01*
X031023Y006417D01*
X031063Y006468D01*
X031098Y006521D01*
X031131Y006577D01*
X031160Y006634D01*
X030762Y007131D02*
X030657Y007131D01*
X031160Y007528D02*
X031133Y007582D01*
X031103Y007633D01*
X031070Y007683D01*
X031035Y007731D01*
X030662Y012031D02*
X030557Y012031D01*
X029285Y012631D02*
X029248Y012581D01*
X029214Y012529D01*
X029183Y012475D01*
X029156Y012419D01*
X029285Y012631D02*
X030934Y012631D01*
X030839Y012806D02*
X030914Y012881D01*
X030914Y013257D01*
X031074Y013182D02*
X031149Y013257D01*
X031299Y013257D01*
X031374Y013182D01*
X031374Y013107D01*
X031299Y013032D01*
X031374Y012957D01*
X031374Y012881D01*
X031299Y012806D01*
X031149Y012806D01*
X031074Y012881D01*
X031224Y013032D02*
X031299Y013032D01*
X030839Y012806D02*
X030689Y012806D01*
X030614Y012881D01*
X030614Y013257D01*
X031060Y011534D02*
X031031Y011477D01*
X030998Y011421D01*
X030963Y011368D01*
X030923Y011317D01*
X030881Y011269D01*
X030836Y011223D01*
X030789Y011180D01*
X030739Y011140D01*
X030686Y011103D01*
X030631Y011070D01*
X030575Y011039D01*
X030516Y011013D01*
X030456Y010990D01*
X030395Y010970D01*
X030333Y010955D01*
X030270Y010943D01*
X030206Y010935D01*
X030142Y010931D01*
X030078Y010931D01*
X030014Y010935D01*
X029950Y010943D01*
X029887Y010955D01*
X029825Y010970D01*
X029764Y010990D01*
X029704Y011013D01*
X029645Y011039D01*
X029589Y011070D01*
X029534Y011103D01*
X029481Y011140D01*
X029431Y011180D01*
X029384Y011223D01*
X029339Y011269D01*
X029297Y011317D01*
X029257Y011368D01*
X029222Y011421D01*
X029189Y011477D01*
X029160Y011534D01*
X029557Y012031D02*
X029662Y012031D01*
X030935Y012631D02*
X030970Y012583D01*
X031003Y012533D01*
X031033Y012482D01*
X031060Y012428D01*
X029395Y014856D02*
X029095Y014856D01*
X029395Y015157D01*
X029395Y015232D01*
X029320Y015307D01*
X029170Y015307D01*
X029095Y015232D01*
X028935Y015232D02*
X028935Y014931D01*
X028860Y014856D01*
X028710Y014856D01*
X028635Y014931D01*
X028635Y015232D01*
X028710Y015307D01*
X028860Y015307D01*
X028935Y015232D01*
X028785Y015007D02*
X028935Y014856D01*
X026295Y015656D02*
X025995Y015656D01*
X026145Y015656D02*
X026145Y016107D01*
X025995Y015957D01*
X025835Y016107D02*
X025835Y015731D01*
X025760Y015656D01*
X025610Y015656D01*
X025535Y015731D01*
X025535Y016107D01*
X016850Y010081D02*
X016852Y010152D01*
X016858Y010222D01*
X016868Y010292D01*
X016882Y010361D01*
X016899Y010430D01*
X016921Y010497D01*
X016946Y010563D01*
X016975Y010628D01*
X017007Y010690D01*
X017043Y010751D01*
X017082Y010810D01*
X017125Y010867D01*
X017170Y010921D01*
X017219Y010972D01*
X017270Y011021D01*
X017324Y011066D01*
X017381Y011109D01*
X017440Y011148D01*
X017501Y011184D01*
X017563Y011216D01*
X017628Y011245D01*
X017694Y011270D01*
X017761Y011292D01*
X017830Y011309D01*
X017899Y011323D01*
X017969Y011333D01*
X018039Y011339D01*
X018110Y011341D01*
X018181Y011339D01*
X018251Y011333D01*
X018321Y011323D01*
X018390Y011309D01*
X018459Y011292D01*
X018526Y011270D01*
X018592Y011245D01*
X018657Y011216D01*
X018719Y011184D01*
X018780Y011148D01*
X018839Y011109D01*
X018896Y011066D01*
X018950Y011021D01*
X019001Y010972D01*
X019050Y010921D01*
X019095Y010867D01*
X019138Y010810D01*
X019177Y010751D01*
X019213Y010690D01*
X019245Y010628D01*
X019274Y010563D01*
X019299Y010497D01*
X019321Y010430D01*
X019338Y010361D01*
X019352Y010292D01*
X019362Y010222D01*
X019368Y010152D01*
X019370Y010081D01*
X019368Y010010D01*
X019362Y009940D01*
X019352Y009870D01*
X019338Y009801D01*
X019321Y009732D01*
X019299Y009665D01*
X019274Y009599D01*
X019245Y009534D01*
X019213Y009472D01*
X019177Y009411D01*
X019138Y009352D01*
X019095Y009295D01*
X019050Y009241D01*
X019001Y009190D01*
X018950Y009141D01*
X018896Y009096D01*
X018839Y009053D01*
X018780Y009014D01*
X018719Y008978D01*
X018657Y008946D01*
X018592Y008917D01*
X018526Y008892D01*
X018459Y008870D01*
X018390Y008853D01*
X018321Y008839D01*
X018251Y008829D01*
X018181Y008823D01*
X018110Y008821D01*
X018039Y008823D01*
X017969Y008829D01*
X017899Y008839D01*
X017830Y008853D01*
X017761Y008870D01*
X017694Y008892D01*
X017628Y008917D01*
X017563Y008946D01*
X017501Y008978D01*
X017440Y009014D01*
X017381Y009053D01*
X017324Y009096D01*
X017270Y009141D01*
X017219Y009190D01*
X017170Y009241D01*
X017125Y009295D01*
X017082Y009352D01*
X017043Y009411D01*
X017007Y009472D01*
X016975Y009534D01*
X016946Y009599D01*
X016921Y009665D01*
X016899Y009732D01*
X016882Y009801D01*
X016868Y009870D01*
X016858Y009940D01*
X016852Y010010D01*
X016850Y010081D01*
X016850Y006881D02*
X016852Y006952D01*
X016858Y007022D01*
X016868Y007092D01*
X016882Y007161D01*
X016899Y007230D01*
X016921Y007297D01*
X016946Y007363D01*
X016975Y007428D01*
X017007Y007490D01*
X017043Y007551D01*
X017082Y007610D01*
X017125Y007667D01*
X017170Y007721D01*
X017219Y007772D01*
X017270Y007821D01*
X017324Y007866D01*
X017381Y007909D01*
X017440Y007948D01*
X017501Y007984D01*
X017563Y008016D01*
X017628Y008045D01*
X017694Y008070D01*
X017761Y008092D01*
X017830Y008109D01*
X017899Y008123D01*
X017969Y008133D01*
X018039Y008139D01*
X018110Y008141D01*
X018181Y008139D01*
X018251Y008133D01*
X018321Y008123D01*
X018390Y008109D01*
X018459Y008092D01*
X018526Y008070D01*
X018592Y008045D01*
X018657Y008016D01*
X018719Y007984D01*
X018780Y007948D01*
X018839Y007909D01*
X018896Y007866D01*
X018950Y007821D01*
X019001Y007772D01*
X019050Y007721D01*
X019095Y007667D01*
X019138Y007610D01*
X019177Y007551D01*
X019213Y007490D01*
X019245Y007428D01*
X019274Y007363D01*
X019299Y007297D01*
X019321Y007230D01*
X019338Y007161D01*
X019352Y007092D01*
X019362Y007022D01*
X019368Y006952D01*
X019370Y006881D01*
X019368Y006810D01*
X019362Y006740D01*
X019352Y006670D01*
X019338Y006601D01*
X019321Y006532D01*
X019299Y006465D01*
X019274Y006399D01*
X019245Y006334D01*
X019213Y006272D01*
X019177Y006211D01*
X019138Y006152D01*
X019095Y006095D01*
X019050Y006041D01*
X019001Y005990D01*
X018950Y005941D01*
X018896Y005896D01*
X018839Y005853D01*
X018780Y005814D01*
X018719Y005778D01*
X018657Y005746D01*
X018592Y005717D01*
X018526Y005692D01*
X018459Y005670D01*
X018390Y005653D01*
X018321Y005639D01*
X018251Y005629D01*
X018181Y005623D01*
X018110Y005621D01*
X018039Y005623D01*
X017969Y005629D01*
X017899Y005639D01*
X017830Y005653D01*
X017761Y005670D01*
X017694Y005692D01*
X017628Y005717D01*
X017563Y005746D01*
X017501Y005778D01*
X017440Y005814D01*
X017381Y005853D01*
X017324Y005896D01*
X017270Y005941D01*
X017219Y005990D01*
X017170Y006041D01*
X017125Y006095D01*
X017082Y006152D01*
X017043Y006211D01*
X017007Y006272D01*
X016975Y006334D01*
X016946Y006399D01*
X016921Y006465D01*
X016899Y006532D01*
X016882Y006601D01*
X016868Y006670D01*
X016858Y006740D01*
X016852Y006810D01*
X016850Y006881D01*
X016416Y004707D02*
X016416Y004366D01*
X016303Y004366D02*
X016530Y004366D01*
X016303Y004593D02*
X016416Y004707D01*
X016057Y004707D02*
X015944Y004593D01*
X015811Y004537D02*
X015755Y004480D01*
X015585Y004480D01*
X015698Y004480D02*
X015811Y004366D01*
X015944Y004366D02*
X016171Y004366D01*
X016057Y004366D02*
X016057Y004707D01*
X015811Y004650D02*
X015811Y004537D01*
X015811Y004650D02*
X015755Y004707D01*
X015585Y004707D01*
X015585Y004366D01*
X012630Y004423D02*
X012573Y004366D01*
X012459Y004366D01*
X012403Y004423D01*
X012630Y004650D01*
X012630Y004423D01*
X012403Y004423D02*
X012403Y004650D01*
X012459Y004707D01*
X012573Y004707D01*
X012630Y004650D01*
X012157Y004707D02*
X012044Y004593D01*
X011911Y004650D02*
X011911Y004537D01*
X011855Y004480D01*
X011685Y004480D01*
X011798Y004480D02*
X011911Y004366D01*
X012044Y004366D02*
X012271Y004366D01*
X012157Y004366D02*
X012157Y004707D01*
X011911Y004650D02*
X011855Y004707D01*
X011685Y004707D01*
X011685Y004366D01*
X008371Y004423D02*
X008371Y004650D01*
X008314Y004707D01*
X008200Y004707D01*
X008144Y004650D01*
X008144Y004593D01*
X008200Y004537D01*
X008371Y004537D01*
X008371Y004423D02*
X008314Y004366D01*
X008200Y004366D01*
X008144Y004423D01*
X008011Y004366D02*
X007898Y004480D01*
X007955Y004480D02*
X007785Y004480D01*
X007785Y004366D02*
X007785Y004707D01*
X007955Y004707D01*
X008011Y004650D01*
X008011Y004537D01*
X007955Y004480D01*
X004571Y004480D02*
X004571Y004423D01*
X004514Y004366D01*
X004400Y004366D01*
X004344Y004423D01*
X004344Y004480D01*
X004400Y004537D01*
X004514Y004537D01*
X004571Y004480D01*
X004514Y004537D02*
X004571Y004593D01*
X004571Y004650D01*
X004514Y004707D01*
X004400Y004707D01*
X004344Y004650D01*
X004344Y004593D01*
X004400Y004537D01*
X004211Y004537D02*
X004155Y004480D01*
X003985Y004480D01*
X004098Y004480D02*
X004211Y004366D01*
X004211Y004537D02*
X004211Y004650D01*
X004155Y004707D01*
X003985Y004707D01*
X003985Y004366D01*
X004040Y001412D02*
X004224Y001228D01*
X004407Y001412D01*
X004407Y000861D01*
X004593Y000953D02*
X004593Y001136D01*
X004684Y001228D01*
X004868Y001228D01*
X004960Y001136D01*
X004960Y001045D01*
X004593Y001045D01*
X004593Y000953D02*
X004684Y000861D01*
X004868Y000861D01*
X005145Y000861D02*
X005145Y001228D01*
X005420Y001228D01*
X005512Y001136D01*
X005512Y000861D01*
X005697Y000953D02*
X005789Y000861D01*
X006064Y000861D01*
X006064Y001228D01*
X005697Y001228D02*
X005697Y000953D01*
X007340Y000953D02*
X007432Y000861D01*
X007615Y000861D01*
X007707Y000953D01*
X007707Y001045D01*
X007615Y001136D01*
X007432Y001136D01*
X007340Y001228D01*
X007340Y001320D01*
X007432Y001412D01*
X007615Y001412D01*
X007707Y001320D01*
X007893Y001136D02*
X007984Y001228D01*
X008168Y001228D01*
X008260Y001136D01*
X008260Y001045D01*
X007893Y001045D01*
X007893Y001136D02*
X007893Y000953D01*
X007984Y000861D01*
X008168Y000861D01*
X008445Y000861D02*
X008629Y000861D01*
X008537Y000861D02*
X008537Y001412D01*
X008445Y001412D01*
X008813Y001136D02*
X008905Y001228D01*
X009089Y001228D01*
X009180Y001136D01*
X009180Y001045D01*
X008813Y001045D01*
X008813Y001136D02*
X008813Y000953D01*
X008905Y000861D01*
X009089Y000861D01*
X009366Y000953D02*
X009366Y001136D01*
X009458Y001228D01*
X009733Y001228D01*
X009918Y001228D02*
X010102Y001228D01*
X010010Y001320D02*
X010010Y000953D01*
X010102Y000861D01*
X009733Y000861D02*
X009458Y000861D01*
X009366Y000953D01*
X012040Y001136D02*
X012407Y001136D01*
X012224Y000953D02*
X012224Y001320D01*
X015840Y001136D02*
X016207Y001136D01*
X024007Y001256D02*
X024007Y001597D01*
X024177Y001597D01*
X024234Y001540D01*
X024234Y001427D01*
X024177Y001370D01*
X024007Y001370D01*
X024121Y001370D02*
X024234Y001256D01*
X024366Y001256D02*
X024593Y001256D01*
X024480Y001256D02*
X024480Y001597D01*
X024366Y001483D01*
X024726Y001540D02*
X024782Y001597D01*
X024896Y001597D01*
X024952Y001540D01*
X024952Y001483D01*
X024726Y001256D01*
X024952Y001256D01*
X019518Y008481D02*
X019522Y008628D01*
X019532Y008774D01*
X019550Y008920D01*
X019575Y009065D01*
X019608Y009208D01*
X019647Y009350D01*
X019693Y009489D01*
X019746Y009626D01*
X019805Y009760D01*
X019871Y009891D01*
X019944Y010019D01*
X020022Y010143D01*
X020107Y010263D01*
X020197Y010379D01*
X020293Y010490D01*
X020394Y010597D01*
X020501Y010698D01*
X020612Y010794D01*
X020728Y010884D01*
X020848Y010969D01*
X020972Y011047D01*
X021100Y011120D01*
X021231Y011186D01*
X021365Y011245D01*
X021502Y011298D01*
X021641Y011344D01*
X021783Y011383D01*
X021926Y011416D01*
X022071Y011441D01*
X022217Y011459D01*
X022363Y011469D01*
X022510Y011473D01*
X022657Y011469D01*
X022803Y011459D01*
X022949Y011441D01*
X023094Y011416D01*
X023237Y011383D01*
X023379Y011344D01*
X023518Y011298D01*
X023655Y011245D01*
X023789Y011186D01*
X023920Y011120D01*
X024048Y011047D01*
X024172Y010969D01*
X024292Y010884D01*
X024408Y010794D01*
X024519Y010698D01*
X024626Y010597D01*
X024727Y010490D01*
X024823Y010379D01*
X024913Y010263D01*
X024998Y010143D01*
X025076Y010019D01*
X025149Y009891D01*
X025215Y009760D01*
X025274Y009626D01*
X025327Y009489D01*
X025373Y009350D01*
X025412Y009208D01*
X025445Y009065D01*
X025470Y008920D01*
X025488Y008774D01*
X025498Y008628D01*
X025502Y008481D01*
X025498Y008334D01*
X025488Y008188D01*
X025470Y008042D01*
X025445Y007897D01*
X025412Y007754D01*
X025373Y007612D01*
X025327Y007473D01*
X025274Y007336D01*
X025215Y007202D01*
X025149Y007071D01*
X025076Y006943D01*
X024998Y006819D01*
X024913Y006699D01*
X024823Y006583D01*
X024727Y006472D01*
X024626Y006365D01*
X024519Y006264D01*
X024408Y006168D01*
X024292Y006078D01*
X024172Y005993D01*
X024048Y005915D01*
X023920Y005842D01*
X023789Y005776D01*
X023655Y005717D01*
X023518Y005664D01*
X023379Y005618D01*
X023237Y005579D01*
X023094Y005546D01*
X022949Y005521D01*
X022803Y005503D01*
X022657Y005493D01*
X022510Y005489D01*
X022363Y005493D01*
X022217Y005503D01*
X022071Y005521D01*
X021926Y005546D01*
X021783Y005579D01*
X021641Y005618D01*
X021502Y005664D01*
X021365Y005717D01*
X021231Y005776D01*
X021100Y005842D01*
X020972Y005915D01*
X020848Y005993D01*
X020728Y006078D01*
X020612Y006168D01*
X020501Y006264D01*
X020394Y006365D01*
X020293Y006472D01*
X020197Y006583D01*
X020107Y006699D01*
X020022Y006819D01*
X019944Y006943D01*
X019871Y007071D01*
X019805Y007202D01*
X019746Y007336D01*
X019693Y007473D01*
X019647Y007612D01*
X019608Y007754D01*
X019575Y007897D01*
X019550Y008042D01*
X019532Y008188D01*
X019522Y008334D01*
X019518Y008481D01*
X004350Y007981D02*
X004352Y008052D01*
X004358Y008122D01*
X004368Y008192D01*
X004382Y008261D01*
X004399Y008330D01*
X004421Y008397D01*
X004446Y008463D01*
X004475Y008528D01*
X004507Y008590D01*
X004543Y008651D01*
X004582Y008710D01*
X004625Y008767D01*
X004670Y008821D01*
X004719Y008872D01*
X004770Y008921D01*
X004824Y008966D01*
X004881Y009009D01*
X004940Y009048D01*
X005001Y009084D01*
X005063Y009116D01*
X005128Y009145D01*
X005194Y009170D01*
X005261Y009192D01*
X005330Y009209D01*
X005399Y009223D01*
X005469Y009233D01*
X005539Y009239D01*
X005610Y009241D01*
X005681Y009239D01*
X005751Y009233D01*
X005821Y009223D01*
X005890Y009209D01*
X005959Y009192D01*
X006026Y009170D01*
X006092Y009145D01*
X006157Y009116D01*
X006219Y009084D01*
X006280Y009048D01*
X006339Y009009D01*
X006396Y008966D01*
X006450Y008921D01*
X006501Y008872D01*
X006550Y008821D01*
X006595Y008767D01*
X006638Y008710D01*
X006677Y008651D01*
X006713Y008590D01*
X006745Y008528D01*
X006774Y008463D01*
X006799Y008397D01*
X006821Y008330D01*
X006838Y008261D01*
X006852Y008192D01*
X006862Y008122D01*
X006868Y008052D01*
X006870Y007981D01*
X006868Y007910D01*
X006862Y007840D01*
X006852Y007770D01*
X006838Y007701D01*
X006821Y007632D01*
X006799Y007565D01*
X006774Y007499D01*
X006745Y007434D01*
X006713Y007372D01*
X006677Y007311D01*
X006638Y007252D01*
X006595Y007195D01*
X006550Y007141D01*
X006501Y007090D01*
X006450Y007041D01*
X006396Y006996D01*
X006339Y006953D01*
X006280Y006914D01*
X006219Y006878D01*
X006157Y006846D01*
X006092Y006817D01*
X006026Y006792D01*
X005959Y006770D01*
X005890Y006753D01*
X005821Y006739D01*
X005751Y006729D01*
X005681Y006723D01*
X005610Y006721D01*
X005539Y006723D01*
X005469Y006729D01*
X005399Y006739D01*
X005330Y006753D01*
X005261Y006770D01*
X005194Y006792D01*
X005128Y006817D01*
X005063Y006846D01*
X005001Y006878D01*
X004940Y006914D01*
X004881Y006953D01*
X004824Y006996D01*
X004770Y007041D01*
X004719Y007090D01*
X004670Y007141D01*
X004625Y007195D01*
X004582Y007252D01*
X004543Y007311D01*
X004507Y007372D01*
X004475Y007434D01*
X004446Y007499D01*
X004421Y007565D01*
X004399Y007632D01*
X004382Y007701D01*
X004368Y007770D01*
X004358Y007840D01*
X004352Y007910D01*
X004350Y007981D01*
X004040Y001412D02*
X004040Y000861D01*
D13*
X006177Y008472D02*
X006177Y008779D01*
X006023Y008625D02*
X006330Y008625D01*
X017276Y009438D02*
X017582Y009438D01*
X017429Y009591D02*
X017429Y009284D01*
X019330Y010961D02*
X019390Y010901D01*
X019510Y010901D01*
X019570Y010961D01*
X019698Y010961D02*
X019758Y010901D01*
X019878Y010901D01*
X019938Y010961D01*
X019938Y011082D01*
X019878Y011142D01*
X019818Y011142D01*
X019698Y011082D01*
X019698Y011262D01*
X019938Y011262D01*
X019570Y011202D02*
X019510Y011262D01*
X019390Y011262D01*
X019330Y011202D01*
X019330Y010961D01*
X018753Y006354D02*
X018753Y006047D01*
X018600Y006201D02*
X018907Y006201D01*
X019330Y006202D02*
X019330Y005961D01*
X019390Y005901D01*
X019510Y005901D01*
X019570Y005961D01*
X019698Y005961D02*
X019698Y005901D01*
X019698Y005961D02*
X019938Y006202D01*
X019938Y006262D01*
X019698Y006262D01*
X019570Y006202D02*
X019510Y006262D01*
X019390Y006262D01*
X019330Y006202D01*
X029051Y004673D02*
X029358Y004673D01*
X029435Y004750D01*
X029435Y004904D02*
X029435Y005134D01*
X029358Y005210D01*
X029281Y005134D01*
X029281Y004980D01*
X029205Y004904D01*
X029128Y004980D01*
X029128Y005210D01*
X029128Y004750D02*
X029128Y004597D01*
X029128Y004443D02*
X029435Y004443D01*
X029435Y004213D01*
X029358Y004136D01*
X029128Y004136D01*
X029205Y003983D02*
X029128Y003906D01*
X029128Y003753D01*
X029205Y003676D01*
X029358Y003676D01*
X029435Y003753D01*
X029435Y003906D01*
X029358Y003983D01*
X029205Y003983D01*
X029205Y003523D02*
X029128Y003446D01*
X029128Y003216D01*
X029435Y003216D01*
X029435Y003062D02*
X029435Y002909D01*
X029435Y002985D02*
X029128Y002985D01*
X029128Y002909D01*
X028974Y002985D02*
X028898Y002985D01*
X029051Y002755D02*
X029205Y002755D01*
X029281Y002679D01*
X029281Y002448D01*
X029435Y002448D02*
X028974Y002448D01*
X028974Y002679D01*
X029051Y002755D01*
X029205Y003523D02*
X029435Y003523D01*
X029974Y003807D02*
X030205Y003807D01*
X030128Y003960D01*
X030128Y004037D01*
X030205Y004114D01*
X030358Y004114D01*
X030435Y004037D01*
X030435Y003884D01*
X030358Y003807D01*
X029974Y003807D02*
X029974Y004114D01*
X030128Y004267D02*
X030435Y004421D01*
X030128Y004574D01*
X031274Y004637D02*
X031274Y004484D01*
X031351Y004407D01*
X031505Y004560D02*
X031505Y004637D01*
X031581Y004714D01*
X031658Y004714D01*
X031735Y004637D01*
X031735Y004484D01*
X031658Y004407D01*
X031505Y004637D02*
X031428Y004714D01*
X031351Y004714D01*
X031274Y004637D01*
X031505Y005007D02*
X031505Y005314D01*
X031735Y005237D02*
X031274Y005237D01*
X031505Y005007D01*
X032474Y004558D02*
X032474Y004328D01*
X032935Y004328D01*
X032935Y004558D01*
X032858Y004635D01*
X032551Y004635D01*
X032474Y004558D01*
X032474Y004174D02*
X032935Y004174D01*
X032474Y003867D01*
X032935Y003867D01*
X032858Y003714D02*
X032705Y003714D01*
X032705Y003560D01*
X032858Y003407D02*
X032551Y003407D01*
X032474Y003484D01*
X032474Y003637D01*
X032551Y003714D01*
X032858Y003714D02*
X032935Y003637D01*
X032935Y003484D01*
X032858Y003407D01*
X031735Y003414D02*
X031735Y003107D01*
X031735Y003260D02*
X031274Y003260D01*
X031428Y003107D01*
X031605Y002614D02*
X031605Y002307D01*
X031374Y002537D01*
X031835Y002537D01*
X031758Y002014D02*
X031835Y001937D01*
X031835Y001784D01*
X031758Y001707D01*
X031605Y001860D02*
X031605Y001937D01*
X031681Y002014D01*
X031758Y002014D01*
X031605Y001937D02*
X031528Y002014D01*
X031451Y002014D01*
X031374Y001937D01*
X031374Y001784D01*
X031451Y001707D01*
X031451Y001414D02*
X031374Y001337D01*
X031374Y001184D01*
X031451Y001107D01*
X031528Y001414D02*
X031835Y001107D01*
X031835Y001414D01*
X031528Y001414D02*
X031451Y001414D01*
X030535Y001444D02*
X030458Y001367D01*
X030151Y001674D01*
X030458Y001674D01*
X030535Y001597D01*
X030535Y001444D01*
X030458Y001367D02*
X030151Y001367D01*
X030074Y001444D01*
X030074Y001597D01*
X030151Y001674D01*
X030228Y001828D02*
X030535Y001981D01*
X030228Y002135D01*
X029435Y001835D02*
X028974Y001835D01*
X029128Y001681D01*
X028974Y001528D01*
X029435Y001528D01*
X029435Y001374D02*
X028974Y001374D01*
X028974Y001067D02*
X029435Y001067D01*
X029281Y001221D01*
X029435Y001374D01*
X029205Y000914D02*
X029051Y000914D01*
X028974Y000837D01*
X028974Y000607D01*
X029435Y000607D01*
X029281Y000607D02*
X029281Y000837D01*
X029205Y000914D01*
X030074Y001060D02*
X030535Y001060D01*
X030535Y000907D02*
X030535Y001214D01*
X030228Y000907D02*
X030074Y001060D01*
X031374Y000660D02*
X031528Y000507D01*
X031374Y000660D02*
X031835Y000660D01*
X031835Y000507D02*
X031835Y000814D01*
X032474Y000884D02*
X032551Y000807D01*
X032858Y000807D01*
X032935Y000884D01*
X032935Y001037D01*
X032858Y001114D01*
X032705Y001114D01*
X032705Y000960D01*
X032551Y001114D02*
X032474Y001037D01*
X032474Y000884D01*
X032474Y001267D02*
X032935Y001574D01*
X032474Y001574D01*
X032474Y001728D02*
X032474Y001958D01*
X032551Y002035D01*
X032858Y002035D01*
X032935Y001958D01*
X032935Y001728D01*
X032474Y001728D01*
X032474Y001267D02*
X032935Y001267D01*
X031735Y003707D02*
X031428Y004014D01*
X031351Y004014D01*
X031274Y003937D01*
X031274Y003784D01*
X031351Y003707D01*
X031735Y003707D02*
X031735Y004014D01*
X010197Y017201D02*
X009890Y017201D01*
X010043Y017201D02*
X010043Y017662D01*
X009890Y017508D01*
X009736Y017585D02*
X009736Y017278D01*
X009660Y017201D01*
X009506Y017201D01*
X009430Y017278D01*
X009430Y017585D01*
X009506Y017662D01*
X009660Y017662D01*
X009736Y017585D01*
X009583Y017355D02*
X009736Y017201D01*
X005557Y015701D02*
X005250Y015701D01*
X005097Y015701D02*
X004943Y015855D01*
X005020Y015855D02*
X004790Y015855D01*
X004636Y015855D02*
X004636Y016162D01*
X004790Y016162D02*
X005020Y016162D01*
X005097Y016085D01*
X005097Y015932D01*
X005020Y015855D01*
X004790Y015701D02*
X004790Y016162D01*
X004330Y016162D02*
X004330Y015855D01*
X004483Y015701D01*
X004636Y015855D01*
X005250Y016008D02*
X005404Y016162D01*
X005404Y015701D01*
D14*
X013356Y014987D02*
X013356Y014461D01*
X013461Y014356D01*
X013671Y014356D01*
X013776Y014461D01*
X013776Y014987D01*
X014000Y014882D02*
X014105Y014987D01*
X014315Y014987D01*
X014420Y014882D01*
X014420Y014777D01*
X014000Y014356D01*
X014420Y014356D01*
X018750Y005202D02*
X019304Y005202D01*
X019027Y005202D02*
X019027Y004371D01*
X019579Y004510D02*
X019717Y004371D01*
X020133Y004371D01*
X020133Y004233D02*
X019994Y004094D01*
X019856Y004094D01*
X020133Y004233D02*
X020133Y004925D01*
X020408Y004925D02*
X020823Y004925D01*
X020961Y004787D01*
X020961Y004510D01*
X020823Y004371D01*
X020408Y004371D01*
X020408Y004094D02*
X020408Y004925D01*
X019579Y004925D02*
X019579Y004510D01*
X021236Y004371D02*
X021236Y005202D01*
X021375Y004925D02*
X021652Y004925D01*
X021790Y004787D01*
X021790Y004371D01*
X022065Y004510D02*
X022203Y004371D01*
X022480Y004371D01*
X022619Y004510D01*
X022619Y004787D01*
X022480Y004925D01*
X022203Y004925D01*
X022065Y004787D01*
X022065Y004510D01*
X021375Y004925D02*
X021236Y004787D01*
X022894Y004925D02*
X022894Y004371D01*
X023447Y004371D02*
X023447Y004787D01*
X023309Y004925D01*
X022894Y004925D01*
D15*
X021166Y002233D02*
X021026Y002233D01*
X020979Y002186D01*
X021026Y002140D01*
X021120Y002140D01*
X021166Y002093D01*
X021120Y002046D01*
X020979Y002046D01*
X020889Y002233D02*
X020843Y002233D01*
X020749Y002140D01*
X020660Y002140D02*
X020473Y002140D01*
X020473Y002186D02*
X020520Y002233D01*
X020613Y002233D01*
X020660Y002186D01*
X020660Y002140D01*
X020613Y002046D02*
X020520Y002046D01*
X020473Y002093D01*
X020473Y002186D01*
X020384Y002233D02*
X020244Y002233D01*
X020197Y002186D01*
X020197Y002093D01*
X020244Y002046D01*
X020384Y002046D01*
X020384Y002326D01*
X020107Y002186D02*
X020107Y002046D01*
X020107Y002186D02*
X020061Y002233D01*
X019921Y002233D01*
X019921Y002046D01*
X019831Y002046D02*
X019644Y002046D01*
X019644Y002326D01*
X019831Y002326D01*
X019738Y002186D02*
X019644Y002186D01*
X019277Y002093D02*
X019277Y002046D01*
X019230Y002046D01*
X019230Y002093D01*
X019277Y002093D01*
X019141Y002046D02*
X019141Y002326D01*
X018954Y002326D02*
X019141Y002046D01*
X018954Y002046D02*
X018954Y002326D01*
X018588Y002233D02*
X018588Y002000D01*
X018541Y001953D01*
X018495Y001953D01*
X018448Y002046D02*
X018588Y002046D01*
X018448Y002046D02*
X018401Y002093D01*
X018401Y002233D01*
X018312Y002233D02*
X018265Y002186D01*
X018125Y002186D01*
X018125Y002046D02*
X018265Y002046D01*
X018312Y002093D01*
X018312Y002140D01*
X018265Y002186D01*
X018312Y002233D02*
X018312Y002280D01*
X018265Y002326D01*
X018125Y002326D01*
X018125Y002046D01*
X018219Y001726D02*
X018125Y001633D01*
X018125Y001540D01*
X018219Y001446D01*
X018309Y001493D02*
X018356Y001446D01*
X018449Y001446D01*
X018496Y001493D01*
X018586Y001493D02*
X018586Y001680D01*
X018632Y001726D01*
X018726Y001726D01*
X018772Y001680D01*
X018862Y001726D02*
X018955Y001633D01*
X018955Y001540D01*
X018862Y001446D01*
X018772Y001493D02*
X018726Y001446D01*
X018632Y001446D01*
X018586Y001493D01*
X018496Y001680D02*
X018449Y001726D01*
X018356Y001726D01*
X018309Y001680D01*
X018309Y001493D01*
X018448Y001126D02*
X018541Y001126D01*
X018588Y001080D01*
X018401Y000893D01*
X018448Y000846D01*
X018541Y000846D01*
X018588Y000893D01*
X018588Y001080D01*
X018448Y001126D02*
X018401Y001080D01*
X018401Y000893D01*
X018312Y001033D02*
X018219Y000846D01*
X018125Y001033D01*
X018678Y000893D02*
X018724Y000893D01*
X018724Y000846D01*
X018678Y000846D01*
X018678Y000893D01*
X018816Y000846D02*
X019003Y000846D01*
X018909Y000846D02*
X018909Y001126D01*
X018816Y001033D01*
X019368Y001126D02*
X019555Y001126D01*
X019555Y001080D01*
X019368Y000893D01*
X019368Y000846D01*
X019644Y000846D02*
X019831Y001126D01*
X019921Y001033D02*
X020014Y001126D01*
X020014Y000846D01*
X019921Y000846D02*
X020107Y000846D01*
X020197Y000846D02*
X020384Y001033D01*
X020384Y001080D01*
X020337Y001126D01*
X020244Y001126D01*
X020197Y001080D01*
X020197Y000846D02*
X020384Y000846D01*
X020473Y000846D02*
X020660Y001126D01*
X020749Y001080D02*
X020796Y001126D01*
X020889Y001126D01*
X020936Y001080D01*
X020936Y001033D01*
X020749Y000846D01*
X020936Y000846D01*
X021025Y000893D02*
X021212Y001080D01*
X021212Y000893D01*
X021166Y000846D01*
X021072Y000846D01*
X021025Y000893D01*
X021025Y001080D01*
X021072Y001126D01*
X021166Y001126D01*
X021212Y001080D01*
X021302Y001033D02*
X021395Y001126D01*
X021395Y000846D01*
X021302Y000846D02*
X021489Y000846D01*
X021578Y000893D02*
X021765Y001080D01*
X021765Y000893D01*
X021718Y000846D01*
X021625Y000846D01*
X021578Y000893D01*
X021578Y001080D01*
X021625Y001126D01*
X021718Y001126D01*
X021765Y001080D01*
X021581Y001446D02*
X021581Y001633D01*
X021487Y001726D01*
X021394Y001633D01*
X021394Y001446D01*
X021304Y001493D02*
X021258Y001446D01*
X021164Y001446D01*
X021118Y001493D01*
X021164Y001586D02*
X021258Y001586D01*
X021304Y001540D01*
X021304Y001493D01*
X021394Y001586D02*
X021581Y001586D01*
X021304Y001680D02*
X021258Y001726D01*
X021164Y001726D01*
X021118Y001680D01*
X021118Y001633D01*
X021164Y001586D01*
X021028Y001586D02*
X020841Y001586D01*
X020752Y001680D02*
X020658Y001586D01*
X020658Y001446D01*
X020658Y001586D02*
X020565Y001680D01*
X020565Y001726D01*
X020476Y001680D02*
X020476Y001633D01*
X020429Y001586D01*
X020289Y001586D01*
X020289Y001446D02*
X020429Y001446D01*
X020476Y001493D01*
X020476Y001540D01*
X020429Y001586D01*
X020476Y001680D02*
X020429Y001726D01*
X020289Y001726D01*
X020289Y001446D01*
X019923Y001493D02*
X019923Y001680D01*
X019736Y001493D01*
X019783Y001446D01*
X019877Y001446D01*
X019923Y001493D01*
X019736Y001493D02*
X019736Y001680D01*
X019783Y001726D01*
X019877Y001726D01*
X019923Y001680D01*
X019645Y001493D02*
X019645Y001446D01*
X019598Y001446D01*
X019598Y001493D01*
X019645Y001493D01*
X019509Y001493D02*
X019462Y001446D01*
X019369Y001446D01*
X019322Y001493D01*
X019415Y001586D02*
X019462Y001586D01*
X019509Y001540D01*
X019509Y001493D01*
X019462Y001586D02*
X019509Y001633D01*
X019509Y001680D01*
X019462Y001726D01*
X019369Y001726D01*
X019322Y001680D01*
X020752Y001680D02*
X020752Y001726D01*
X020749Y002046D02*
X020749Y002233D01*
X016110Y006631D02*
X015610Y006631D01*
X016110Y006631D02*
X016110Y009881D01*
X012510Y009881D01*
X012510Y006631D01*
X013010Y006631D01*
X013610Y006631D02*
X014010Y006631D01*
X014610Y006631D02*
X015010Y006631D01*
X010910Y006631D02*
X010410Y006631D01*
X010910Y006631D02*
X010910Y009881D01*
X007310Y009881D01*
X007310Y006631D01*
X007810Y006631D01*
X008410Y006631D02*
X008810Y006631D01*
X009410Y006631D02*
X009810Y006631D01*
X004569Y009140D02*
X004382Y009140D01*
X004382Y009186D02*
X004429Y009233D01*
X004523Y009233D01*
X004569Y009186D01*
X004569Y009140D01*
X004523Y009046D02*
X004429Y009046D01*
X004382Y009093D01*
X004382Y009186D01*
X004293Y009233D02*
X004200Y009046D01*
X004106Y009233D01*
X003969Y009233D02*
X003969Y009046D01*
X004015Y009046D02*
X003922Y009046D01*
X003831Y009046D02*
X003785Y009093D01*
X003785Y009280D01*
X003831Y009233D02*
X003738Y009233D01*
X003601Y009233D02*
X003601Y009046D01*
X003647Y009046D02*
X003554Y009046D01*
X003464Y009093D02*
X003418Y009140D01*
X003324Y009140D01*
X003278Y009186D01*
X003324Y009233D01*
X003464Y009233D01*
X003554Y009233D02*
X003601Y009233D01*
X003601Y009326D02*
X003601Y009373D01*
X003647Y009446D02*
X003601Y009493D01*
X003601Y009680D01*
X003647Y009633D02*
X003554Y009633D01*
X003464Y009586D02*
X003464Y009446D01*
X003464Y009586D02*
X003418Y009633D01*
X003278Y009633D01*
X003278Y009446D01*
X003188Y009540D02*
X003001Y009540D01*
X003001Y009586D02*
X003048Y009633D01*
X003141Y009633D01*
X003188Y009586D01*
X003188Y009540D01*
X003141Y009446D02*
X003048Y009446D01*
X003001Y009493D01*
X003001Y009586D01*
X002912Y009493D02*
X002865Y009446D01*
X002772Y009446D01*
X002725Y009493D01*
X002725Y009680D01*
X002772Y009726D01*
X002865Y009726D01*
X002912Y009680D01*
X002865Y009326D02*
X002725Y009326D01*
X002725Y009046D01*
X002725Y009140D02*
X002865Y009140D01*
X002912Y009186D01*
X002912Y009280D01*
X002865Y009326D01*
X003001Y009186D02*
X003001Y009093D01*
X003048Y009046D01*
X003141Y009046D01*
X003188Y009093D01*
X003188Y009186D01*
X003141Y009233D01*
X003048Y009233D01*
X003001Y009186D01*
X003048Y008926D02*
X003141Y008926D01*
X003188Y008880D01*
X003001Y008693D01*
X003048Y008646D01*
X003141Y008646D01*
X003188Y008693D01*
X003188Y008880D01*
X003048Y008926D02*
X003001Y008880D01*
X003001Y008693D01*
X002912Y008646D02*
X002725Y008646D01*
X002819Y008646D02*
X002819Y008926D01*
X002725Y008833D01*
X002819Y008526D02*
X002819Y008246D01*
X002912Y008246D02*
X002725Y008246D01*
X002725Y008433D02*
X002819Y008526D01*
X003001Y008480D02*
X003001Y008433D01*
X003048Y008386D01*
X003141Y008386D01*
X003188Y008340D01*
X003188Y008293D01*
X003141Y008246D01*
X003048Y008246D01*
X003001Y008293D01*
X003001Y008340D01*
X003048Y008386D01*
X003141Y008386D02*
X003188Y008433D01*
X003188Y008480D01*
X003141Y008526D01*
X003048Y008526D01*
X003001Y008480D01*
X003278Y008433D02*
X003371Y008246D01*
X003464Y008433D01*
X003462Y008646D02*
X003416Y008693D01*
X003462Y008646D02*
X003556Y008646D01*
X003603Y008693D01*
X003603Y008786D01*
X003556Y008833D01*
X003509Y008833D01*
X003416Y008786D01*
X003416Y008926D01*
X003603Y008926D01*
X003464Y009093D02*
X003418Y009046D01*
X003278Y009046D01*
X003278Y008693D02*
X003324Y008693D01*
X003324Y008646D01*
X003278Y008646D01*
X003278Y008693D01*
X003830Y008526D02*
X003970Y008526D01*
X004017Y008480D01*
X004017Y008293D01*
X003970Y008246D01*
X003830Y008246D01*
X003830Y008526D01*
X004106Y008480D02*
X004106Y008293D01*
X004153Y008246D01*
X004246Y008246D01*
X004293Y008293D01*
X004293Y008480D02*
X004246Y008526D01*
X004153Y008526D01*
X004106Y008480D01*
X004155Y008786D02*
X003968Y008786D01*
X003969Y009233D02*
X003922Y009233D01*
X003969Y009326D02*
X003969Y009373D01*
X004014Y009446D02*
X004014Y009633D01*
X004014Y009540D02*
X004108Y009633D01*
X004154Y009633D01*
X003925Y009586D02*
X003925Y009540D01*
X003738Y009540D01*
X003738Y009586D02*
X003785Y009633D01*
X003878Y009633D01*
X003925Y009586D01*
X003878Y009446D02*
X003785Y009446D01*
X003738Y009493D01*
X003738Y009586D01*
X004225Y018146D02*
X004412Y018146D01*
X004501Y018193D02*
X004501Y018380D01*
X004548Y018426D01*
X004641Y018426D01*
X004688Y018380D01*
X004778Y018426D02*
X004918Y018426D01*
X004964Y018380D01*
X004964Y018193D01*
X004918Y018146D01*
X004778Y018146D01*
X004778Y018426D01*
X004688Y018193D02*
X004641Y018146D01*
X004548Y018146D01*
X004501Y018193D01*
X004225Y018146D02*
X004225Y018426D01*
X005330Y018333D02*
X005423Y018426D01*
X005423Y018146D01*
X005330Y018146D02*
X005517Y018146D01*
X018820Y017325D02*
X018820Y017138D01*
X018866Y017091D01*
X018960Y017091D01*
X019006Y017138D01*
X019096Y017091D02*
X019283Y017091D01*
X019189Y017091D02*
X019189Y017372D01*
X019096Y017278D01*
X019006Y017325D02*
X018960Y017372D01*
X018866Y017372D01*
X018820Y017325D01*
X020225Y018146D02*
X020412Y018146D01*
X020319Y018146D02*
X020319Y018426D01*
X020225Y018333D01*
X020501Y018286D02*
X020641Y018286D01*
X020688Y018240D01*
X020688Y018193D01*
X020641Y018146D01*
X020548Y018146D01*
X020501Y018193D01*
X020501Y018286D01*
X020595Y018380D01*
X020688Y018426D01*
D16*
X020712Y018579D02*
X020212Y018579D01*
X019962Y018829D01*
X019712Y018579D01*
X019212Y018579D01*
X018962Y018829D01*
X018712Y018579D01*
X018212Y018579D01*
X017962Y018829D01*
X017712Y018579D01*
X017212Y018579D01*
X016962Y018829D01*
X016712Y018579D01*
X016212Y018579D01*
X015962Y018829D01*
X015712Y018579D01*
X015212Y018579D01*
X014962Y018829D01*
X014712Y018579D01*
X014212Y018579D01*
X013962Y018829D01*
X013712Y018579D01*
X013212Y018579D01*
X012962Y018829D01*
X012712Y018579D01*
X012212Y018579D01*
X011962Y018829D01*
X011712Y018579D01*
X011212Y018579D01*
X010962Y018829D01*
X010712Y018579D01*
X010212Y018579D01*
X009962Y018829D01*
X009712Y018579D01*
X009212Y018579D01*
X008962Y018829D01*
X008712Y018579D01*
X008212Y018579D01*
X007962Y018829D01*
X007712Y018579D01*
X007212Y018579D01*
X006962Y018829D01*
X006712Y018579D01*
X006212Y018579D01*
X005962Y018829D01*
X005712Y018579D01*
X005212Y018579D01*
X004962Y018829D01*
X004962Y019329D01*
X005212Y019579D01*
X005712Y019579D01*
X005962Y019329D01*
X006212Y019579D01*
X006712Y019579D01*
X006962Y019329D01*
X007212Y019579D01*
X007712Y019579D01*
X007962Y019329D01*
X008212Y019579D01*
X008712Y019579D01*
X008962Y019329D01*
X009212Y019579D01*
X009712Y019579D01*
X009962Y019329D01*
X010212Y019579D01*
X010712Y019579D01*
X010962Y019329D01*
X011212Y019579D01*
X011712Y019579D01*
X011962Y019329D01*
X012212Y019579D01*
X012712Y019579D01*
X012962Y019329D01*
X013212Y019579D01*
X013712Y019579D01*
X013962Y019329D01*
X014212Y019579D01*
X014712Y019579D01*
X014962Y019329D01*
X015212Y019579D01*
X015712Y019579D01*
X015962Y019329D01*
X016212Y019579D01*
X016712Y019579D01*
X016962Y019329D01*
X017212Y019579D01*
X017712Y019579D01*
X017962Y019329D01*
X018212Y019579D01*
X018712Y019579D01*
X018962Y019329D01*
X019212Y019579D01*
X019712Y019579D01*
X019962Y019329D01*
X020212Y019579D01*
X020712Y019579D01*
X020962Y019329D01*
X020962Y018829D01*
X020712Y018579D01*
X021310Y018431D02*
X021310Y017931D01*
X021560Y017681D01*
X022060Y017681D01*
X022310Y017931D01*
X022560Y017681D01*
X023060Y017681D01*
X023310Y017931D01*
X023560Y017681D01*
X024060Y017681D01*
X024310Y017931D01*
X024560Y017681D01*
X025060Y017681D01*
X025310Y017931D01*
X025560Y017681D01*
X026060Y017681D01*
X026310Y017931D01*
X026560Y017681D01*
X027060Y017681D01*
X027310Y017931D01*
X027310Y018431D01*
X027060Y018681D01*
X026560Y018681D01*
X026310Y018431D01*
X026060Y018681D01*
X025560Y018681D01*
X025310Y018431D01*
X025060Y018681D01*
X024560Y018681D01*
X024310Y018431D01*
X024060Y018681D01*
X023560Y018681D01*
X023310Y018431D01*
X023060Y018681D01*
X022560Y018681D01*
X022310Y018431D01*
X022060Y018681D01*
X021560Y018681D01*
X021310Y018431D01*
X019010Y018031D02*
X019010Y017531D01*
X014710Y017431D02*
X014710Y016931D01*
X012709Y016681D02*
X012761Y016691D01*
X012812Y016705D01*
X012862Y016723D01*
X012910Y016744D01*
X012957Y016769D01*
X013001Y016797D01*
X013044Y016829D01*
X013084Y016863D01*
X013121Y016901D01*
X013155Y016941D01*
X013187Y016983D01*
X013215Y017028D01*
X013239Y017075D01*
X013260Y017123D01*
X013278Y017173D01*
X013291Y017224D01*
X013301Y017276D01*
X013307Y017328D01*
X013309Y017381D01*
X013307Y017434D01*
X013301Y017486D01*
X013291Y017538D01*
X013278Y017589D01*
X013260Y017639D01*
X013239Y017687D01*
X013215Y017734D01*
X013187Y017779D01*
X013155Y017821D01*
X013121Y017861D01*
X013084Y017899D01*
X013044Y017933D01*
X013001Y017965D01*
X012957Y017993D01*
X012910Y018018D01*
X012862Y018039D01*
X012812Y018057D01*
X012761Y018071D01*
X012709Y018081D01*
X010910Y018081D02*
X010858Y018071D01*
X010807Y018057D01*
X010757Y018039D01*
X010709Y018018D01*
X010662Y017993D01*
X010618Y017965D01*
X010575Y017933D01*
X010535Y017899D01*
X010498Y017861D01*
X010464Y017821D01*
X010432Y017779D01*
X010404Y017734D01*
X010380Y017687D01*
X010359Y017639D01*
X010341Y017589D01*
X010328Y017538D01*
X010318Y017486D01*
X010312Y017434D01*
X010310Y017381D01*
X010312Y017328D01*
X010318Y017276D01*
X010328Y017224D01*
X010341Y017173D01*
X010359Y017123D01*
X010380Y017075D01*
X010404Y017028D01*
X010432Y016983D01*
X010464Y016941D01*
X010498Y016901D01*
X010535Y016863D01*
X010575Y016829D01*
X010618Y016797D01*
X010662Y016769D01*
X010709Y016744D01*
X010757Y016723D01*
X010807Y016705D01*
X010858Y016691D01*
X010910Y016681D01*
X005903Y013953D02*
X005903Y013126D01*
X005903Y013953D02*
X001691Y013953D01*
X001691Y010410D01*
X003777Y010410D01*
X005628Y010410D02*
X005903Y010410D01*
X005903Y011237D01*
X010910Y018081D02*
X011269Y018113D01*
X011630Y018129D01*
X011990Y018129D01*
X012351Y018113D01*
X012710Y018081D01*
X012710Y016681D02*
X012351Y016649D01*
X011990Y016633D01*
X011630Y016633D01*
X011269Y016649D01*
X010910Y016681D01*
X017810Y012331D02*
X017810Y011831D01*
X022660Y014981D02*
X023160Y014981D01*
X024810Y013181D02*
X026410Y013181D01*
X026210Y013181D01*
X026410Y013181D02*
X026810Y013181D01*
X026810Y017181D01*
X024810Y017181D01*
X024810Y013181D01*
X031810Y012931D02*
X031810Y013431D01*
X032060Y013681D01*
X031810Y013931D01*
X031810Y014431D01*
X032060Y014681D01*
X031810Y014931D01*
X031810Y015431D01*
X032060Y015681D01*
X032560Y015681D01*
X032810Y015431D01*
X032810Y014931D01*
X032560Y014681D01*
X032810Y014431D01*
X032810Y013931D01*
X032560Y013681D01*
X032810Y013431D01*
X032810Y012931D01*
X032560Y012681D01*
X032810Y012431D01*
X032810Y011931D01*
X032560Y011681D01*
X032810Y011431D01*
X032810Y010931D01*
X032560Y010681D01*
X032810Y010431D01*
X032810Y009931D01*
X032560Y009681D01*
X032810Y009431D01*
X032810Y008931D01*
X032560Y008681D01*
X032810Y008431D01*
X032810Y007931D01*
X032560Y007681D01*
X032060Y007681D01*
X031810Y007931D01*
X031810Y008431D01*
X032060Y008681D01*
X031810Y008931D01*
X031810Y009431D01*
X032060Y009681D01*
X031810Y009931D01*
X031810Y010431D01*
X032060Y010681D01*
X031810Y010931D01*
X031810Y011431D01*
X032060Y011681D01*
X032560Y011681D01*
X032060Y011681D01*
X031810Y011931D01*
X031810Y012431D01*
X032060Y012681D01*
X031810Y012931D01*
X032810Y012931D02*
X032810Y013431D01*
X033060Y013681D01*
X032810Y013931D01*
X032810Y014431D01*
X033060Y014681D01*
X032810Y014931D01*
X032810Y015431D01*
X033060Y015681D01*
X033560Y015681D01*
X033810Y015431D01*
X033810Y014931D01*
X033560Y014681D01*
X033810Y014431D01*
X033810Y013931D01*
X033560Y013681D01*
X033810Y013431D01*
X033810Y012931D01*
X033560Y012681D01*
X033810Y012431D01*
X033810Y011931D01*
X033560Y011681D01*
X033060Y011681D01*
X032810Y011431D01*
X032810Y010931D01*
X033060Y010681D01*
X032810Y010431D01*
X032810Y009931D01*
X033060Y009681D01*
X032810Y009431D01*
X032810Y008931D01*
X033060Y008681D01*
X032810Y008431D01*
X032810Y007931D01*
X033060Y007681D01*
X033560Y007681D01*
X033810Y007931D01*
X033810Y008431D01*
X033560Y008681D01*
X033810Y008931D01*
X033810Y009431D01*
X033560Y009681D01*
X033810Y009931D01*
X033810Y010431D01*
X033560Y010681D01*
X033810Y010931D01*
X033810Y011431D01*
X033560Y011681D01*
X033060Y011681D01*
X032810Y011931D01*
X032810Y012431D01*
X033060Y012681D01*
X032810Y012931D01*
X031460Y017681D02*
X030960Y017681D01*
X030710Y017931D01*
X030460Y017681D01*
X029960Y017681D01*
X029710Y017931D01*
X029460Y017681D01*
X028960Y017681D01*
X028710Y017931D01*
X028460Y017681D01*
X027960Y017681D01*
X027710Y017931D01*
X027710Y018431D01*
X027960Y018681D01*
X028460Y018681D01*
X028710Y018431D01*
X028960Y018681D01*
X029460Y018681D01*
X029710Y018431D01*
X029960Y018681D01*
X030460Y018681D01*
X030710Y018431D01*
X030960Y018681D01*
X031460Y018681D01*
X031710Y018431D01*
X031710Y017931D01*
X031460Y017681D01*
X011710Y006131D02*
X011710Y005631D01*
X011360Y003981D02*
X013060Y003981D01*
X013410Y003174D02*
X013410Y002381D01*
X013060Y001581D02*
X011360Y001581D01*
X011010Y002381D02*
X011010Y003186D01*
X011510Y002781D02*
X011512Y002833D01*
X011518Y002885D01*
X011528Y002937D01*
X011541Y002987D01*
X011558Y003037D01*
X011579Y003085D01*
X011604Y003131D01*
X011632Y003175D01*
X011663Y003217D01*
X011697Y003257D01*
X011734Y003294D01*
X011774Y003328D01*
X011816Y003359D01*
X011860Y003387D01*
X011906Y003412D01*
X011954Y003433D01*
X012004Y003450D01*
X012054Y003463D01*
X012106Y003473D01*
X012158Y003479D01*
X012210Y003481D01*
X012262Y003479D01*
X012314Y003473D01*
X012366Y003463D01*
X012416Y003450D01*
X012466Y003433D01*
X012514Y003412D01*
X012560Y003387D01*
X012604Y003359D01*
X012646Y003328D01*
X012686Y003294D01*
X012723Y003257D01*
X012757Y003217D01*
X012788Y003175D01*
X012816Y003131D01*
X012841Y003085D01*
X012862Y003037D01*
X012879Y002987D01*
X012892Y002937D01*
X012902Y002885D01*
X012908Y002833D01*
X012910Y002781D01*
X012908Y002729D01*
X012902Y002677D01*
X012892Y002625D01*
X012879Y002575D01*
X012862Y002525D01*
X012841Y002477D01*
X012816Y002431D01*
X012788Y002387D01*
X012757Y002345D01*
X012723Y002305D01*
X012686Y002268D01*
X012646Y002234D01*
X012604Y002203D01*
X012560Y002175D01*
X012514Y002150D01*
X012466Y002129D01*
X012416Y002112D01*
X012366Y002099D01*
X012314Y002089D01*
X012262Y002083D01*
X012210Y002081D01*
X012158Y002083D01*
X012106Y002089D01*
X012054Y002099D01*
X012004Y002112D01*
X011954Y002129D01*
X011906Y002150D01*
X011860Y002175D01*
X011816Y002203D01*
X011774Y002234D01*
X011734Y002268D01*
X011697Y002305D01*
X011663Y002345D01*
X011632Y002387D01*
X011604Y002431D01*
X011579Y002477D01*
X011558Y002525D01*
X011541Y002575D01*
X011528Y002625D01*
X011518Y002677D01*
X011512Y002729D01*
X011510Y002781D01*
X009810Y003174D02*
X009810Y002381D01*
X007910Y002781D02*
X007912Y002833D01*
X007918Y002885D01*
X007928Y002937D01*
X007941Y002987D01*
X007958Y003037D01*
X007979Y003085D01*
X008004Y003131D01*
X008032Y003175D01*
X008063Y003217D01*
X008097Y003257D01*
X008134Y003294D01*
X008174Y003328D01*
X008216Y003359D01*
X008260Y003387D01*
X008306Y003412D01*
X008354Y003433D01*
X008404Y003450D01*
X008454Y003463D01*
X008506Y003473D01*
X008558Y003479D01*
X008610Y003481D01*
X008662Y003479D01*
X008714Y003473D01*
X008766Y003463D01*
X008816Y003450D01*
X008866Y003433D01*
X008914Y003412D01*
X008960Y003387D01*
X009004Y003359D01*
X009046Y003328D01*
X009086Y003294D01*
X009123Y003257D01*
X009157Y003217D01*
X009188Y003175D01*
X009216Y003131D01*
X009241Y003085D01*
X009262Y003037D01*
X009279Y002987D01*
X009292Y002937D01*
X009302Y002885D01*
X009308Y002833D01*
X009310Y002781D01*
X009308Y002729D01*
X009302Y002677D01*
X009292Y002625D01*
X009279Y002575D01*
X009262Y002525D01*
X009241Y002477D01*
X009216Y002431D01*
X009188Y002387D01*
X009157Y002345D01*
X009123Y002305D01*
X009086Y002268D01*
X009046Y002234D01*
X009004Y002203D01*
X008960Y002175D01*
X008914Y002150D01*
X008866Y002129D01*
X008816Y002112D01*
X008766Y002099D01*
X008714Y002089D01*
X008662Y002083D01*
X008610Y002081D01*
X008558Y002083D01*
X008506Y002089D01*
X008454Y002099D01*
X008404Y002112D01*
X008354Y002129D01*
X008306Y002150D01*
X008260Y002175D01*
X008216Y002203D01*
X008174Y002234D01*
X008134Y002268D01*
X008097Y002305D01*
X008063Y002345D01*
X008032Y002387D01*
X008004Y002431D01*
X007979Y002477D01*
X007958Y002525D01*
X007941Y002575D01*
X007928Y002625D01*
X007918Y002677D01*
X007912Y002729D01*
X007910Y002781D01*
X007410Y002381D02*
X007410Y003186D01*
X006210Y003174D02*
X006210Y002381D01*
X005860Y001581D02*
X004160Y001581D01*
X003810Y002381D02*
X003810Y003186D01*
X004310Y002781D02*
X004312Y002833D01*
X004318Y002885D01*
X004328Y002937D01*
X004341Y002987D01*
X004358Y003037D01*
X004379Y003085D01*
X004404Y003131D01*
X004432Y003175D01*
X004463Y003217D01*
X004497Y003257D01*
X004534Y003294D01*
X004574Y003328D01*
X004616Y003359D01*
X004660Y003387D01*
X004706Y003412D01*
X004754Y003433D01*
X004804Y003450D01*
X004854Y003463D01*
X004906Y003473D01*
X004958Y003479D01*
X005010Y003481D01*
X005062Y003479D01*
X005114Y003473D01*
X005166Y003463D01*
X005216Y003450D01*
X005266Y003433D01*
X005314Y003412D01*
X005360Y003387D01*
X005404Y003359D01*
X005446Y003328D01*
X005486Y003294D01*
X005523Y003257D01*
X005557Y003217D01*
X005588Y003175D01*
X005616Y003131D01*
X005641Y003085D01*
X005662Y003037D01*
X005679Y002987D01*
X005692Y002937D01*
X005702Y002885D01*
X005708Y002833D01*
X005710Y002781D01*
X005708Y002729D01*
X005702Y002677D01*
X005692Y002625D01*
X005679Y002575D01*
X005662Y002525D01*
X005641Y002477D01*
X005616Y002431D01*
X005588Y002387D01*
X005557Y002345D01*
X005523Y002305D01*
X005486Y002268D01*
X005446Y002234D01*
X005404Y002203D01*
X005360Y002175D01*
X005314Y002150D01*
X005266Y002129D01*
X005216Y002112D01*
X005166Y002099D01*
X005114Y002089D01*
X005062Y002083D01*
X005010Y002081D01*
X004958Y002083D01*
X004906Y002089D01*
X004854Y002099D01*
X004804Y002112D01*
X004754Y002129D01*
X004706Y002150D01*
X004660Y002175D01*
X004616Y002203D01*
X004574Y002234D01*
X004534Y002268D01*
X004497Y002305D01*
X004463Y002345D01*
X004432Y002387D01*
X004404Y002431D01*
X004379Y002477D01*
X004358Y002525D01*
X004341Y002575D01*
X004328Y002625D01*
X004318Y002677D01*
X004312Y002729D01*
X004310Y002781D01*
X004160Y003981D02*
X005860Y003981D01*
X007760Y003981D02*
X009460Y003981D01*
X005710Y006031D02*
X005710Y006531D01*
X007760Y001581D02*
X009460Y001581D01*
X014810Y002381D02*
X014810Y003186D01*
X015310Y002781D02*
X015312Y002833D01*
X015318Y002885D01*
X015328Y002937D01*
X015341Y002987D01*
X015358Y003037D01*
X015379Y003085D01*
X015404Y003131D01*
X015432Y003175D01*
X015463Y003217D01*
X015497Y003257D01*
X015534Y003294D01*
X015574Y003328D01*
X015616Y003359D01*
X015660Y003387D01*
X015706Y003412D01*
X015754Y003433D01*
X015804Y003450D01*
X015854Y003463D01*
X015906Y003473D01*
X015958Y003479D01*
X016010Y003481D01*
X016062Y003479D01*
X016114Y003473D01*
X016166Y003463D01*
X016216Y003450D01*
X016266Y003433D01*
X016314Y003412D01*
X016360Y003387D01*
X016404Y003359D01*
X016446Y003328D01*
X016486Y003294D01*
X016523Y003257D01*
X016557Y003217D01*
X016588Y003175D01*
X016616Y003131D01*
X016641Y003085D01*
X016662Y003037D01*
X016679Y002987D01*
X016692Y002937D01*
X016702Y002885D01*
X016708Y002833D01*
X016710Y002781D01*
X016708Y002729D01*
X016702Y002677D01*
X016692Y002625D01*
X016679Y002575D01*
X016662Y002525D01*
X016641Y002477D01*
X016616Y002431D01*
X016588Y002387D01*
X016557Y002345D01*
X016523Y002305D01*
X016486Y002268D01*
X016446Y002234D01*
X016404Y002203D01*
X016360Y002175D01*
X016314Y002150D01*
X016266Y002129D01*
X016216Y002112D01*
X016166Y002099D01*
X016114Y002089D01*
X016062Y002083D01*
X016010Y002081D01*
X015958Y002083D01*
X015906Y002089D01*
X015854Y002099D01*
X015804Y002112D01*
X015754Y002129D01*
X015706Y002150D01*
X015660Y002175D01*
X015616Y002203D01*
X015574Y002234D01*
X015534Y002268D01*
X015497Y002305D01*
X015463Y002345D01*
X015432Y002387D01*
X015404Y002431D01*
X015379Y002477D01*
X015358Y002525D01*
X015341Y002575D01*
X015328Y002625D01*
X015318Y002677D01*
X015312Y002729D01*
X015310Y002781D01*
X015160Y001581D02*
X016860Y001581D01*
X017210Y002381D02*
X017210Y003174D01*
X016860Y003981D02*
X015160Y003981D01*
D17*
X027930Y001891D02*
X027930Y001691D01*
X027930Y001051D02*
X027930Y000871D01*
X026027Y013681D02*
X026029Y013714D01*
X026035Y013747D01*
X026045Y013780D01*
X026058Y013810D01*
X026075Y013839D01*
X026096Y013866D01*
X026119Y013890D01*
X026145Y013911D01*
X026173Y013929D01*
X026204Y013943D01*
X026235Y013954D01*
X026268Y013961D01*
X026302Y013964D01*
X026335Y013963D01*
X026368Y013958D01*
X026401Y013949D01*
X026432Y013936D01*
X026461Y013920D01*
X026488Y013901D01*
X026513Y013878D01*
X026535Y013853D01*
X026554Y013825D01*
X026569Y013795D01*
X026581Y013764D01*
X026589Y013731D01*
X026593Y013698D01*
X026593Y013664D01*
X026589Y013631D01*
X026581Y013598D01*
X026569Y013567D01*
X026554Y013537D01*
X026535Y013509D01*
X026513Y013484D01*
X026488Y013461D01*
X026461Y013442D01*
X026432Y013426D01*
X026401Y013413D01*
X026368Y013404D01*
X026335Y013399D01*
X026302Y013398D01*
X026268Y013401D01*
X026235Y013408D01*
X026204Y013419D01*
X026173Y013433D01*
X026145Y013451D01*
X026119Y013472D01*
X026096Y013496D01*
X026075Y013523D01*
X026058Y013552D01*
X026045Y013582D01*
X026035Y013615D01*
X026029Y013648D01*
X026027Y013681D01*
D18*
X025760Y012681D02*
X025610Y012681D01*
X025593Y012679D01*
X025576Y012675D01*
X025560Y012668D01*
X025546Y012658D01*
X025533Y012645D01*
X025523Y012631D01*
X025516Y012615D01*
X025512Y012598D01*
X025510Y012581D01*
X025510Y011981D01*
X025512Y011964D01*
X025516Y011947D01*
X025523Y011931D01*
X025533Y011917D01*
X025546Y011904D01*
X025560Y011894D01*
X025576Y011887D01*
X025593Y011883D01*
X025610Y011881D01*
X025760Y011881D01*
X025810Y011931D01*
X027210Y011931D01*
X027260Y011881D01*
X027410Y011881D01*
X027427Y011883D01*
X027444Y011887D01*
X027460Y011894D01*
X027474Y011904D01*
X027487Y011917D01*
X027497Y011931D01*
X027504Y011947D01*
X027508Y011964D01*
X027510Y011981D01*
X027510Y012581D01*
X027508Y012598D01*
X027504Y012615D01*
X027497Y012631D01*
X027487Y012645D01*
X027474Y012658D01*
X027460Y012668D01*
X027444Y012675D01*
X027427Y012679D01*
X027410Y012681D01*
X027260Y012681D01*
X027210Y012631D01*
X025810Y012631D01*
X025760Y012681D01*
X025760Y011581D02*
X025610Y011581D01*
X025593Y011579D01*
X025576Y011575D01*
X025560Y011568D01*
X025546Y011558D01*
X025533Y011545D01*
X025523Y011531D01*
X025516Y011515D01*
X025512Y011498D01*
X025510Y011481D01*
X025510Y010881D01*
X025512Y010864D01*
X025516Y010847D01*
X025523Y010831D01*
X025533Y010817D01*
X025546Y010804D01*
X025560Y010794D01*
X025576Y010787D01*
X025593Y010783D01*
X025610Y010781D01*
X025760Y010781D01*
X025810Y010831D01*
X027210Y010831D01*
X027260Y010781D01*
X027410Y010781D01*
X027427Y010783D01*
X027444Y010787D01*
X027460Y010794D01*
X027474Y010804D01*
X027487Y010817D01*
X027497Y010831D01*
X027504Y010847D01*
X027508Y010864D01*
X027510Y010881D01*
X027510Y011481D01*
X027508Y011498D01*
X027504Y011515D01*
X027497Y011531D01*
X027487Y011545D01*
X027474Y011558D01*
X027460Y011568D01*
X027444Y011575D01*
X027427Y011579D01*
X027410Y011581D01*
X027260Y011581D01*
X027210Y011531D01*
X025810Y011531D01*
X025760Y011581D01*
X028460Y013931D02*
X028610Y013931D01*
X028610Y014631D01*
X028610Y014681D01*
X030760Y014681D01*
X030777Y014679D01*
X030794Y014675D01*
X030810Y014668D01*
X030824Y014658D01*
X030837Y014645D01*
X030847Y014631D01*
X030854Y014615D01*
X030858Y014598D01*
X030860Y014581D01*
X030860Y013981D01*
X030858Y013964D01*
X030854Y013947D01*
X030847Y013931D01*
X030837Y013917D01*
X030824Y013904D01*
X030810Y013894D01*
X030794Y013887D01*
X030777Y013883D01*
X030760Y013881D01*
X028610Y013881D01*
X028610Y013931D01*
X028460Y013931D02*
X028460Y014631D01*
X028610Y014631D01*
X029260Y014281D02*
X029460Y014281D01*
X029460Y014081D01*
X029610Y014081D02*
X029610Y014481D01*
X029760Y014481D01*
X029760Y014081D01*
X029610Y014081D01*
X029460Y014281D02*
X029460Y014481D01*
X029910Y014481D02*
X029910Y014281D01*
X029910Y014081D01*
X029910Y014281D02*
X030110Y014281D01*
X030310Y015781D02*
X030460Y015781D01*
X030510Y015831D01*
X031910Y015831D01*
X031960Y015781D01*
X032110Y015781D01*
X032127Y015783D01*
X032144Y015787D01*
X032160Y015794D01*
X032174Y015804D01*
X032187Y015817D01*
X032197Y015831D01*
X032204Y015847D01*
X032208Y015864D01*
X032210Y015881D01*
X032210Y016481D01*
X032208Y016498D01*
X032204Y016515D01*
X032197Y016531D01*
X032187Y016545D01*
X032174Y016558D01*
X032160Y016568D01*
X032144Y016575D01*
X032127Y016579D01*
X032110Y016581D01*
X031960Y016581D01*
X031910Y016531D01*
X030510Y016531D01*
X030460Y016581D01*
X030310Y016581D01*
X030293Y016579D01*
X030276Y016575D01*
X030260Y016568D01*
X030246Y016558D01*
X030233Y016545D01*
X030223Y016531D01*
X030216Y016515D01*
X030212Y016498D01*
X030210Y016481D01*
X030210Y015881D01*
X030212Y015864D01*
X030216Y015847D01*
X030223Y015831D01*
X030233Y015817D01*
X030246Y015804D01*
X030260Y015794D01*
X030276Y015787D01*
X030293Y015783D01*
X030310Y015781D01*
X030310Y016681D02*
X030460Y016681D01*
X030510Y016731D01*
X031910Y016731D01*
X031960Y016681D01*
X032110Y016681D01*
X032127Y016683D01*
X032144Y016687D01*
X032160Y016694D01*
X032174Y016704D01*
X032187Y016717D01*
X032197Y016731D01*
X032204Y016747D01*
X032208Y016764D01*
X032210Y016781D01*
X032210Y017381D01*
X032208Y017398D01*
X032204Y017415D01*
X032197Y017431D01*
X032187Y017445D01*
X032174Y017458D01*
X032160Y017468D01*
X032144Y017475D01*
X032127Y017479D01*
X032110Y017481D01*
X031960Y017481D01*
X031910Y017431D01*
X030510Y017431D01*
X030460Y017481D01*
X030310Y017481D01*
X030293Y017479D01*
X030276Y017475D01*
X030260Y017468D01*
X030246Y017458D01*
X030233Y017445D01*
X030223Y017431D01*
X030216Y017415D01*
X030212Y017398D01*
X030210Y017381D01*
X030210Y016781D01*
X030212Y016764D01*
X030216Y016747D01*
X030223Y016731D01*
X030233Y016717D01*
X030246Y016704D01*
X030260Y016694D01*
X030276Y016687D01*
X030293Y016683D01*
X030310Y016681D01*
X022610Y016681D02*
X022610Y017281D01*
X022608Y017298D01*
X022604Y017315D01*
X022597Y017331D01*
X022587Y017345D01*
X022574Y017358D01*
X022560Y017368D01*
X022544Y017375D01*
X022527Y017379D01*
X022510Y017381D01*
X022360Y017381D01*
X022310Y017331D01*
X020910Y017331D01*
X020860Y017381D01*
X020710Y017381D01*
X020693Y017379D01*
X020676Y017375D01*
X020660Y017368D01*
X020646Y017358D01*
X020633Y017345D01*
X020623Y017331D01*
X020616Y017315D01*
X020612Y017298D01*
X020610Y017281D01*
X020610Y016681D01*
X020612Y016664D01*
X020616Y016647D01*
X020623Y016631D01*
X020633Y016617D01*
X020646Y016604D01*
X020660Y016594D01*
X020676Y016587D01*
X020693Y016583D01*
X020710Y016581D01*
X020860Y016581D01*
X020910Y016631D01*
X022310Y016631D01*
X022360Y016581D01*
X022510Y016581D01*
X022527Y016583D01*
X022544Y016587D01*
X022560Y016594D01*
X022574Y016604D01*
X022587Y016617D01*
X022597Y016631D01*
X022604Y016647D01*
X022608Y016664D01*
X022610Y016681D01*
X020910Y015781D02*
X006310Y015781D01*
X006310Y013581D01*
X020910Y013581D01*
X020910Y014431D01*
X020880Y014433D01*
X020850Y014438D01*
X020821Y014447D01*
X020794Y014460D01*
X020768Y014475D01*
X020744Y014494D01*
X020723Y014515D01*
X020704Y014539D01*
X020689Y014565D01*
X020676Y014592D01*
X020667Y014621D01*
X020662Y014651D01*
X020660Y014681D01*
X020662Y014711D01*
X020667Y014741D01*
X020676Y014770D01*
X020689Y014797D01*
X020704Y014823D01*
X020723Y014847D01*
X020744Y014868D01*
X020768Y014887D01*
X020794Y014902D01*
X020821Y014915D01*
X020850Y014924D01*
X020880Y014929D01*
X020910Y014931D01*
X020910Y015781D01*
X016360Y012631D02*
X016360Y011881D01*
X016010Y011881D01*
X016010Y011281D01*
X016360Y011281D01*
X016360Y006381D01*
X015660Y006381D01*
X014960Y006381D02*
X014660Y006381D01*
X013960Y006381D02*
X013660Y006381D01*
X012960Y006381D02*
X012260Y006381D01*
X012260Y011281D01*
X012610Y011281D01*
X012610Y011881D01*
X012260Y011881D01*
X012260Y012631D01*
X016360Y012631D01*
X013600Y011281D02*
X013602Y011334D01*
X013608Y011387D01*
X013618Y011439D01*
X013632Y011490D01*
X013649Y011540D01*
X013670Y011589D01*
X013695Y011636D01*
X013723Y011681D01*
X013755Y011724D01*
X013790Y011764D01*
X013827Y011801D01*
X013867Y011836D01*
X013910Y011868D01*
X013955Y011896D01*
X014002Y011921D01*
X014051Y011942D01*
X014101Y011959D01*
X014152Y011973D01*
X014204Y011983D01*
X014257Y011989D01*
X014310Y011991D01*
X014363Y011989D01*
X014416Y011983D01*
X014468Y011973D01*
X014519Y011959D01*
X014569Y011942D01*
X014618Y011921D01*
X014665Y011896D01*
X014710Y011868D01*
X014753Y011836D01*
X014793Y011801D01*
X014830Y011764D01*
X014865Y011724D01*
X014897Y011681D01*
X014925Y011636D01*
X014950Y011589D01*
X014971Y011540D01*
X014988Y011490D01*
X015002Y011439D01*
X015012Y011387D01*
X015018Y011334D01*
X015020Y011281D01*
X015018Y011228D01*
X015012Y011175D01*
X015002Y011123D01*
X014988Y011072D01*
X014971Y011022D01*
X014950Y010973D01*
X014925Y010926D01*
X014897Y010881D01*
X014865Y010838D01*
X014830Y010798D01*
X014793Y010761D01*
X014753Y010726D01*
X014710Y010694D01*
X014665Y010666D01*
X014618Y010641D01*
X014569Y010620D01*
X014519Y010603D01*
X014468Y010589D01*
X014416Y010579D01*
X014363Y010573D01*
X014310Y010571D01*
X014257Y010573D01*
X014204Y010579D01*
X014152Y010589D01*
X014101Y010603D01*
X014051Y010620D01*
X014002Y010641D01*
X013955Y010666D01*
X013910Y010694D01*
X013867Y010726D01*
X013827Y010761D01*
X013790Y010798D01*
X013755Y010838D01*
X013723Y010881D01*
X013695Y010926D01*
X013670Y010973D01*
X013649Y011022D01*
X013632Y011072D01*
X013618Y011123D01*
X013608Y011175D01*
X013602Y011228D01*
X013600Y011281D01*
X011160Y011281D02*
X010810Y011281D01*
X010810Y011881D01*
X011160Y011881D01*
X011160Y012631D01*
X007060Y012631D01*
X007060Y011881D01*
X007410Y011881D01*
X007410Y011281D01*
X007060Y011281D01*
X007060Y006381D01*
X007760Y006381D01*
X008460Y006381D02*
X008760Y006381D01*
X009460Y006381D02*
X009760Y006381D01*
X010460Y006381D02*
X011160Y006381D01*
X011160Y011281D01*
X008400Y011281D02*
X008402Y011334D01*
X008408Y011387D01*
X008418Y011439D01*
X008432Y011490D01*
X008449Y011540D01*
X008470Y011589D01*
X008495Y011636D01*
X008523Y011681D01*
X008555Y011724D01*
X008590Y011764D01*
X008627Y011801D01*
X008667Y011836D01*
X008710Y011868D01*
X008755Y011896D01*
X008802Y011921D01*
X008851Y011942D01*
X008901Y011959D01*
X008952Y011973D01*
X009004Y011983D01*
X009057Y011989D01*
X009110Y011991D01*
X009163Y011989D01*
X009216Y011983D01*
X009268Y011973D01*
X009319Y011959D01*
X009369Y011942D01*
X009418Y011921D01*
X009465Y011896D01*
X009510Y011868D01*
X009553Y011836D01*
X009593Y011801D01*
X009630Y011764D01*
X009665Y011724D01*
X009697Y011681D01*
X009725Y011636D01*
X009750Y011589D01*
X009771Y011540D01*
X009788Y011490D01*
X009802Y011439D01*
X009812Y011387D01*
X009818Y011334D01*
X009820Y011281D01*
X009818Y011228D01*
X009812Y011175D01*
X009802Y011123D01*
X009788Y011072D01*
X009771Y011022D01*
X009750Y010973D01*
X009725Y010926D01*
X009697Y010881D01*
X009665Y010838D01*
X009630Y010798D01*
X009593Y010761D01*
X009553Y010726D01*
X009510Y010694D01*
X009465Y010666D01*
X009418Y010641D01*
X009369Y010620D01*
X009319Y010603D01*
X009268Y010589D01*
X009216Y010579D01*
X009163Y010573D01*
X009110Y010571D01*
X009057Y010573D01*
X009004Y010579D01*
X008952Y010589D01*
X008901Y010603D01*
X008851Y010620D01*
X008802Y010641D01*
X008755Y010666D01*
X008710Y010694D01*
X008667Y010726D01*
X008627Y010761D01*
X008590Y010798D01*
X008555Y010838D01*
X008523Y010881D01*
X008495Y010926D01*
X008470Y010973D01*
X008449Y011022D01*
X008432Y011072D01*
X008418Y011123D01*
X008408Y011175D01*
X008402Y011228D01*
X008400Y011281D01*
X007760Y004981D02*
X007810Y004931D01*
X009210Y004931D01*
X009260Y004981D01*
X009410Y004981D01*
X009427Y004979D01*
X009444Y004975D01*
X009460Y004968D01*
X009474Y004958D01*
X009487Y004945D01*
X009497Y004931D01*
X009504Y004915D01*
X009508Y004898D01*
X009510Y004881D01*
X009510Y004281D01*
X009508Y004264D01*
X009504Y004247D01*
X009497Y004231D01*
X009487Y004217D01*
X009474Y004204D01*
X009460Y004194D01*
X009444Y004187D01*
X009427Y004183D01*
X009410Y004181D01*
X009260Y004181D01*
X009210Y004231D01*
X007810Y004231D01*
X007760Y004181D01*
X007610Y004181D01*
X007593Y004183D01*
X007576Y004187D01*
X007560Y004194D01*
X007546Y004204D01*
X007533Y004217D01*
X007523Y004231D01*
X007516Y004247D01*
X007512Y004264D01*
X007510Y004281D01*
X007510Y004881D01*
X007512Y004898D01*
X007516Y004915D01*
X007523Y004931D01*
X007533Y004945D01*
X007546Y004958D01*
X007560Y004968D01*
X007576Y004975D01*
X007593Y004979D01*
X007610Y004981D01*
X007760Y004981D01*
X005710Y004881D02*
X005710Y004281D01*
X005708Y004264D01*
X005704Y004247D01*
X005697Y004231D01*
X005687Y004217D01*
X005674Y004204D01*
X005660Y004194D01*
X005644Y004187D01*
X005627Y004183D01*
X005610Y004181D01*
X005460Y004181D01*
X005410Y004231D01*
X004010Y004231D01*
X003960Y004181D01*
X003810Y004181D01*
X003793Y004183D01*
X003776Y004187D01*
X003760Y004194D01*
X003746Y004204D01*
X003733Y004217D01*
X003723Y004231D01*
X003716Y004247D01*
X003712Y004264D01*
X003710Y004281D01*
X003710Y004881D01*
X003712Y004898D01*
X003716Y004915D01*
X003723Y004931D01*
X003733Y004945D01*
X003746Y004958D01*
X003760Y004968D01*
X003776Y004975D01*
X003793Y004979D01*
X003810Y004981D01*
X003960Y004981D01*
X004010Y004931D01*
X005410Y004931D01*
X005460Y004981D01*
X005610Y004981D01*
X005627Y004979D01*
X005644Y004975D01*
X005660Y004968D01*
X005674Y004958D01*
X005687Y004945D01*
X005697Y004931D01*
X005704Y004915D01*
X005708Y004898D01*
X005710Y004881D01*
X011410Y004881D02*
X011410Y004281D01*
X011412Y004264D01*
X011416Y004247D01*
X011423Y004231D01*
X011433Y004217D01*
X011446Y004204D01*
X011460Y004194D01*
X011476Y004187D01*
X011493Y004183D01*
X011510Y004181D01*
X011660Y004181D01*
X011710Y004231D01*
X013110Y004231D01*
X013160Y004181D01*
X013310Y004181D01*
X013327Y004183D01*
X013344Y004187D01*
X013360Y004194D01*
X013374Y004204D01*
X013387Y004217D01*
X013397Y004231D01*
X013404Y004247D01*
X013408Y004264D01*
X013410Y004281D01*
X013410Y004881D01*
X013408Y004898D01*
X013404Y004915D01*
X013397Y004931D01*
X013387Y004945D01*
X013374Y004958D01*
X013360Y004968D01*
X013344Y004975D01*
X013327Y004979D01*
X013310Y004981D01*
X013160Y004981D01*
X013110Y004931D01*
X011710Y004931D01*
X011660Y004981D01*
X011510Y004981D01*
X011493Y004979D01*
X011476Y004975D01*
X011460Y004968D01*
X011446Y004958D01*
X011433Y004945D01*
X011423Y004931D01*
X011416Y004915D01*
X011412Y004898D01*
X011410Y004881D01*
X015310Y004881D02*
X015310Y004281D01*
X015312Y004264D01*
X015316Y004247D01*
X015323Y004231D01*
X015333Y004217D01*
X015346Y004204D01*
X015360Y004194D01*
X015376Y004187D01*
X015393Y004183D01*
X015410Y004181D01*
X015560Y004181D01*
X015610Y004231D01*
X017010Y004231D01*
X017060Y004181D01*
X017210Y004181D01*
X017227Y004183D01*
X017244Y004187D01*
X017260Y004194D01*
X017274Y004204D01*
X017287Y004217D01*
X017297Y004231D01*
X017304Y004247D01*
X017308Y004264D01*
X017310Y004281D01*
X017310Y004881D01*
X017308Y004898D01*
X017304Y004915D01*
X017297Y004931D01*
X017287Y004945D01*
X017274Y004958D01*
X017260Y004968D01*
X017244Y004975D01*
X017227Y004979D01*
X017210Y004981D01*
X017060Y004981D01*
X017010Y004931D01*
X015610Y004931D01*
X015560Y004981D01*
X015410Y004981D01*
X015393Y004979D01*
X015376Y004975D01*
X015360Y004968D01*
X015346Y004958D01*
X015333Y004945D01*
X015323Y004931D01*
X015316Y004915D01*
X015312Y004898D01*
X015310Y004881D01*
X023310Y001681D02*
X023310Y001081D01*
X023312Y001064D01*
X023316Y001047D01*
X023323Y001031D01*
X023333Y001017D01*
X023346Y001004D01*
X023360Y000994D01*
X023376Y000987D01*
X023393Y000983D01*
X023410Y000981D01*
X023560Y000981D01*
X023610Y001031D01*
X025010Y001031D01*
X025060Y000981D01*
X025210Y000981D01*
X025227Y000983D01*
X025244Y000987D01*
X025260Y000994D01*
X025274Y001004D01*
X025287Y001017D01*
X025297Y001031D01*
X025304Y001047D01*
X025308Y001064D01*
X025310Y001081D01*
X025310Y001681D01*
X025308Y001698D01*
X025304Y001715D01*
X025297Y001731D01*
X025287Y001745D01*
X025274Y001758D01*
X025260Y001768D01*
X025244Y001775D01*
X025227Y001779D01*
X025210Y001781D01*
X025060Y001781D01*
X025010Y001731D01*
X023610Y001731D01*
X023560Y001781D01*
X023410Y001781D01*
X023393Y001779D01*
X023376Y001775D01*
X023360Y001768D01*
X023346Y001758D01*
X023333Y001745D01*
X023323Y001731D01*
X023316Y001715D01*
X023312Y001698D01*
X023310Y001681D01*
X026010Y006181D02*
X026160Y006181D01*
X026210Y006231D01*
X027610Y006231D01*
X027660Y006181D01*
X027810Y006181D01*
X027827Y006183D01*
X027844Y006187D01*
X027860Y006194D01*
X027874Y006204D01*
X027887Y006217D01*
X027897Y006231D01*
X027904Y006247D01*
X027908Y006264D01*
X027910Y006281D01*
X027910Y006881D01*
X027908Y006898D01*
X027904Y006915D01*
X027897Y006931D01*
X027887Y006945D01*
X027874Y006958D01*
X027860Y006968D01*
X027844Y006975D01*
X027827Y006979D01*
X027810Y006981D01*
X027660Y006981D01*
X027610Y006931D01*
X026210Y006931D01*
X026160Y006981D01*
X026010Y006981D01*
X025993Y006979D01*
X025976Y006975D01*
X025960Y006968D01*
X025946Y006958D01*
X025933Y006945D01*
X025923Y006931D01*
X025916Y006915D01*
X025912Y006898D01*
X025910Y006881D01*
X025910Y006281D01*
X025912Y006264D01*
X025916Y006247D01*
X025923Y006231D01*
X025933Y006217D01*
X025946Y006204D01*
X025960Y006194D01*
X025976Y006187D01*
X025993Y006183D01*
X026010Y006181D01*
X026610Y007581D02*
X026760Y007581D01*
X026810Y007631D01*
X028210Y007631D01*
X028260Y007581D01*
X028410Y007581D01*
X028427Y007583D01*
X028444Y007587D01*
X028460Y007594D01*
X028474Y007604D01*
X028487Y007617D01*
X028497Y007631D01*
X028504Y007647D01*
X028508Y007664D01*
X028510Y007681D01*
X028510Y008281D01*
X028508Y008298D01*
X028504Y008315D01*
X028497Y008331D01*
X028487Y008345D01*
X028474Y008358D01*
X028460Y008368D01*
X028444Y008375D01*
X028427Y008379D01*
X028410Y008381D01*
X028260Y008381D01*
X028210Y008331D01*
X026810Y008331D01*
X026760Y008381D01*
X026610Y008381D01*
X026593Y008379D01*
X026576Y008375D01*
X026560Y008368D01*
X026546Y008358D01*
X026533Y008345D01*
X026523Y008331D01*
X026516Y008315D01*
X026512Y008298D01*
X026510Y008281D01*
X026510Y007681D01*
X026512Y007664D01*
X026516Y007647D01*
X026523Y007631D01*
X026533Y007617D01*
X026546Y007604D01*
X026560Y007594D01*
X026576Y007587D01*
X026593Y007583D01*
X026610Y007581D01*
D19*
X028325Y014081D03*
X028325Y014481D03*
D20*
X028310Y014481D02*
X028110Y014481D01*
X028110Y014081D02*
X028260Y014081D01*
D21*
X027585Y012281D03*
X027585Y011181D03*
X025435Y011181D03*
X025435Y012281D03*
X030135Y016181D03*
X030135Y017081D03*
X032285Y017081D03*
X032285Y016181D03*
X022685Y016981D03*
X020535Y016981D03*
X026435Y007981D03*
X028585Y007981D03*
X027985Y006581D03*
X025835Y006581D03*
X017385Y004581D03*
X015235Y004581D03*
X013485Y004581D03*
X011335Y004581D03*
X009585Y004581D03*
X007435Y004581D03*
X005785Y004581D03*
X003635Y004581D03*
X023235Y001381D03*
X025385Y001381D03*
D22*
X004110Y014281D02*
X004110Y017281D01*
X002110Y017281D01*
X002110Y014281D01*
X004110Y014281D01*
D23*
X026579Y000958D02*
X026657Y001003D01*
X026657Y001002D02*
X026685Y000958D01*
X026716Y000916D01*
X026749Y000876D01*
X026785Y000838D01*
X026824Y000803D01*
X026865Y000771D01*
X026909Y000741D01*
X026954Y000715D01*
X027001Y000692D01*
X027049Y000672D01*
X027099Y000656D01*
X027149Y000643D01*
X027201Y000634D01*
X027253Y000628D01*
X027305Y000626D01*
X027306Y000537D01*
X027305Y000536D01*
X027250Y000538D01*
X027196Y000544D01*
X027141Y000553D01*
X027088Y000566D01*
X027036Y000582D01*
X026984Y000601D01*
X026934Y000624D01*
X026886Y000650D01*
X026839Y000679D01*
X026795Y000711D01*
X026752Y000746D01*
X026712Y000784D01*
X026675Y000824D01*
X026640Y000866D01*
X026608Y000911D01*
X026579Y000957D01*
X026587Y000962D01*
X026615Y000916D01*
X026647Y000872D01*
X026682Y000830D01*
X026719Y000790D01*
X026758Y000753D01*
X026800Y000718D01*
X026844Y000687D01*
X026890Y000658D01*
X026938Y000632D01*
X026988Y000610D01*
X027038Y000590D01*
X027090Y000574D01*
X027143Y000562D01*
X027197Y000553D01*
X027251Y000547D01*
X027305Y000545D01*
X027305Y000554D01*
X027251Y000556D01*
X027198Y000562D01*
X027145Y000571D01*
X027093Y000583D01*
X027041Y000599D01*
X026991Y000618D01*
X026942Y000640D01*
X026895Y000666D01*
X026849Y000694D01*
X026806Y000726D01*
X026764Y000760D01*
X026725Y000796D01*
X026688Y000836D01*
X026654Y000877D01*
X026623Y000921D01*
X026594Y000966D01*
X026602Y000971D01*
X026632Y000923D01*
X026666Y000877D01*
X026702Y000834D01*
X026742Y000793D01*
X026784Y000755D01*
X026828Y000720D01*
X026875Y000688D01*
X026924Y000660D01*
X026975Y000635D01*
X027028Y000613D01*
X027081Y000596D01*
X027136Y000582D01*
X027192Y000572D01*
X027248Y000565D01*
X027305Y000563D01*
X027305Y000572D01*
X027249Y000574D01*
X027193Y000580D01*
X027138Y000590D01*
X027084Y000604D01*
X027031Y000622D01*
X026979Y000643D01*
X026928Y000668D01*
X026880Y000696D01*
X026834Y000727D01*
X026789Y000762D01*
X026748Y000799D01*
X026709Y000840D01*
X026673Y000882D01*
X026640Y000928D01*
X026610Y000975D01*
X026618Y000980D01*
X026647Y000933D01*
X026680Y000888D01*
X026716Y000846D01*
X026754Y000806D01*
X026795Y000769D01*
X026839Y000734D01*
X026885Y000703D01*
X026933Y000676D01*
X026982Y000651D01*
X027034Y000630D01*
X027086Y000613D01*
X027140Y000599D01*
X027195Y000589D01*
X027250Y000583D01*
X027305Y000581D01*
X027305Y000590D01*
X027250Y000592D01*
X027196Y000598D01*
X027142Y000608D01*
X027089Y000622D01*
X027037Y000639D01*
X026986Y000659D01*
X026937Y000684D01*
X026890Y000711D01*
X026844Y000742D01*
X026801Y000775D01*
X026760Y000812D01*
X026722Y000852D01*
X026687Y000894D01*
X026655Y000938D01*
X026626Y000984D01*
X026634Y000989D01*
X026662Y000943D01*
X026694Y000899D01*
X026729Y000858D01*
X026767Y000819D01*
X026807Y000782D01*
X026849Y000749D01*
X026894Y000719D01*
X026941Y000691D01*
X026990Y000668D01*
X027040Y000647D01*
X027091Y000630D01*
X027144Y000617D01*
X027197Y000607D01*
X027251Y000601D01*
X027305Y000599D01*
X027305Y000608D01*
X027252Y000610D01*
X027198Y000616D01*
X027146Y000626D01*
X027094Y000639D01*
X027043Y000656D01*
X026993Y000676D01*
X026945Y000699D01*
X026899Y000726D01*
X026855Y000756D01*
X026813Y000789D01*
X026773Y000825D01*
X026736Y000864D01*
X026701Y000905D01*
X026670Y000948D01*
X026641Y000993D01*
X026649Y000998D01*
X026677Y000953D01*
X026708Y000910D01*
X026742Y000870D01*
X026779Y000832D01*
X026818Y000796D01*
X026860Y000764D01*
X026904Y000734D01*
X026950Y000707D01*
X026997Y000684D01*
X027046Y000664D01*
X027096Y000647D01*
X027148Y000634D01*
X027200Y000625D01*
X027252Y000619D01*
X027305Y000617D01*
X027314Y000537D02*
X027314Y000627D01*
X027315Y000626D02*
X027369Y000628D01*
X027422Y000634D01*
X027475Y000644D01*
X027527Y000658D01*
X027578Y000675D01*
X027628Y000696D01*
X027676Y000720D01*
X027722Y000748D01*
X027766Y000779D01*
X027807Y000813D01*
X027847Y000850D01*
X027883Y000889D01*
X027951Y000832D01*
X027952Y000831D01*
X027914Y000790D01*
X027874Y000752D01*
X027831Y000716D01*
X027786Y000683D01*
X027739Y000653D01*
X027691Y000627D01*
X027640Y000603D01*
X027588Y000583D01*
X027535Y000567D01*
X027481Y000553D01*
X027426Y000544D01*
X027371Y000538D01*
X027315Y000536D01*
X027315Y000545D01*
X027370Y000547D01*
X027425Y000553D01*
X027479Y000562D01*
X027533Y000575D01*
X027585Y000592D01*
X027637Y000611D01*
X027687Y000635D01*
X027735Y000661D01*
X027781Y000691D01*
X027826Y000723D01*
X027868Y000758D01*
X027908Y000797D01*
X027945Y000837D01*
X027938Y000843D01*
X027901Y000803D01*
X027862Y000765D01*
X027820Y000730D01*
X027776Y000698D01*
X027730Y000669D01*
X027682Y000643D01*
X027633Y000620D01*
X027582Y000600D01*
X027530Y000584D01*
X027477Y000571D01*
X027424Y000562D01*
X027369Y000556D01*
X027315Y000554D01*
X027315Y000563D01*
X027369Y000565D01*
X027422Y000571D01*
X027475Y000580D01*
X027528Y000593D01*
X027579Y000609D01*
X027630Y000628D01*
X027678Y000651D01*
X027726Y000676D01*
X027771Y000705D01*
X027815Y000737D01*
X027856Y000772D01*
X027895Y000809D01*
X027931Y000849D01*
X027924Y000855D01*
X027888Y000815D01*
X027850Y000778D01*
X027809Y000744D01*
X027766Y000713D01*
X027721Y000684D01*
X027674Y000659D01*
X027626Y000636D01*
X027576Y000617D01*
X027525Y000601D01*
X027474Y000589D01*
X027421Y000580D01*
X027368Y000574D01*
X027315Y000572D01*
X027315Y000581D01*
X027368Y000583D01*
X027420Y000589D01*
X027472Y000598D01*
X027523Y000610D01*
X027573Y000626D01*
X027623Y000645D01*
X027670Y000667D01*
X027717Y000692D01*
X027761Y000720D01*
X027803Y000751D01*
X027844Y000785D01*
X027882Y000822D01*
X027917Y000860D01*
X027911Y000866D01*
X027875Y000828D01*
X027838Y000792D01*
X027798Y000758D01*
X027756Y000728D01*
X027712Y000700D01*
X027666Y000675D01*
X027619Y000653D01*
X027570Y000634D01*
X027521Y000619D01*
X027470Y000606D01*
X027419Y000598D01*
X027367Y000592D01*
X027315Y000590D01*
X027315Y000599D01*
X027371Y000601D01*
X027426Y000608D01*
X027481Y000618D01*
X027535Y000632D01*
X027588Y000650D01*
X027639Y000672D01*
X027689Y000697D01*
X027737Y000726D01*
X027782Y000758D01*
X027825Y000793D01*
X027866Y000831D01*
X027904Y000872D01*
X027897Y000878D01*
X027860Y000837D01*
X027819Y000800D01*
X027777Y000765D01*
X027732Y000733D01*
X027684Y000705D01*
X027635Y000680D01*
X027584Y000658D01*
X027532Y000641D01*
X027479Y000627D01*
X027425Y000617D01*
X027370Y000610D01*
X027315Y000608D01*
X027315Y000617D01*
X027369Y000619D01*
X027424Y000625D01*
X027477Y000635D01*
X027530Y000649D01*
X027581Y000667D01*
X027631Y000688D01*
X027680Y000713D01*
X027727Y000741D01*
X027771Y000772D01*
X027813Y000806D01*
X027853Y000844D01*
X027890Y000884D01*
X027305Y002225D02*
X027305Y002135D01*
X027305Y002136D02*
X027251Y002134D01*
X027198Y002128D01*
X027145Y002118D01*
X027093Y002104D01*
X027042Y002087D01*
X026993Y002066D01*
X026945Y002042D01*
X026899Y002014D01*
X026855Y001983D01*
X026813Y001949D01*
X026774Y001913D01*
X026737Y001873D01*
X026704Y001831D01*
X026673Y001787D01*
X026646Y001741D01*
X026567Y001783D01*
X026595Y001832D01*
X026627Y001878D01*
X026662Y001923D01*
X026699Y001965D01*
X026740Y002004D01*
X026783Y002041D01*
X026828Y002075D01*
X026875Y002106D01*
X026925Y002133D01*
X026976Y002157D01*
X027028Y002178D01*
X027082Y002195D01*
X027137Y002208D01*
X027192Y002218D01*
X027249Y002224D01*
X027305Y002226D01*
X027305Y002217D01*
X027249Y002215D01*
X027194Y002209D01*
X027139Y002199D01*
X027084Y002186D01*
X027031Y002169D01*
X026979Y002149D01*
X026929Y002125D01*
X026880Y002098D01*
X026833Y002068D01*
X026788Y002034D01*
X026746Y001998D01*
X026706Y001959D01*
X026669Y001917D01*
X026634Y001873D01*
X026603Y001827D01*
X026575Y001779D01*
X026583Y001775D01*
X026611Y001822D01*
X026642Y001868D01*
X026676Y001911D01*
X026712Y001953D01*
X026752Y001991D01*
X026794Y002027D01*
X026838Y002060D01*
X026884Y002090D01*
X026933Y002117D01*
X026983Y002140D01*
X027034Y002161D01*
X027087Y002177D01*
X027140Y002190D01*
X027195Y002200D01*
X027250Y002206D01*
X027305Y002208D01*
X027305Y002199D01*
X027250Y002197D01*
X027196Y002191D01*
X027142Y002182D01*
X027089Y002169D01*
X027037Y002152D01*
X026986Y002132D01*
X026937Y002109D01*
X026889Y002082D01*
X026843Y002053D01*
X026799Y002020D01*
X026758Y001985D01*
X026719Y001946D01*
X026682Y001906D01*
X026649Y001863D01*
X026618Y001817D01*
X026591Y001770D01*
X026599Y001766D01*
X026626Y001813D01*
X026656Y001857D01*
X026689Y001900D01*
X026725Y001940D01*
X026764Y001978D01*
X026805Y002013D01*
X026848Y002045D01*
X026894Y002075D01*
X026941Y002101D01*
X026990Y002124D01*
X027040Y002144D01*
X027092Y002160D01*
X027144Y002173D01*
X027197Y002182D01*
X027251Y002188D01*
X027305Y002190D01*
X027305Y002181D01*
X027252Y002179D01*
X027198Y002173D01*
X027146Y002164D01*
X027094Y002151D01*
X027043Y002135D01*
X026993Y002116D01*
X026945Y002093D01*
X026898Y002067D01*
X026854Y002038D01*
X026811Y002006D01*
X026770Y001971D01*
X026732Y001934D01*
X026696Y001894D01*
X026663Y001852D01*
X026633Y001808D01*
X026606Y001762D01*
X026614Y001758D01*
X026641Y001803D01*
X026671Y001847D01*
X026703Y001888D01*
X026738Y001928D01*
X026776Y001965D01*
X026816Y001999D01*
X026859Y002031D01*
X026903Y002059D01*
X026949Y002085D01*
X026997Y002107D01*
X027046Y002127D01*
X027096Y002143D01*
X027148Y002155D01*
X027200Y002164D01*
X027252Y002170D01*
X027305Y002172D01*
X027305Y002163D01*
X027249Y002161D01*
X027194Y002154D01*
X027139Y002144D01*
X027085Y002130D01*
X027033Y002112D01*
X026981Y002091D01*
X026932Y002065D01*
X026884Y002037D01*
X026838Y002005D01*
X026795Y001970D01*
X026755Y001932D01*
X026717Y001891D01*
X026682Y001847D01*
X026651Y001801D01*
X026622Y001753D01*
X026630Y001749D01*
X026658Y001797D01*
X026689Y001842D01*
X026724Y001885D01*
X026761Y001925D01*
X026801Y001963D01*
X026844Y001998D01*
X026889Y002029D01*
X026936Y002058D01*
X026985Y002082D01*
X027036Y002104D01*
X027088Y002121D01*
X027141Y002135D01*
X027195Y002145D01*
X027250Y002152D01*
X027305Y002154D01*
X027305Y002145D01*
X027251Y002143D01*
X027197Y002137D01*
X027143Y002127D01*
X027091Y002113D01*
X027039Y002095D01*
X026989Y002074D01*
X026940Y002050D01*
X026894Y002022D01*
X026849Y001990D01*
X026807Y001956D01*
X026768Y001919D01*
X026731Y001879D01*
X026697Y001837D01*
X026666Y001792D01*
X026638Y001745D01*
X027955Y001925D02*
X027886Y001868D01*
X027887Y001868D02*
X027850Y001908D01*
X027811Y001946D01*
X027769Y001980D01*
X027725Y002012D01*
X027679Y002040D01*
X027630Y002065D01*
X027580Y002086D01*
X027529Y002104D01*
X027476Y002117D01*
X027423Y002127D01*
X027369Y002134D01*
X027315Y002136D01*
X027314Y002225D01*
X027315Y002226D01*
X027371Y002224D01*
X027427Y002218D01*
X027482Y002208D01*
X027537Y002195D01*
X027590Y002178D01*
X027643Y002158D01*
X027694Y002134D01*
X027743Y002107D01*
X027790Y002076D01*
X027835Y002043D01*
X027878Y002007D01*
X027918Y001968D01*
X027956Y001926D01*
X027949Y001920D01*
X027912Y001961D01*
X027872Y002000D01*
X027830Y002036D01*
X027785Y002069D01*
X027738Y002099D01*
X027690Y002126D01*
X027639Y002149D01*
X027587Y002170D01*
X027534Y002186D01*
X027480Y002199D01*
X027426Y002209D01*
X027371Y002215D01*
X027315Y002217D01*
X027315Y002208D01*
X027370Y002206D01*
X027425Y002200D01*
X027479Y002191D01*
X027532Y002178D01*
X027584Y002161D01*
X027636Y002141D01*
X027685Y002118D01*
X027734Y002091D01*
X027780Y002062D01*
X027824Y002029D01*
X027866Y001993D01*
X027905Y001955D01*
X027942Y001914D01*
X027935Y001909D01*
X027899Y001949D01*
X027860Y001987D01*
X027818Y002022D01*
X027775Y002054D01*
X027729Y002084D01*
X027681Y002110D01*
X027632Y002133D01*
X027582Y002153D01*
X027530Y002169D01*
X027477Y002182D01*
X027423Y002191D01*
X027369Y002197D01*
X027315Y002199D01*
X027315Y002190D01*
X027369Y002188D01*
X027422Y002182D01*
X027475Y002173D01*
X027527Y002160D01*
X027579Y002144D01*
X027629Y002125D01*
X027677Y002102D01*
X027724Y002076D01*
X027770Y002047D01*
X027813Y002015D01*
X027854Y001980D01*
X027892Y001943D01*
X027928Y001903D01*
X027921Y001897D01*
X027886Y001936D01*
X027848Y001973D01*
X027807Y002008D01*
X027764Y002039D01*
X027720Y002068D01*
X027673Y002094D01*
X027625Y002116D01*
X027576Y002136D01*
X027525Y002152D01*
X027473Y002164D01*
X027421Y002173D01*
X027368Y002179D01*
X027315Y002181D01*
X027315Y002172D01*
X027367Y002170D01*
X027420Y002164D01*
X027471Y002155D01*
X027522Y002143D01*
X027573Y002127D01*
X027622Y002108D01*
X027669Y002086D01*
X027715Y002060D01*
X027759Y002032D01*
X027801Y002001D01*
X027842Y001967D01*
X027879Y001930D01*
X027914Y001891D01*
X027908Y001885D01*
X027873Y001924D01*
X027835Y001960D01*
X027796Y001994D01*
X027754Y002025D01*
X027710Y002053D01*
X027665Y002078D01*
X027618Y002100D01*
X027570Y002119D01*
X027520Y002134D01*
X027470Y002147D01*
X027419Y002155D01*
X027367Y002161D01*
X027315Y002163D01*
X027315Y002154D01*
X027366Y002152D01*
X027417Y002147D01*
X027468Y002138D01*
X027518Y002126D01*
X027567Y002110D01*
X027614Y002092D01*
X027661Y002070D01*
X027706Y002045D01*
X027749Y002017D01*
X027790Y001987D01*
X027829Y001954D01*
X027866Y001918D01*
X027901Y001880D01*
X027894Y001874D01*
X027857Y001915D01*
X027817Y001953D01*
X027775Y001987D01*
X027730Y002019D01*
X027683Y002048D01*
X027634Y002073D01*
X027583Y002094D01*
X027532Y002112D01*
X027478Y002126D01*
X027424Y002136D01*
X027370Y002143D01*
X027315Y002145D01*
M02*
