G75*
G70*
%OFA0B0*%
%FSLAX24Y24*%
%IPPOS*%
%LPD*%
%AMOC8*
5,1,8,0,0,1.08239X$1,22.5*
%
%ADD10C,0.0000*%
%ADD11R,0.0520X0.0520*%
%ADD12C,0.0520*%
%ADD13R,0.0650X0.0650*%
%ADD14C,0.0740*%
%ADD15C,0.0476*%
%ADD16C,0.0600*%
%ADD17C,0.0515*%
%ADD18C,0.1580*%
%ADD19R,0.0740X0.0740*%
%ADD20C,0.0600*%
%ADD21R,0.0515X0.0515*%
%ADD22C,0.0120*%
%ADD23C,0.0160*%
%ADD24C,0.0356*%
%ADD25C,0.0100*%
%ADD26C,0.0320*%
%ADD27C,0.0240*%
D10*
X002510Y000181D02*
X002510Y019866D01*
X034006Y019866D01*
X034006Y000181D01*
X002510Y000181D01*
X002844Y006677D02*
X002846Y006727D01*
X002852Y006777D01*
X002862Y006827D01*
X002875Y006875D01*
X002892Y006923D01*
X002913Y006969D01*
X002937Y007013D01*
X002965Y007055D01*
X002996Y007095D01*
X003030Y007132D01*
X003067Y007167D01*
X003106Y007198D01*
X003147Y007227D01*
X003191Y007252D01*
X003237Y007274D01*
X003284Y007292D01*
X003332Y007306D01*
X003381Y007317D01*
X003431Y007324D01*
X003481Y007327D01*
X003532Y007326D01*
X003582Y007321D01*
X003632Y007312D01*
X003680Y007300D01*
X003728Y007283D01*
X003774Y007263D01*
X003819Y007240D01*
X003862Y007213D01*
X003902Y007183D01*
X003940Y007150D01*
X003975Y007114D01*
X004008Y007075D01*
X004037Y007034D01*
X004063Y006991D01*
X004086Y006946D01*
X004105Y006899D01*
X004120Y006851D01*
X004132Y006802D01*
X004140Y006752D01*
X004144Y006702D01*
X004144Y006652D01*
X004140Y006602D01*
X004132Y006552D01*
X004120Y006503D01*
X004105Y006455D01*
X004086Y006408D01*
X004063Y006363D01*
X004037Y006320D01*
X004008Y006279D01*
X003975Y006240D01*
X003940Y006204D01*
X003902Y006171D01*
X003862Y006141D01*
X003819Y006114D01*
X003774Y006091D01*
X003728Y006071D01*
X003680Y006054D01*
X003632Y006042D01*
X003582Y006033D01*
X003532Y006028D01*
X003481Y006027D01*
X003431Y006030D01*
X003381Y006037D01*
X003332Y006048D01*
X003284Y006062D01*
X003237Y006080D01*
X003191Y006102D01*
X003147Y006127D01*
X003106Y006156D01*
X003067Y006187D01*
X003030Y006222D01*
X002996Y006259D01*
X002965Y006299D01*
X002937Y006341D01*
X002913Y006385D01*
X002892Y006431D01*
X002875Y006479D01*
X002862Y006527D01*
X002852Y006577D01*
X002846Y006627D01*
X002844Y006677D01*
X002844Y018882D02*
X002846Y018932D01*
X002852Y018982D01*
X002862Y019032D01*
X002875Y019080D01*
X002892Y019128D01*
X002913Y019174D01*
X002937Y019218D01*
X002965Y019260D01*
X002996Y019300D01*
X003030Y019337D01*
X003067Y019372D01*
X003106Y019403D01*
X003147Y019432D01*
X003191Y019457D01*
X003237Y019479D01*
X003284Y019497D01*
X003332Y019511D01*
X003381Y019522D01*
X003431Y019529D01*
X003481Y019532D01*
X003532Y019531D01*
X003582Y019526D01*
X003632Y019517D01*
X003680Y019505D01*
X003728Y019488D01*
X003774Y019468D01*
X003819Y019445D01*
X003862Y019418D01*
X003902Y019388D01*
X003940Y019355D01*
X003975Y019319D01*
X004008Y019280D01*
X004037Y019239D01*
X004063Y019196D01*
X004086Y019151D01*
X004105Y019104D01*
X004120Y019056D01*
X004132Y019007D01*
X004140Y018957D01*
X004144Y018907D01*
X004144Y018857D01*
X004140Y018807D01*
X004132Y018757D01*
X004120Y018708D01*
X004105Y018660D01*
X004086Y018613D01*
X004063Y018568D01*
X004037Y018525D01*
X004008Y018484D01*
X003975Y018445D01*
X003940Y018409D01*
X003902Y018376D01*
X003862Y018346D01*
X003819Y018319D01*
X003774Y018296D01*
X003728Y018276D01*
X003680Y018259D01*
X003632Y018247D01*
X003582Y018238D01*
X003532Y018233D01*
X003481Y018232D01*
X003431Y018235D01*
X003381Y018242D01*
X003332Y018253D01*
X003284Y018267D01*
X003237Y018285D01*
X003191Y018307D01*
X003147Y018332D01*
X003106Y018361D01*
X003067Y018392D01*
X003030Y018427D01*
X002996Y018464D01*
X002965Y018504D01*
X002937Y018546D01*
X002913Y018590D01*
X002892Y018636D01*
X002875Y018684D01*
X002862Y018732D01*
X002852Y018782D01*
X002846Y018832D01*
X002844Y018882D01*
X032371Y018882D02*
X032373Y018932D01*
X032379Y018982D01*
X032389Y019032D01*
X032402Y019080D01*
X032419Y019128D01*
X032440Y019174D01*
X032464Y019218D01*
X032492Y019260D01*
X032523Y019300D01*
X032557Y019337D01*
X032594Y019372D01*
X032633Y019403D01*
X032674Y019432D01*
X032718Y019457D01*
X032764Y019479D01*
X032811Y019497D01*
X032859Y019511D01*
X032908Y019522D01*
X032958Y019529D01*
X033008Y019532D01*
X033059Y019531D01*
X033109Y019526D01*
X033159Y019517D01*
X033207Y019505D01*
X033255Y019488D01*
X033301Y019468D01*
X033346Y019445D01*
X033389Y019418D01*
X033429Y019388D01*
X033467Y019355D01*
X033502Y019319D01*
X033535Y019280D01*
X033564Y019239D01*
X033590Y019196D01*
X033613Y019151D01*
X033632Y019104D01*
X033647Y019056D01*
X033659Y019007D01*
X033667Y018957D01*
X033671Y018907D01*
X033671Y018857D01*
X033667Y018807D01*
X033659Y018757D01*
X033647Y018708D01*
X033632Y018660D01*
X033613Y018613D01*
X033590Y018568D01*
X033564Y018525D01*
X033535Y018484D01*
X033502Y018445D01*
X033467Y018409D01*
X033429Y018376D01*
X033389Y018346D01*
X033346Y018319D01*
X033301Y018296D01*
X033255Y018276D01*
X033207Y018259D01*
X033159Y018247D01*
X033109Y018238D01*
X033059Y018233D01*
X033008Y018232D01*
X032958Y018235D01*
X032908Y018242D01*
X032859Y018253D01*
X032811Y018267D01*
X032764Y018285D01*
X032718Y018307D01*
X032674Y018332D01*
X032633Y018361D01*
X032594Y018392D01*
X032557Y018427D01*
X032523Y018464D01*
X032492Y018504D01*
X032464Y018546D01*
X032440Y018590D01*
X032419Y018636D01*
X032402Y018684D01*
X032389Y018732D01*
X032379Y018782D01*
X032373Y018832D01*
X032371Y018882D01*
X032371Y006677D02*
X032373Y006727D01*
X032379Y006777D01*
X032389Y006827D01*
X032402Y006875D01*
X032419Y006923D01*
X032440Y006969D01*
X032464Y007013D01*
X032492Y007055D01*
X032523Y007095D01*
X032557Y007132D01*
X032594Y007167D01*
X032633Y007198D01*
X032674Y007227D01*
X032718Y007252D01*
X032764Y007274D01*
X032811Y007292D01*
X032859Y007306D01*
X032908Y007317D01*
X032958Y007324D01*
X033008Y007327D01*
X033059Y007326D01*
X033109Y007321D01*
X033159Y007312D01*
X033207Y007300D01*
X033255Y007283D01*
X033301Y007263D01*
X033346Y007240D01*
X033389Y007213D01*
X033429Y007183D01*
X033467Y007150D01*
X033502Y007114D01*
X033535Y007075D01*
X033564Y007034D01*
X033590Y006991D01*
X033613Y006946D01*
X033632Y006899D01*
X033647Y006851D01*
X033659Y006802D01*
X033667Y006752D01*
X033671Y006702D01*
X033671Y006652D01*
X033667Y006602D01*
X033659Y006552D01*
X033647Y006503D01*
X033632Y006455D01*
X033613Y006408D01*
X033590Y006363D01*
X033564Y006320D01*
X033535Y006279D01*
X033502Y006240D01*
X033467Y006204D01*
X033429Y006171D01*
X033389Y006141D01*
X033346Y006114D01*
X033301Y006091D01*
X033255Y006071D01*
X033207Y006054D01*
X033159Y006042D01*
X033109Y006033D01*
X033059Y006028D01*
X033008Y006027D01*
X032958Y006030D01*
X032908Y006037D01*
X032859Y006048D01*
X032811Y006062D01*
X032764Y006080D01*
X032718Y006102D01*
X032674Y006127D01*
X032633Y006156D01*
X032594Y006187D01*
X032557Y006222D01*
X032523Y006259D01*
X032492Y006299D01*
X032464Y006341D01*
X032440Y006385D01*
X032419Y006431D01*
X032402Y006479D01*
X032389Y006527D01*
X032379Y006577D01*
X032373Y006627D01*
X032371Y006677D01*
D11*
X031210Y007081D03*
X031110Y009681D03*
X028010Y009681D03*
X031110Y011981D03*
X027310Y013681D03*
X020110Y016181D03*
D12*
X019110Y016181D03*
X018110Y016181D03*
X017110Y016181D03*
X016110Y016181D03*
X015110Y016181D03*
X014110Y016181D03*
X013110Y016181D03*
X012110Y016181D03*
X011110Y016181D03*
X010110Y016181D03*
X009110Y016181D03*
X008110Y016181D03*
X007110Y016181D03*
X007110Y013181D03*
X008110Y013181D03*
X009110Y013181D03*
X010110Y013181D03*
X011110Y013181D03*
X012110Y013181D03*
X013110Y013181D03*
X014110Y013181D03*
X015110Y013181D03*
X016110Y013181D03*
X017110Y013181D03*
X018110Y013181D03*
X019110Y013181D03*
X020110Y013181D03*
X024310Y013681D03*
X024310Y014681D03*
X024310Y015681D03*
X024310Y016681D03*
X023110Y016981D03*
X020110Y016981D03*
X027310Y016681D03*
X027310Y015681D03*
X027810Y014781D03*
X027310Y014681D03*
X027810Y013781D03*
X028010Y012281D03*
X029110Y011981D03*
X030110Y011981D03*
X028010Y011181D03*
X027010Y009681D03*
X026010Y009681D03*
X025010Y011181D03*
X025010Y012281D03*
X029110Y009681D03*
X030110Y009681D03*
X029010Y007981D03*
X029210Y007081D03*
X028410Y006581D03*
X030210Y007081D03*
X026010Y007981D03*
X025410Y006581D03*
X017810Y004581D03*
X014810Y004581D03*
X013910Y004581D03*
X010910Y004581D03*
X010010Y004581D03*
X007010Y004581D03*
X006210Y004581D03*
X003210Y004581D03*
X022810Y001381D03*
X025810Y001381D03*
X029710Y016181D03*
X029710Y017081D03*
X032710Y017081D03*
X032710Y016181D03*
D13*
X022510Y012418D03*
X022510Y008481D03*
D14*
X032310Y008181D03*
X032310Y009181D03*
X033310Y009181D03*
X033310Y010181D03*
X032310Y010181D03*
X033310Y011181D03*
X033310Y012181D03*
X033310Y013181D03*
X032310Y013181D03*
X032310Y014181D03*
X033310Y014181D03*
X032310Y015181D03*
X031210Y018181D03*
X030210Y018181D03*
X029210Y018181D03*
X026810Y018181D03*
X025810Y018181D03*
X024810Y018181D03*
X023810Y018181D03*
X022810Y018181D03*
X021810Y018181D03*
X020462Y019079D03*
X019462Y019079D03*
X018462Y019079D03*
X017462Y019079D03*
X016462Y019079D03*
X015462Y019079D03*
X014462Y019079D03*
X013462Y019079D03*
X012462Y019079D03*
X011462Y019079D03*
X010462Y019079D03*
X009462Y019079D03*
X008462Y019079D03*
X007462Y019079D03*
X006462Y019079D03*
X010810Y017381D03*
X011810Y017381D03*
X012810Y017381D03*
X026810Y001381D03*
X027810Y001381D03*
D15*
X012210Y005881D03*
X011210Y005881D03*
X006210Y006281D03*
X005210Y006281D03*
X017310Y012081D03*
X018310Y012081D03*
X022910Y014481D03*
X022910Y015481D03*
X019510Y017781D03*
X018510Y017781D03*
X015210Y017181D03*
X014210Y017181D03*
D16*
X014310Y006431D02*
X014310Y005831D01*
X015310Y005831D02*
X015310Y006431D01*
X013310Y006431D02*
X013310Y005831D01*
X010110Y005831D02*
X010110Y006431D01*
X009110Y006431D02*
X009110Y005831D01*
X008110Y005831D02*
X008110Y006431D01*
D17*
X006102Y007981D03*
X005117Y007981D03*
X003110Y014781D03*
X003110Y015781D03*
X017617Y010081D03*
X018602Y010081D03*
X018110Y007374D03*
X018110Y006389D03*
D18*
X005903Y012181D03*
X003541Y012181D03*
X004722Y010331D03*
D19*
X005462Y019079D03*
X028210Y018181D03*
X033310Y015181D03*
X032310Y012181D03*
X032310Y011181D03*
X033310Y008181D03*
D20*
X017290Y003671D03*
X014730Y003671D03*
X013490Y003671D03*
X010930Y003671D03*
X009890Y003671D03*
X007330Y003671D03*
X006290Y003671D03*
X003730Y003671D03*
X003730Y001891D03*
X006290Y001891D03*
X007330Y001891D03*
X009890Y001891D03*
X010930Y001891D03*
X013490Y001891D03*
X014730Y001891D03*
X017290Y001891D03*
D21*
X003110Y016781D03*
D22*
X027310Y014681D02*
X027410Y014781D01*
X027810Y014781D01*
X027810Y013781D02*
X027710Y013681D01*
X027310Y013681D01*
D23*
X026910Y013658D02*
X024710Y013658D01*
X024710Y013602D02*
X024710Y013761D01*
X024649Y013908D01*
X024536Y014020D01*
X024389Y014081D01*
X024277Y014081D01*
X023730Y014629D01*
X023657Y014702D01*
X023561Y014741D01*
X023537Y014741D01*
X023830Y015034D01*
X023870Y015130D01*
X023870Y015233D01*
X023870Y016874D01*
X024679Y017683D01*
X024708Y017671D01*
X024911Y017671D01*
X025098Y017749D01*
X025242Y017893D01*
X025310Y018056D01*
X025377Y017893D01*
X025521Y017749D01*
X025708Y017671D01*
X025911Y017671D01*
X026098Y017749D01*
X026242Y017893D01*
X026288Y018004D01*
X026343Y017870D01*
X026498Y017715D01*
X026700Y017631D01*
X026790Y017631D01*
X026790Y018161D01*
X026830Y018161D01*
X026830Y018201D01*
X027360Y018201D01*
X027360Y018291D01*
X027276Y018493D01*
X027121Y018648D01*
X026919Y018731D01*
X026830Y018731D01*
X026790Y018731D01*
X026700Y018731D01*
X026498Y018648D01*
X026343Y018493D01*
X026288Y018359D01*
X026242Y018470D01*
X026098Y018614D01*
X025911Y018691D01*
X025708Y018691D01*
X025521Y018614D01*
X025377Y018470D01*
X025310Y018307D01*
X025242Y018470D01*
X025176Y018536D01*
X025501Y018861D01*
X028218Y018861D01*
X028349Y018731D01*
X028230Y018731D01*
X028190Y018731D01*
X027765Y018731D01*
X026920Y018731D01*
X026830Y018731D02*
X026830Y018202D01*
X026790Y018202D01*
X026790Y018731D01*
X026699Y018731D02*
X025370Y018731D01*
X025479Y018572D02*
X025212Y018572D01*
X025265Y018414D02*
X025354Y018414D01*
X024810Y018481D02*
X024810Y018181D01*
X024810Y018481D02*
X025410Y019081D01*
X028310Y019081D01*
X029210Y018181D01*
X029665Y018414D02*
X029754Y018414D01*
X029777Y018470D02*
X029710Y018307D01*
X029642Y018470D01*
X029498Y018614D01*
X029311Y018691D01*
X029108Y018691D01*
X029039Y018663D01*
X028401Y019301D01*
X028218Y019301D01*
X025318Y019301D01*
X025190Y019173D01*
X024708Y018691D01*
X024521Y018614D01*
X024377Y018470D01*
X024310Y018307D01*
X024242Y018470D01*
X024098Y018614D01*
X023911Y018691D01*
X023708Y018691D01*
X023521Y018614D01*
X023377Y018470D01*
X023310Y018307D01*
X023242Y018470D01*
X023098Y018614D01*
X022911Y018691D01*
X022708Y018691D01*
X022521Y018614D01*
X022377Y018470D01*
X022310Y018307D01*
X022242Y018470D01*
X022098Y018614D01*
X021911Y018691D01*
X021708Y018691D01*
X021521Y018614D01*
X021377Y018470D01*
X021300Y018283D01*
X021300Y018080D01*
X021341Y017981D01*
X021331Y017971D01*
X019840Y017971D01*
X019830Y017995D01*
X019724Y018102D01*
X019585Y018159D01*
X019434Y018159D01*
X019296Y018102D01*
X019189Y017995D01*
X019132Y017857D01*
X019132Y017706D01*
X019189Y017567D01*
X019296Y017461D01*
X019434Y017404D01*
X019585Y017404D01*
X019724Y017461D01*
X019830Y017567D01*
X019840Y017591D01*
X021331Y017591D01*
X021488Y017591D01*
X021609Y017712D01*
X021708Y017671D01*
X021911Y017671D01*
X022098Y017749D01*
X022242Y017893D01*
X022310Y018056D01*
X022377Y017893D01*
X022521Y017749D01*
X022708Y017671D01*
X022911Y017671D01*
X023098Y017749D01*
X023242Y017893D01*
X023310Y018056D01*
X023377Y017893D01*
X023521Y017749D01*
X023708Y017671D01*
X023911Y017671D01*
X023947Y017686D01*
X023502Y017241D01*
X023415Y017241D01*
X023336Y017320D01*
X023189Y017381D01*
X023030Y017381D01*
X022883Y017320D01*
X022771Y017208D01*
X022710Y017061D01*
X022710Y016902D01*
X022771Y016755D01*
X022883Y016642D01*
X023030Y016581D01*
X023189Y016581D01*
X023336Y016642D01*
X023350Y016656D01*
X023350Y015289D01*
X022920Y014859D01*
X022834Y014859D01*
X022696Y014802D01*
X022635Y014741D01*
X022561Y014741D01*
X022458Y014741D01*
X022362Y014702D01*
X019602Y011941D01*
X019269Y011941D01*
X019166Y011941D01*
X019070Y011902D01*
X017877Y010709D01*
X017877Y011722D01*
X017877Y011825D01*
X017838Y011921D01*
X017687Y012071D01*
X017687Y012157D01*
X017630Y012295D01*
X017524Y012402D01*
X017385Y012459D01*
X017234Y012459D01*
X017096Y012402D01*
X017035Y012341D01*
X013317Y012341D01*
X012510Y013149D01*
X012510Y013261D01*
X012449Y013408D01*
X012370Y013487D01*
X012370Y014074D01*
X014077Y015781D01*
X014189Y015781D01*
X014336Y015842D01*
X014449Y015955D01*
X014510Y016102D01*
X014510Y016261D01*
X014449Y016408D01*
X014336Y016520D01*
X014330Y016523D01*
X014330Y016822D01*
X014424Y016861D01*
X014530Y016967D01*
X014587Y017106D01*
X014587Y017257D01*
X014530Y017395D01*
X014424Y017502D01*
X014285Y017559D01*
X014134Y017559D01*
X013996Y017502D01*
X013889Y017395D01*
X013832Y017257D01*
X013832Y017106D01*
X013889Y016967D01*
X013890Y016967D01*
X013890Y016523D01*
X013883Y016520D01*
X013771Y016408D01*
X013710Y016261D01*
X013710Y016149D01*
X012002Y014441D01*
X003817Y014441D01*
X003507Y014752D01*
X003507Y014811D01*
X006557Y017861D01*
X006630Y017934D01*
X006670Y018030D01*
X006670Y018613D01*
X006751Y018647D01*
X006895Y018790D01*
X006962Y018954D01*
X007030Y018790D01*
X007173Y018647D01*
X007361Y018569D01*
X007564Y018569D01*
X007751Y018647D01*
X007895Y018790D01*
X007962Y018954D01*
X007993Y018879D01*
X006920Y017805D01*
X006920Y017648D01*
X006920Y016536D01*
X006883Y016520D01*
X006771Y016408D01*
X006710Y016261D01*
X006710Y016102D01*
X006771Y015955D01*
X006883Y015842D01*
X007030Y015781D01*
X007189Y015781D01*
X007336Y015842D01*
X007449Y015955D01*
X007510Y016102D01*
X007510Y016261D01*
X007449Y016408D01*
X007336Y016520D01*
X007300Y016536D01*
X007300Y017648D01*
X008262Y018610D01*
X008361Y018569D01*
X008564Y018569D01*
X008751Y018647D01*
X008895Y018790D01*
X008941Y018901D01*
X008996Y018767D01*
X009151Y018613D01*
X009353Y018529D01*
X009442Y018529D01*
X009442Y019059D01*
X009482Y019059D01*
X009482Y018529D01*
X009572Y018529D01*
X009695Y018580D01*
X007920Y016805D01*
X007920Y016648D01*
X007920Y016536D01*
X007883Y016520D01*
X007771Y016408D01*
X007710Y016261D01*
X007710Y016102D01*
X007771Y015955D01*
X007883Y015842D01*
X008030Y015781D01*
X008189Y015781D01*
X008336Y015842D01*
X008449Y015955D01*
X008510Y016102D01*
X008510Y016261D01*
X008449Y016408D01*
X008336Y016520D01*
X008300Y016536D01*
X008300Y016648D01*
X010262Y018610D01*
X010361Y018569D01*
X010564Y018569D01*
X010751Y018647D01*
X010895Y018790D01*
X010962Y018954D01*
X011030Y018790D01*
X011173Y018647D01*
X011361Y018569D01*
X011564Y018569D01*
X011751Y018647D01*
X011895Y018790D01*
X011962Y018954D01*
X012030Y018790D01*
X012173Y018647D01*
X012361Y018569D01*
X012564Y018569D01*
X012751Y018647D01*
X012895Y018790D01*
X012962Y018954D01*
X013030Y018790D01*
X013173Y018647D01*
X013361Y018569D01*
X013564Y018569D01*
X013751Y018647D01*
X013895Y018790D01*
X013962Y018954D01*
X014030Y018790D01*
X014173Y018647D01*
X014361Y018569D01*
X014564Y018569D01*
X014751Y018647D01*
X014895Y018790D01*
X014962Y018954D01*
X015030Y018790D01*
X015173Y018647D01*
X015361Y018569D01*
X015564Y018569D01*
X015751Y018647D01*
X015895Y018790D01*
X015962Y018954D01*
X015993Y018879D01*
X015520Y018405D01*
X015520Y018248D01*
X015520Y017462D01*
X015446Y017536D01*
X015293Y017599D01*
X015210Y017599D01*
X015210Y017182D01*
X015209Y017182D01*
X015209Y017599D01*
X015126Y017599D01*
X014973Y017536D01*
X014855Y017418D01*
X014792Y017265D01*
X014792Y017182D01*
X015209Y017182D01*
X015209Y017181D01*
X014792Y017181D01*
X014792Y017098D01*
X014855Y016945D01*
X014973Y016827D01*
X015126Y016764D01*
X015209Y016764D01*
X015209Y017181D01*
X015210Y017181D01*
X015210Y016764D01*
X015293Y016764D01*
X015446Y016827D01*
X015520Y016901D01*
X015520Y016860D01*
X015226Y016566D01*
X015189Y016581D01*
X015030Y016581D01*
X014883Y016520D01*
X014771Y016408D01*
X014710Y016261D01*
X014710Y016102D01*
X014771Y015955D01*
X014883Y015842D01*
X015030Y015781D01*
X015189Y015781D01*
X015336Y015842D01*
X015449Y015955D01*
X015510Y016102D01*
X015510Y016261D01*
X015494Y016298D01*
X015788Y016591D01*
X015900Y016703D01*
X015900Y018248D01*
X016262Y018610D01*
X016361Y018569D01*
X016564Y018569D01*
X016751Y018647D01*
X016895Y018790D01*
X016962Y018954D01*
X017006Y018847D01*
X016420Y018260D01*
X016420Y018103D01*
X016420Y016437D01*
X016336Y016520D01*
X016189Y016581D01*
X016030Y016581D01*
X015883Y016520D01*
X015771Y016408D01*
X015710Y016261D01*
X015710Y016102D01*
X015771Y015955D01*
X015820Y015906D01*
X015820Y015141D01*
X015740Y015062D01*
X015691Y014945D01*
X015691Y014818D01*
X015740Y014701D01*
X015829Y014612D01*
X015946Y014563D01*
X016073Y014563D01*
X016190Y014612D01*
X016279Y014701D01*
X016328Y014818D01*
X016328Y014945D01*
X016279Y015062D01*
X016200Y015141D01*
X016200Y015786D01*
X016336Y015842D01*
X016420Y015926D01*
X016420Y013603D01*
X016531Y013491D01*
X016725Y013298D01*
X016710Y013261D01*
X016710Y013102D01*
X016771Y012955D01*
X016883Y012842D01*
X017030Y012781D01*
X017189Y012781D01*
X017336Y012842D01*
X017449Y012955D01*
X017510Y013102D01*
X017510Y013261D01*
X017449Y013408D01*
X017336Y013520D01*
X017189Y013581D01*
X017030Y013581D01*
X016993Y013566D01*
X016800Y013760D01*
X016800Y015926D01*
X016883Y015842D01*
X017030Y015781D01*
X017189Y015781D01*
X017336Y015842D01*
X017449Y015955D01*
X017510Y016102D01*
X017510Y016261D01*
X017449Y016408D01*
X017336Y016520D01*
X017300Y016536D01*
X017300Y017648D01*
X018262Y018610D01*
X018361Y018569D01*
X018564Y018569D01*
X018751Y018647D01*
X018895Y018790D01*
X018962Y018954D01*
X019030Y018790D01*
X019173Y018647D01*
X019361Y018569D01*
X019564Y018569D01*
X019751Y018647D01*
X019895Y018790D01*
X019941Y018901D01*
X019996Y018767D01*
X020151Y018613D01*
X020353Y018529D01*
X020442Y018529D01*
X020442Y019059D01*
X020482Y019059D01*
X020482Y018529D01*
X020572Y018529D01*
X020774Y018613D01*
X020929Y018767D01*
X021012Y018970D01*
X021012Y019059D01*
X020483Y019059D01*
X020483Y019099D01*
X021012Y019099D01*
X021012Y019188D01*
X020929Y019391D01*
X020774Y019545D01*
X020572Y019629D01*
X020482Y019629D01*
X020482Y019099D01*
X020442Y019099D01*
X020442Y019629D01*
X020353Y019629D01*
X020151Y019545D01*
X019996Y019391D01*
X019941Y019257D01*
X019895Y019368D01*
X019751Y019511D01*
X019564Y019589D01*
X019361Y019589D01*
X019173Y019511D01*
X019030Y019368D01*
X018962Y019205D01*
X018895Y019368D01*
X018751Y019511D01*
X018564Y019589D01*
X018361Y019589D01*
X018173Y019511D01*
X018030Y019368D01*
X017962Y019205D01*
X017895Y019368D01*
X017751Y019511D01*
X017564Y019589D01*
X017361Y019589D01*
X017173Y019511D01*
X017030Y019368D01*
X016962Y019205D01*
X016895Y019368D01*
X016751Y019511D01*
X016564Y019589D01*
X016361Y019589D01*
X016173Y019511D01*
X016030Y019368D01*
X015962Y019205D01*
X015895Y019368D01*
X015751Y019511D01*
X015564Y019589D01*
X015361Y019589D01*
X015173Y019511D01*
X015030Y019368D01*
X014962Y019205D01*
X014895Y019368D01*
X014751Y019511D01*
X014564Y019589D01*
X014361Y019589D01*
X014173Y019511D01*
X014030Y019368D01*
X013962Y019205D01*
X013895Y019368D01*
X013751Y019511D01*
X013564Y019589D01*
X013361Y019589D01*
X013173Y019511D01*
X013030Y019368D01*
X012962Y019205D01*
X012895Y019368D01*
X012751Y019511D01*
X012564Y019589D01*
X012361Y019589D01*
X012173Y019511D01*
X012030Y019368D01*
X011962Y019205D01*
X011895Y019368D01*
X011751Y019511D01*
X011564Y019589D01*
X011361Y019589D01*
X011173Y019511D01*
X011030Y019368D01*
X010962Y019205D01*
X010895Y019368D01*
X010751Y019511D01*
X010564Y019589D01*
X010361Y019589D01*
X010173Y019511D01*
X010030Y019368D01*
X009984Y019257D01*
X009929Y019391D01*
X009774Y019545D01*
X009572Y019629D01*
X009482Y019629D01*
X009482Y019099D01*
X009442Y019099D01*
X009442Y019629D01*
X009353Y019629D01*
X009151Y019545D01*
X008996Y019391D01*
X008941Y019257D01*
X008895Y019368D01*
X008751Y019511D01*
X008564Y019589D01*
X008361Y019589D01*
X008173Y019511D01*
X008030Y019368D01*
X007962Y019205D01*
X007895Y019368D01*
X007751Y019511D01*
X007564Y019589D01*
X007361Y019589D01*
X007173Y019511D01*
X007030Y019368D01*
X006962Y019205D01*
X006895Y019368D01*
X006751Y019511D01*
X006564Y019589D01*
X006361Y019589D01*
X006173Y019511D01*
X006030Y019368D01*
X006012Y019325D01*
X006012Y019524D01*
X006203Y019524D01*
X006012Y019524D02*
X005907Y019629D01*
X005482Y019629D01*
X005482Y019099D01*
X005442Y019099D01*
X005442Y019059D01*
X004912Y019059D01*
X004912Y018634D01*
X005018Y018529D01*
X005442Y018529D01*
X005442Y019059D01*
X005482Y019059D01*
X005482Y018529D01*
X005907Y018529D01*
X006012Y018634D01*
X006012Y018833D01*
X006030Y018790D01*
X006150Y018671D01*
X006150Y018189D01*
X003139Y015179D01*
X003031Y015179D01*
X002884Y015118D01*
X002773Y015007D01*
X002712Y014860D01*
X002712Y014702D01*
X002773Y014556D01*
X002884Y014444D01*
X003031Y014384D01*
X003139Y014384D01*
X003562Y013961D01*
X003658Y013921D01*
X003761Y013921D01*
X011850Y013921D01*
X011850Y013487D01*
X011771Y013408D01*
X011710Y013261D01*
X011710Y013102D01*
X011771Y012955D01*
X011883Y012842D01*
X012030Y012781D01*
X012142Y012781D01*
X013062Y011861D01*
X013158Y011821D01*
X013261Y011821D01*
X017035Y011821D01*
X017096Y011761D01*
X017234Y011704D01*
X017320Y011704D01*
X017357Y011666D01*
X017357Y010384D01*
X017281Y010307D01*
X017220Y010160D01*
X017220Y010002D01*
X017281Y009856D01*
X017350Y009787D01*
X017350Y009691D01*
X017290Y009751D01*
X017173Y009799D01*
X017060Y009799D01*
X015488Y011371D01*
X015331Y011371D01*
X013188Y011371D01*
X011788Y012771D01*
X011631Y012771D01*
X009688Y012771D01*
X009465Y012995D01*
X009510Y013102D01*
X009510Y013261D01*
X009449Y013408D01*
X009336Y013520D01*
X009189Y013581D01*
X009030Y013581D01*
X008883Y013520D01*
X008771Y013408D01*
X008710Y013261D01*
X008710Y013102D01*
X008771Y012955D01*
X008883Y012842D01*
X009030Y012781D01*
X009141Y012781D01*
X009420Y012503D01*
X009531Y012391D01*
X011631Y012391D01*
X012920Y011103D01*
X013031Y010991D01*
X015331Y010991D01*
X016791Y009531D01*
X016791Y009418D01*
X016827Y009333D01*
X015400Y010760D01*
X015288Y010871D01*
X010288Y010871D01*
X008323Y012837D01*
X008336Y012842D01*
X008449Y012955D01*
X008510Y013102D01*
X008510Y013261D01*
X008449Y013408D01*
X008336Y013520D01*
X008189Y013581D01*
X008030Y013581D01*
X007883Y013520D01*
X007771Y013408D01*
X007710Y013261D01*
X007710Y013102D01*
X007771Y012955D01*
X007883Y012842D01*
X007920Y012827D01*
X007920Y012703D01*
X010020Y010603D01*
X010131Y010491D01*
X015131Y010491D01*
X016791Y008831D01*
X016791Y008718D01*
X016840Y008601D01*
X016929Y008512D01*
X017046Y008463D01*
X017173Y008463D01*
X017290Y008512D01*
X017350Y008572D01*
X017350Y008191D01*
X017290Y008251D01*
X017173Y008299D01*
X017060Y008299D01*
X016588Y008771D01*
X016431Y008771D01*
X010488Y008771D01*
X007300Y011960D01*
X007300Y012827D01*
X007336Y012842D01*
X007449Y012955D01*
X007510Y013102D01*
X007510Y013261D01*
X007449Y013408D01*
X007336Y013520D01*
X007189Y013581D01*
X007030Y013581D01*
X006883Y013520D01*
X006771Y013408D01*
X006710Y013261D01*
X006710Y013102D01*
X006771Y012955D01*
X006883Y012842D01*
X006920Y012827D01*
X006920Y011960D01*
X006920Y011803D01*
X010220Y008503D01*
X010331Y008391D01*
X016431Y008391D01*
X016791Y008031D01*
X016791Y007918D01*
X016840Y007801D01*
X016929Y007712D01*
X017030Y007670D01*
X015752Y006391D01*
X015750Y006391D01*
X015750Y006519D01*
X015683Y006681D01*
X015559Y006804D01*
X015397Y006871D01*
X015222Y006871D01*
X015060Y006804D01*
X014937Y006681D01*
X014870Y006519D01*
X014870Y005744D01*
X014937Y005582D01*
X014977Y005541D01*
X014698Y005541D01*
X014716Y005559D01*
X014790Y005736D01*
X014790Y006111D01*
X014330Y006111D01*
X014330Y006151D01*
X014790Y006151D01*
X014790Y006527D01*
X014716Y006703D01*
X014581Y006838D01*
X014405Y006911D01*
X014330Y006911D01*
X014330Y006152D01*
X014290Y006152D01*
X014290Y006911D01*
X014214Y006911D01*
X014038Y006838D01*
X013903Y006703D01*
X013830Y006527D01*
X013830Y006151D01*
X014289Y006151D01*
X014289Y006111D01*
X013830Y006111D01*
X013830Y005736D01*
X013903Y005559D01*
X013921Y005541D01*
X013717Y005541D01*
X013680Y005579D01*
X013683Y005582D01*
X013750Y005744D01*
X013750Y006519D01*
X013683Y006681D01*
X013559Y006804D01*
X013397Y006871D01*
X013222Y006871D01*
X013060Y006804D01*
X012937Y006681D01*
X012870Y006519D01*
X012870Y006116D01*
X012627Y005873D01*
X012627Y005881D01*
X012210Y005881D01*
X012210Y005882D01*
X012209Y005882D01*
X012209Y006299D01*
X012126Y006299D01*
X011973Y006236D01*
X011855Y006118D01*
X011792Y005965D01*
X011792Y005882D01*
X012209Y005882D01*
X012209Y005881D01*
X011792Y005881D01*
X011792Y005798D01*
X011855Y005645D01*
X011973Y005527D01*
X012084Y005481D01*
X011934Y005481D01*
X011587Y005828D01*
X011587Y005957D01*
X011530Y006095D01*
X011424Y006202D01*
X011285Y006259D01*
X011256Y006259D01*
X011130Y006386D01*
X011019Y006431D01*
X010900Y006431D01*
X010550Y006431D01*
X010550Y006519D01*
X010483Y006681D01*
X010359Y006804D01*
X010197Y006871D01*
X010022Y006871D01*
X009860Y006804D01*
X009737Y006681D01*
X009670Y006519D01*
X009670Y005744D01*
X009737Y005582D01*
X009860Y005458D01*
X010022Y005391D01*
X010197Y005391D01*
X010359Y005458D01*
X010483Y005582D01*
X010550Y005744D01*
X010550Y005831D01*
X010832Y005831D01*
X010832Y005806D01*
X010889Y005667D01*
X010996Y005561D01*
X011013Y005554D01*
X011555Y005011D01*
X011640Y004927D01*
X011750Y004881D01*
X012300Y004881D01*
X012419Y004881D01*
X012530Y004927D01*
X013061Y005458D01*
X013083Y005449D01*
X013089Y005434D01*
X013162Y005361D01*
X013462Y005061D01*
X013558Y005021D01*
X013661Y005021D01*
X016661Y005021D01*
X016757Y005061D01*
X016830Y005134D01*
X016830Y005134D01*
X017816Y006120D01*
X017884Y006052D01*
X018031Y005992D01*
X018189Y005992D01*
X018335Y006052D01*
X018381Y006099D01*
X018890Y005590D01*
X019018Y005461D01*
X031701Y005461D01*
X031830Y005590D01*
X032201Y005961D01*
X032330Y006090D01*
X032330Y006196D01*
X032551Y005974D01*
X032856Y005847D01*
X033186Y005847D01*
X033492Y005974D01*
X033725Y006207D01*
X033826Y006450D01*
X033826Y000361D01*
X002690Y000361D01*
X002690Y006450D01*
X002790Y006207D01*
X003024Y005974D01*
X003329Y005847D01*
X003659Y005847D01*
X003964Y005974D01*
X004197Y006207D01*
X004324Y006512D01*
X004324Y006843D01*
X004197Y007148D01*
X003964Y007381D01*
X003659Y007507D01*
X003329Y007507D01*
X003024Y007381D01*
X002790Y007148D01*
X002690Y006905D01*
X002690Y011703D01*
X002719Y011632D01*
X002992Y011359D01*
X003348Y011211D01*
X003461Y011211D01*
X003461Y012101D01*
X003621Y012101D01*
X003621Y011211D01*
X003734Y011211D01*
X004091Y011359D01*
X004363Y011632D01*
X004511Y011988D01*
X004511Y012101D01*
X003621Y012101D01*
X003621Y012261D01*
X004511Y012261D01*
X004511Y012374D01*
X004363Y012731D01*
X004091Y013004D01*
X003734Y013151D01*
X003621Y013151D01*
X003621Y012262D01*
X003461Y012262D01*
X003461Y013151D01*
X003348Y013151D01*
X002992Y013004D01*
X002719Y012731D01*
X002690Y012660D01*
X002690Y016432D01*
X002778Y016344D01*
X003109Y016344D01*
X003109Y016781D01*
X003110Y016781D01*
X003110Y016782D01*
X003109Y016782D01*
X003109Y017219D01*
X002778Y017219D01*
X002690Y017131D01*
X002690Y018655D01*
X002790Y018412D01*
X003024Y018179D01*
X003329Y018052D01*
X003659Y018052D01*
X003964Y018179D01*
X004197Y018412D01*
X004324Y018717D01*
X004324Y019047D01*
X004197Y019352D01*
X003964Y019586D01*
X003721Y019686D01*
X032794Y019686D01*
X032551Y019586D01*
X032318Y019352D01*
X032191Y019047D01*
X032191Y018717D01*
X032318Y018412D01*
X032551Y018179D01*
X032856Y018052D01*
X033186Y018052D01*
X033492Y018179D01*
X033725Y018412D01*
X033826Y018655D01*
X033826Y006905D01*
X033725Y007148D01*
X033492Y007381D01*
X033300Y007461D01*
X033401Y007561D01*
X033511Y007671D01*
X033738Y007671D01*
X033820Y007753D01*
X033820Y008609D01*
X033738Y008691D01*
X033530Y008691D01*
X033530Y008721D01*
X033598Y008749D01*
X033742Y008893D01*
X033820Y009080D01*
X033820Y009283D01*
X033742Y009470D01*
X033598Y009614D01*
X033530Y009642D01*
X033530Y009721D01*
X033598Y009749D01*
X033742Y009893D01*
X033820Y010080D01*
X033820Y010283D01*
X033742Y010470D01*
X033598Y010614D01*
X033530Y010642D01*
X033530Y010721D01*
X033598Y010749D01*
X033742Y010893D01*
X033820Y011080D01*
X033820Y011283D01*
X033742Y011470D01*
X033598Y011614D01*
X033435Y011681D01*
X033598Y011749D01*
X033742Y011893D01*
X033820Y012080D01*
X033820Y012283D01*
X033742Y012470D01*
X033598Y012614D01*
X033435Y012681D01*
X033598Y012749D01*
X033742Y012893D01*
X033820Y013080D01*
X033820Y013283D01*
X033742Y013470D01*
X033598Y013614D01*
X033435Y013681D01*
X033598Y013749D01*
X033742Y013893D01*
X033820Y014080D01*
X033820Y014283D01*
X033742Y014470D01*
X033598Y014614D01*
X033459Y014671D01*
X033738Y014671D01*
X033820Y014753D01*
X033820Y015609D01*
X033738Y015691D01*
X032882Y015691D01*
X032800Y015609D01*
X032800Y015435D01*
X032776Y015493D01*
X032621Y015648D01*
X032419Y015731D01*
X032330Y015731D01*
X032330Y015202D01*
X032290Y015202D01*
X032290Y015731D01*
X032200Y015731D01*
X031998Y015648D01*
X031843Y015493D01*
X031760Y015291D01*
X031760Y015201D01*
X032289Y015201D01*
X032289Y015161D01*
X031760Y015161D01*
X031760Y015072D01*
X031843Y014870D01*
X031998Y014715D01*
X032080Y014681D01*
X031998Y014648D01*
X031843Y014493D01*
X031760Y014291D01*
X031760Y014201D01*
X032289Y014201D01*
X032289Y014161D01*
X031760Y014161D01*
X031760Y014072D01*
X031843Y013871D01*
X031531Y013871D01*
X031420Y013760D01*
X030731Y013071D01*
X026631Y013071D01*
X026520Y012960D01*
X025126Y011566D01*
X025089Y011581D01*
X024930Y011581D01*
X024783Y011520D01*
X024671Y011408D01*
X024610Y011261D01*
X024610Y011102D01*
X024671Y010955D01*
X024783Y010842D01*
X024930Y010781D01*
X025089Y010781D01*
X025236Y010842D01*
X025349Y010955D01*
X025410Y011102D01*
X025410Y011261D01*
X025394Y011298D01*
X026788Y012691D01*
X030651Y012691D01*
X030420Y012460D01*
X030420Y012303D01*
X030420Y012237D01*
X030336Y012320D01*
X030189Y012381D01*
X030030Y012381D01*
X029883Y012320D01*
X029771Y012208D01*
X029710Y012061D01*
X029710Y011902D01*
X029771Y011755D01*
X029883Y011642D01*
X030030Y011581D01*
X030189Y011581D01*
X030336Y011642D01*
X030420Y011726D01*
X030420Y011660D01*
X030231Y011471D01*
X029631Y011471D01*
X029520Y011360D01*
X028420Y010260D01*
X028420Y010103D01*
X028420Y009460D01*
X028410Y009450D01*
X028410Y009999D01*
X028328Y010081D01*
X027692Y010081D01*
X027610Y009999D01*
X027610Y009363D01*
X027692Y009281D01*
X028241Y009281D01*
X028231Y009271D01*
X027031Y009271D01*
X026920Y009160D01*
X026126Y008366D01*
X026089Y008381D01*
X025930Y008381D01*
X025783Y008320D01*
X025671Y008208D01*
X025610Y008061D01*
X025610Y007902D01*
X025671Y007755D01*
X025783Y007642D01*
X025930Y007581D01*
X026089Y007581D01*
X026178Y007618D01*
X025526Y006966D01*
X025489Y006981D01*
X025330Y006981D01*
X025183Y006920D01*
X025071Y006808D01*
X025010Y006661D01*
X025010Y006502D01*
X025071Y006355D01*
X025183Y006242D01*
X025330Y006181D01*
X025489Y006181D01*
X025636Y006242D01*
X025749Y006355D01*
X025810Y006502D01*
X025810Y006661D01*
X025794Y006698D01*
X027588Y008491D01*
X029731Y008491D01*
X029888Y008491D01*
X030688Y009291D01*
X030735Y009338D01*
X030792Y009281D01*
X031428Y009281D01*
X031510Y009363D01*
X031510Y009999D01*
X031428Y010081D01*
X030800Y010081D01*
X030800Y010303D01*
X031800Y011303D01*
X031800Y010753D01*
X031882Y010671D01*
X032160Y010671D01*
X032021Y010614D01*
X031877Y010470D01*
X031800Y010283D01*
X031800Y010080D01*
X031877Y009893D01*
X032021Y009749D01*
X032184Y009681D01*
X032021Y009614D01*
X031877Y009470D01*
X031800Y009283D01*
X031800Y009080D01*
X031877Y008893D01*
X032021Y008749D01*
X032184Y008681D01*
X032021Y008614D01*
X031877Y008470D01*
X031800Y008283D01*
X031800Y008080D01*
X031877Y007893D01*
X032021Y007749D01*
X032208Y007671D01*
X032289Y007671D01*
X031890Y007273D01*
X031890Y007090D01*
X031890Y006272D01*
X031519Y005901D01*
X019201Y005901D01*
X018493Y006609D01*
X018449Y006609D01*
X018447Y006614D01*
X018335Y006726D01*
X018189Y006787D01*
X018031Y006787D01*
X017884Y006726D01*
X017807Y006649D01*
X017769Y006649D01*
X017666Y006649D01*
X017570Y006610D01*
X016502Y005541D01*
X015642Y005541D01*
X015683Y005582D01*
X015750Y005744D01*
X015750Y005871D01*
X015808Y005871D01*
X015911Y005871D01*
X016007Y005911D01*
X017757Y007661D01*
X017830Y007734D01*
X017870Y007830D01*
X017870Y009771D01*
X017954Y009856D01*
X018015Y010002D01*
X018015Y010111D01*
X018229Y010326D01*
X018164Y010168D01*
X018164Y010082D01*
X018601Y010082D01*
X018601Y010519D01*
X018515Y010519D01*
X018357Y010454D01*
X019325Y011421D01*
X019761Y011421D01*
X019857Y011461D01*
X019930Y011534D01*
X022617Y014221D01*
X022635Y014221D01*
X022696Y014161D01*
X022834Y014104D01*
X022985Y014104D01*
X023124Y014161D01*
X023184Y014221D01*
X023402Y014221D01*
X023910Y013714D01*
X023910Y013602D01*
X023971Y013455D01*
X024083Y013342D01*
X024230Y013281D01*
X024389Y013281D01*
X024536Y013342D01*
X024649Y013455D01*
X024710Y013602D01*
X024667Y013499D02*
X026910Y013499D01*
X026910Y013363D02*
X026992Y013281D01*
X027628Y013281D01*
X027710Y013363D01*
X027710Y013390D01*
X027730Y013381D01*
X027889Y013381D01*
X028036Y013442D01*
X028149Y013555D01*
X028210Y013702D01*
X028210Y013861D01*
X028149Y014008D01*
X028036Y014120D01*
X027889Y014181D01*
X027730Y014181D01*
X027583Y014120D01*
X027544Y014081D01*
X026992Y014081D01*
X026910Y013999D01*
X026910Y013363D01*
X026932Y013341D02*
X024532Y013341D01*
X024087Y013341D02*
X021736Y013341D01*
X021895Y013499D02*
X023952Y013499D01*
X023910Y013658D02*
X022053Y013658D01*
X022212Y013816D02*
X023807Y013816D01*
X023649Y013975D02*
X022371Y013975D01*
X022529Y014133D02*
X022763Y014133D01*
X023056Y014133D02*
X023490Y014133D01*
X023908Y014450D02*
X023975Y014450D01*
X023971Y014455D02*
X024083Y014342D01*
X024230Y014281D01*
X024389Y014281D01*
X024536Y014342D01*
X024649Y014455D01*
X024710Y014602D01*
X024710Y014761D01*
X024649Y014908D01*
X024536Y015020D01*
X024389Y015081D01*
X024230Y015081D01*
X024083Y015020D01*
X023971Y014908D01*
X023910Y014761D01*
X023910Y014602D01*
X023971Y014455D01*
X023910Y014609D02*
X023750Y014609D01*
X023730Y014629D02*
X023730Y014629D01*
X023563Y014767D02*
X023912Y014767D01*
X023988Y014926D02*
X023722Y014926D01*
X023851Y015084D02*
X027547Y015084D01*
X027583Y015120D02*
X027499Y015036D01*
X027389Y015081D01*
X027230Y015081D01*
X027083Y015020D01*
X026971Y014908D01*
X026910Y014761D01*
X026910Y014602D01*
X026971Y014455D01*
X027083Y014342D01*
X027230Y014281D01*
X027389Y014281D01*
X027536Y014342D01*
X027621Y014427D01*
X027730Y014381D01*
X027889Y014381D01*
X028036Y014442D01*
X028149Y014555D01*
X028210Y014702D01*
X028210Y014861D01*
X028149Y015008D01*
X028036Y015120D01*
X027889Y015181D01*
X027730Y015181D01*
X027583Y015120D01*
X027536Y015342D02*
X027649Y015455D01*
X027710Y015602D01*
X027710Y015761D01*
X027649Y015908D01*
X027536Y016020D01*
X027389Y016081D01*
X027230Y016081D01*
X027083Y016020D01*
X026971Y015908D01*
X026910Y015761D01*
X026910Y015602D01*
X026971Y015455D01*
X027083Y015342D01*
X027230Y015281D01*
X027389Y015281D01*
X027536Y015342D01*
X027595Y015402D02*
X031806Y015402D01*
X031760Y015243D02*
X023870Y015243D01*
X023870Y015402D02*
X024024Y015402D01*
X023971Y015455D02*
X024083Y015342D01*
X024230Y015281D01*
X024389Y015281D01*
X024536Y015342D01*
X024649Y015455D01*
X024710Y015602D01*
X024710Y015761D01*
X024649Y015908D01*
X024536Y016020D01*
X024389Y016081D01*
X024230Y016081D01*
X024083Y016020D01*
X023971Y015908D01*
X023910Y015761D01*
X023910Y015602D01*
X023971Y015455D01*
X023927Y015560D02*
X023870Y015560D01*
X023870Y015719D02*
X023910Y015719D01*
X023870Y015877D02*
X023958Y015877D01*
X023870Y016036D02*
X024120Y016036D01*
X024230Y016281D02*
X024389Y016281D01*
X024536Y016342D01*
X024649Y016455D01*
X024664Y016491D01*
X025731Y016491D01*
X025888Y016491D01*
X026388Y016991D01*
X026997Y016991D01*
X026937Y016931D01*
X026870Y016769D01*
X026870Y016682D01*
X027309Y016682D01*
X027309Y016681D01*
X026870Y016681D01*
X026870Y016594D01*
X026937Y016432D01*
X027060Y016308D01*
X027222Y016241D01*
X027309Y016241D01*
X027309Y016681D01*
X027310Y016681D01*
X027310Y016682D01*
X027750Y016682D01*
X027750Y016769D01*
X027683Y016931D01*
X027622Y016991D01*
X029314Y016991D01*
X029371Y016855D01*
X029483Y016742D01*
X029630Y016681D01*
X029789Y016681D01*
X029936Y016742D01*
X030049Y016855D01*
X030064Y016891D01*
X030188Y016891D01*
X030300Y017003D01*
X031009Y017712D01*
X031108Y017671D01*
X031311Y017671D01*
X031498Y017749D01*
X031642Y017893D01*
X031720Y018080D01*
X031720Y018283D01*
X031642Y018470D01*
X031498Y018614D01*
X031311Y018691D01*
X031108Y018691D01*
X030921Y018614D01*
X030777Y018470D01*
X030710Y018307D01*
X030642Y018470D01*
X030498Y018614D01*
X030311Y018691D01*
X030108Y018691D01*
X029921Y018614D01*
X029777Y018470D01*
X029879Y018572D02*
X029540Y018572D01*
X028971Y018731D02*
X032191Y018731D01*
X032191Y018890D02*
X028813Y018890D01*
X028654Y019048D02*
X032192Y019048D01*
X032257Y019207D02*
X028495Y019207D01*
X028230Y018731D02*
X028230Y018202D01*
X028190Y018202D01*
X028190Y018731D01*
X028190Y018572D02*
X028230Y018572D01*
X028230Y018414D02*
X028190Y018414D01*
X028190Y018255D02*
X028230Y018255D01*
X028189Y018201D02*
X028189Y018161D01*
X027660Y018161D01*
X027660Y017737D01*
X027765Y017631D01*
X028190Y017631D01*
X028190Y018161D01*
X028230Y018161D01*
X028230Y017631D01*
X028654Y017631D01*
X028760Y017737D01*
X028760Y017935D01*
X028777Y017893D01*
X028921Y017749D01*
X029108Y017671D01*
X029311Y017671D01*
X029498Y017749D01*
X029642Y017893D01*
X029710Y018056D01*
X029777Y017893D01*
X029921Y017749D01*
X030108Y017671D01*
X030311Y017671D01*
X030498Y017749D01*
X030642Y017893D01*
X030710Y018056D01*
X030741Y017981D01*
X030054Y017295D01*
X030049Y017308D01*
X029936Y017420D01*
X029789Y017481D01*
X029630Y017481D01*
X029483Y017420D01*
X029434Y017371D01*
X026231Y017371D01*
X026120Y017260D01*
X025731Y016871D01*
X024664Y016871D01*
X024649Y016908D01*
X024536Y017020D01*
X024389Y017081D01*
X024230Y017081D01*
X024083Y017020D01*
X023971Y016908D01*
X023910Y016761D01*
X023910Y016602D01*
X023971Y016455D01*
X024083Y016342D01*
X024230Y016281D01*
X024072Y016353D02*
X023870Y016353D01*
X023870Y016511D02*
X023947Y016511D01*
X023910Y016670D02*
X023870Y016670D01*
X023870Y016828D02*
X023938Y016828D01*
X023983Y016987D02*
X024050Y016987D01*
X024141Y017146D02*
X026005Y017146D01*
X026120Y017260D02*
X026120Y017260D01*
X026164Y017304D02*
X024300Y017304D01*
X024459Y017463D02*
X029585Y017463D01*
X029834Y017463D02*
X030222Y017463D01*
X030381Y017621D02*
X024617Y017621D01*
X025129Y017780D02*
X025490Y017780D01*
X025358Y017938D02*
X025261Y017938D01*
X024354Y018414D02*
X024265Y018414D01*
X024140Y018572D02*
X024479Y018572D01*
X024708Y018691D02*
X024708Y018691D01*
X024748Y018731D02*
X020892Y018731D01*
X020979Y018890D02*
X024907Y018890D01*
X025065Y019048D02*
X021012Y019048D01*
X021005Y019207D02*
X025224Y019207D01*
X026140Y018572D02*
X026423Y018572D01*
X026311Y018414D02*
X026265Y018414D01*
X026261Y017938D02*
X026315Y017938D01*
X026433Y017780D02*
X026129Y017780D01*
X026790Y017780D02*
X026830Y017780D01*
X026830Y017631D02*
X026919Y017631D01*
X027121Y017715D01*
X027276Y017870D01*
X027360Y018072D01*
X027360Y018161D01*
X026830Y018161D01*
X026830Y017631D01*
X027186Y017780D02*
X027660Y017780D01*
X027660Y017938D02*
X027304Y017938D01*
X027360Y018097D02*
X027660Y018097D01*
X027660Y018201D02*
X028189Y018201D01*
X028190Y018097D02*
X028230Y018097D01*
X028230Y017938D02*
X028190Y017938D01*
X028190Y017780D02*
X028230Y017780D01*
X028760Y017780D02*
X028890Y017780D01*
X029529Y017780D02*
X029890Y017780D01*
X029758Y017938D02*
X029661Y017938D01*
X030050Y017304D02*
X030064Y017304D01*
X030442Y017146D02*
X032310Y017146D01*
X032310Y017161D02*
X032310Y017002D01*
X032371Y016855D01*
X032483Y016742D01*
X032630Y016681D01*
X032789Y016681D01*
X032936Y016742D01*
X033049Y016855D01*
X033110Y017002D01*
X033110Y017161D01*
X033049Y017308D01*
X032936Y017420D01*
X032789Y017481D01*
X032630Y017481D01*
X032483Y017420D01*
X032371Y017308D01*
X032310Y017161D01*
X032369Y017304D02*
X030601Y017304D01*
X030759Y017463D02*
X032585Y017463D01*
X032834Y017463D02*
X033826Y017463D01*
X033826Y017621D02*
X030918Y017621D01*
X030539Y017780D02*
X030529Y017780D01*
X030661Y017938D02*
X030698Y017938D01*
X030665Y018414D02*
X030754Y018414D01*
X030879Y018572D02*
X030540Y018572D01*
X031540Y018572D02*
X032251Y018572D01*
X032317Y018414D02*
X031665Y018414D01*
X031720Y018255D02*
X032474Y018255D01*
X032749Y018097D02*
X031720Y018097D01*
X031661Y017938D02*
X033826Y017938D01*
X033826Y017780D02*
X031529Y017780D01*
X032316Y016987D02*
X030284Y016987D01*
X030022Y016828D02*
X032397Y016828D01*
X032483Y016520D02*
X032371Y016408D01*
X032310Y016261D01*
X032310Y016102D01*
X032371Y015955D01*
X032483Y015842D01*
X032630Y015781D01*
X032789Y015781D01*
X032936Y015842D01*
X033049Y015955D01*
X033110Y016102D01*
X033110Y016261D01*
X033049Y016408D01*
X032936Y016520D01*
X032789Y016581D01*
X032630Y016581D01*
X032483Y016520D01*
X032474Y016511D02*
X029945Y016511D01*
X029936Y016520D02*
X029789Y016581D01*
X029630Y016581D01*
X029483Y016520D01*
X029371Y016408D01*
X029310Y016261D01*
X029310Y016102D01*
X029371Y015955D01*
X029483Y015842D01*
X029630Y015781D01*
X029789Y015781D01*
X029936Y015842D01*
X030049Y015955D01*
X030110Y016102D01*
X030110Y016261D01*
X030049Y016408D01*
X029936Y016520D01*
X030072Y016353D02*
X032348Y016353D01*
X032310Y016194D02*
X030110Y016194D01*
X030082Y016036D02*
X032337Y016036D01*
X032448Y015877D02*
X029971Y015877D01*
X029448Y015877D02*
X027661Y015877D01*
X027710Y015719D02*
X032169Y015719D01*
X032290Y015719D02*
X032330Y015719D01*
X032450Y015719D02*
X033826Y015719D01*
X033826Y015877D02*
X032971Y015877D01*
X033082Y016036D02*
X033826Y016036D01*
X033826Y016194D02*
X033110Y016194D01*
X033072Y016353D02*
X033826Y016353D01*
X033826Y016511D02*
X032945Y016511D01*
X033022Y016828D02*
X033826Y016828D01*
X033826Y016670D02*
X027750Y016670D01*
X027750Y016681D02*
X027310Y016681D01*
X027310Y016241D01*
X027397Y016241D01*
X027559Y016308D01*
X027683Y016432D01*
X027750Y016594D01*
X027750Y016681D01*
X027725Y016828D02*
X029397Y016828D01*
X029316Y016987D02*
X027626Y016987D01*
X027310Y016670D02*
X027309Y016670D01*
X027309Y016511D02*
X027310Y016511D01*
X027309Y016353D02*
X027310Y016353D01*
X027603Y016353D02*
X029348Y016353D01*
X029310Y016194D02*
X023870Y016194D01*
X023350Y016194D02*
X020510Y016194D01*
X020510Y016036D02*
X023350Y016036D01*
X023350Y015877D02*
X023046Y015877D01*
X022993Y015899D02*
X023146Y015836D01*
X023264Y015718D01*
X023327Y015565D01*
X023327Y015482D01*
X022910Y015482D01*
X022909Y015482D01*
X022909Y015899D01*
X022826Y015899D01*
X022673Y015836D01*
X022555Y015718D01*
X022492Y015565D01*
X022492Y015482D01*
X022909Y015482D01*
X022909Y015481D01*
X022492Y015481D01*
X022492Y015398D01*
X022555Y015245D01*
X022673Y015127D01*
X022826Y015064D01*
X022909Y015064D01*
X022909Y015481D01*
X022910Y015481D01*
X022910Y015482D01*
X022910Y015899D01*
X022993Y015899D01*
X022910Y015877D02*
X022909Y015877D01*
X022773Y015877D02*
X020510Y015877D01*
X020510Y015863D02*
X020510Y016499D01*
X020428Y016581D01*
X020300Y016581D01*
X020300Y016627D01*
X020336Y016642D01*
X020449Y016755D01*
X020510Y016902D01*
X020510Y017061D01*
X020449Y017208D01*
X020336Y017320D01*
X020189Y017381D01*
X020030Y017381D01*
X019883Y017320D01*
X019771Y017208D01*
X019755Y017171D01*
X019388Y017171D01*
X018877Y017682D01*
X018887Y017706D01*
X018887Y017857D01*
X018830Y017995D01*
X018724Y018102D01*
X018585Y018159D01*
X018434Y018159D01*
X018296Y018102D01*
X018189Y017995D01*
X018132Y017857D01*
X018132Y017706D01*
X018189Y017567D01*
X018296Y017461D01*
X018434Y017404D01*
X018585Y017404D01*
X018609Y017414D01*
X019231Y016791D01*
X019388Y016791D01*
X019755Y016791D01*
X019771Y016755D01*
X019883Y016642D01*
X019920Y016627D01*
X019920Y016581D01*
X019792Y016581D01*
X019710Y016499D01*
X019710Y015863D01*
X019792Y015781D01*
X020428Y015781D01*
X020510Y015863D01*
X019710Y015877D02*
X019371Y015877D01*
X019336Y015842D02*
X019449Y015955D01*
X019510Y016102D01*
X019510Y016261D01*
X019449Y016408D01*
X019336Y016520D01*
X019189Y016581D01*
X019030Y016581D01*
X018883Y016520D01*
X018771Y016408D01*
X018710Y016261D01*
X018710Y016102D01*
X018771Y015955D01*
X018883Y015842D01*
X019030Y015781D01*
X019189Y015781D01*
X019336Y015842D01*
X019482Y016036D02*
X019710Y016036D01*
X019710Y016194D02*
X019510Y016194D01*
X019472Y016353D02*
X019710Y016353D01*
X019722Y016511D02*
X019345Y016511D01*
X019194Y016828D02*
X017300Y016828D01*
X017300Y016670D02*
X019855Y016670D01*
X020364Y016670D02*
X022855Y016670D01*
X022740Y016828D02*
X020479Y016828D01*
X020510Y016987D02*
X022710Y016987D01*
X022745Y017146D02*
X020475Y017146D01*
X020353Y017304D02*
X022867Y017304D01*
X023353Y017304D02*
X023565Y017304D01*
X023723Y017463D02*
X019725Y017463D01*
X019867Y017304D02*
X019256Y017304D01*
X019294Y017463D02*
X019097Y017463D01*
X019167Y017621D02*
X018939Y017621D01*
X018887Y017780D02*
X019132Y017780D01*
X019166Y017938D02*
X018854Y017938D01*
X018728Y018097D02*
X019291Y018097D01*
X019728Y018097D02*
X021300Y018097D01*
X021300Y018255D02*
X017907Y018255D01*
X017749Y018097D02*
X018291Y018097D01*
X018166Y017938D02*
X017590Y017938D01*
X017432Y017780D02*
X018132Y017780D01*
X018167Y017621D02*
X017300Y017621D01*
X017300Y017463D02*
X018294Y017463D01*
X018718Y017304D02*
X017300Y017304D01*
X017300Y017146D02*
X018877Y017146D01*
X019035Y016987D02*
X017300Y016987D01*
X017345Y016511D02*
X017874Y016511D01*
X017883Y016520D02*
X017771Y016408D01*
X017710Y016261D01*
X017710Y016102D01*
X017771Y015955D01*
X017883Y015842D01*
X018030Y015781D01*
X018189Y015781D01*
X018336Y015842D01*
X018449Y015955D01*
X018510Y016102D01*
X018510Y016261D01*
X018449Y016408D01*
X018336Y016520D01*
X018189Y016581D01*
X018030Y016581D01*
X017883Y016520D01*
X017748Y016353D02*
X017472Y016353D01*
X017510Y016194D02*
X017710Y016194D01*
X017737Y016036D02*
X017482Y016036D01*
X017371Y015877D02*
X017848Y015877D01*
X018371Y015877D02*
X018848Y015877D01*
X018737Y016036D02*
X018482Y016036D01*
X018510Y016194D02*
X018710Y016194D01*
X018748Y016353D02*
X018472Y016353D01*
X018345Y016511D02*
X018874Y016511D01*
X020498Y016511D02*
X023350Y016511D01*
X023350Y016353D02*
X020510Y016353D01*
X021518Y017621D02*
X023882Y017621D01*
X023490Y017780D02*
X023129Y017780D01*
X023261Y017938D02*
X023358Y017938D01*
X023354Y018414D02*
X023265Y018414D01*
X023140Y018572D02*
X023479Y018572D01*
X022479Y018572D02*
X022140Y018572D01*
X022265Y018414D02*
X022354Y018414D01*
X022358Y017938D02*
X022261Y017938D01*
X022129Y017780D02*
X022490Y017780D01*
X021354Y018414D02*
X018066Y018414D01*
X018224Y018572D02*
X018353Y018572D01*
X018572Y018572D02*
X019353Y018572D01*
X019572Y018572D02*
X020248Y018572D01*
X020442Y018572D02*
X020482Y018572D01*
X020482Y018731D02*
X020442Y018731D01*
X020442Y018890D02*
X020482Y018890D01*
X020482Y019048D02*
X020442Y019048D01*
X020442Y019207D02*
X020482Y019207D01*
X020482Y019365D02*
X020442Y019365D01*
X020442Y019524D02*
X020482Y019524D01*
X020795Y019524D02*
X032489Y019524D01*
X032331Y019365D02*
X020939Y019365D01*
X020129Y019524D02*
X019721Y019524D01*
X019896Y019365D02*
X019986Y019365D01*
X019946Y018890D02*
X019936Y018890D01*
X020033Y018731D02*
X019836Y018731D01*
X019089Y018731D02*
X018836Y018731D01*
X018936Y018890D02*
X018989Y018890D01*
X018961Y019207D02*
X018963Y019207D01*
X018896Y019365D02*
X019029Y019365D01*
X019203Y019524D02*
X018721Y019524D01*
X018203Y019524D02*
X017721Y019524D01*
X017896Y019365D02*
X018029Y019365D01*
X017963Y019207D02*
X017961Y019207D01*
X017203Y019524D02*
X016721Y019524D01*
X016896Y019365D02*
X017029Y019365D01*
X016963Y019207D02*
X016961Y019207D01*
X016936Y018890D02*
X016989Y018890D01*
X016891Y018731D02*
X016836Y018731D01*
X016732Y018572D02*
X016572Y018572D01*
X016573Y018414D02*
X016066Y018414D01*
X016224Y018572D02*
X016353Y018572D01*
X015989Y018890D02*
X015936Y018890D01*
X015846Y018731D02*
X015836Y018731D01*
X015687Y018572D02*
X015572Y018572D01*
X015529Y018414D02*
X010066Y018414D01*
X010224Y018572D02*
X010353Y018572D01*
X010572Y018572D02*
X011353Y018572D01*
X011572Y018572D02*
X012353Y018572D01*
X012572Y018572D02*
X013353Y018572D01*
X013572Y018572D02*
X014353Y018572D01*
X014572Y018572D02*
X015353Y018572D01*
X015089Y018731D02*
X014836Y018731D01*
X014936Y018890D02*
X014989Y018890D01*
X014961Y019207D02*
X014963Y019207D01*
X014896Y019365D02*
X015029Y019365D01*
X015203Y019524D02*
X014721Y019524D01*
X014203Y019524D02*
X013721Y019524D01*
X013896Y019365D02*
X014029Y019365D01*
X013962Y019207D02*
X013963Y019207D01*
X013936Y018890D02*
X013989Y018890D01*
X014089Y018731D02*
X013836Y018731D01*
X013089Y018731D02*
X012836Y018731D01*
X012936Y018890D02*
X012989Y018890D01*
X012961Y019207D02*
X012963Y019207D01*
X012896Y019365D02*
X013029Y019365D01*
X013203Y019524D02*
X012721Y019524D01*
X012203Y019524D02*
X011721Y019524D01*
X011896Y019365D02*
X012029Y019365D01*
X011963Y019207D02*
X011961Y019207D01*
X011936Y018890D02*
X011989Y018890D01*
X012089Y018731D02*
X011836Y018731D01*
X011089Y018731D02*
X010836Y018731D01*
X010936Y018890D02*
X010989Y018890D01*
X010961Y019207D02*
X010963Y019207D01*
X010896Y019365D02*
X011029Y019365D01*
X011203Y019524D02*
X010721Y019524D01*
X010203Y019524D02*
X009795Y019524D01*
X009939Y019365D02*
X010029Y019365D01*
X009482Y019365D02*
X009442Y019365D01*
X009442Y019207D02*
X009482Y019207D01*
X009482Y019048D02*
X009442Y019048D01*
X009442Y018890D02*
X009482Y018890D01*
X009482Y018731D02*
X009442Y018731D01*
X009442Y018572D02*
X009482Y018572D01*
X009529Y018414D02*
X008066Y018414D01*
X008224Y018572D02*
X008353Y018572D01*
X008572Y018572D02*
X009248Y018572D01*
X009033Y018731D02*
X008836Y018731D01*
X008936Y018890D02*
X008946Y018890D01*
X009676Y018572D02*
X009687Y018572D01*
X009907Y018255D02*
X015520Y018255D01*
X015520Y018097D02*
X009749Y018097D01*
X009590Y017938D02*
X015520Y017938D01*
X015520Y017780D02*
X013132Y017780D01*
X013098Y017814D02*
X012911Y017891D01*
X012708Y017891D01*
X012521Y017814D01*
X012377Y017670D01*
X012331Y017559D01*
X012276Y017693D01*
X012121Y017848D01*
X011919Y017931D01*
X011810Y017931D01*
X011810Y017382D01*
X011809Y017382D01*
X011809Y017931D01*
X011700Y017931D01*
X011498Y017848D01*
X011343Y017693D01*
X011288Y017559D01*
X011242Y017670D01*
X011098Y017814D01*
X010911Y017891D01*
X010708Y017891D01*
X010521Y017814D01*
X010377Y017670D01*
X010300Y017483D01*
X010300Y017280D01*
X010377Y017093D01*
X010521Y016949D01*
X010708Y016871D01*
X010911Y016871D01*
X010920Y016875D01*
X010920Y016536D01*
X010883Y016520D01*
X010771Y016408D01*
X010710Y016261D01*
X010710Y016102D01*
X010771Y015955D01*
X010883Y015842D01*
X011030Y015781D01*
X011189Y015781D01*
X011336Y015842D01*
X011449Y015955D01*
X011510Y016102D01*
X011510Y016261D01*
X011449Y016408D01*
X011336Y016520D01*
X011300Y016536D01*
X011300Y017003D01*
X011300Y017160D01*
X011279Y017181D01*
X011288Y017204D01*
X011343Y017070D01*
X011498Y016915D01*
X011700Y016831D01*
X011809Y016831D01*
X011809Y017381D01*
X011810Y017381D01*
X011810Y016831D01*
X011919Y016831D01*
X012042Y016882D01*
X011920Y016760D01*
X011920Y016603D01*
X011920Y016536D01*
X011883Y016520D01*
X011771Y016408D01*
X011710Y016261D01*
X011710Y016102D01*
X011771Y015955D01*
X011883Y015842D01*
X012030Y015781D01*
X012189Y015781D01*
X012336Y015842D01*
X012449Y015955D01*
X012510Y016102D01*
X012510Y016261D01*
X012449Y016408D01*
X012336Y016520D01*
X012300Y016536D01*
X012300Y016603D01*
X012609Y016912D01*
X012708Y016871D01*
X012911Y016871D01*
X013098Y016949D01*
X013242Y017093D01*
X013320Y017280D01*
X013320Y017483D01*
X013242Y017670D01*
X013098Y017814D01*
X013262Y017621D02*
X015520Y017621D01*
X015519Y017463D02*
X015520Y017463D01*
X015210Y017463D02*
X015209Y017463D01*
X015209Y017304D02*
X015210Y017304D01*
X015209Y017146D02*
X015210Y017146D01*
X015209Y016987D02*
X015210Y016987D01*
X015209Y016828D02*
X015210Y016828D01*
X015329Y016670D02*
X014330Y016670D01*
X014345Y016828D02*
X014972Y016828D01*
X014838Y016987D02*
X014538Y016987D01*
X014587Y017146D02*
X014792Y017146D01*
X014808Y017304D02*
X014568Y017304D01*
X014463Y017463D02*
X014900Y017463D01*
X014210Y017181D02*
X014110Y017081D01*
X014110Y016181D01*
X014482Y016036D02*
X014737Y016036D01*
X014710Y016194D02*
X014510Y016194D01*
X014472Y016353D02*
X014748Y016353D01*
X014874Y016511D02*
X014345Y016511D01*
X013874Y016511D02*
X013402Y016511D01*
X013359Y016554D02*
X013483Y016431D01*
X013550Y016269D01*
X013550Y016182D01*
X013110Y016182D01*
X013109Y016182D01*
X013109Y016621D01*
X013022Y016621D01*
X012860Y016554D01*
X012737Y016431D01*
X012670Y016269D01*
X012670Y016182D01*
X013109Y016182D01*
X013109Y016181D01*
X012670Y016181D01*
X012670Y016094D01*
X012737Y015932D01*
X012860Y015808D01*
X013022Y015741D01*
X013109Y015741D01*
X013109Y016181D01*
X013110Y016181D01*
X013110Y016182D01*
X013110Y016621D01*
X013197Y016621D01*
X013359Y016554D01*
X013110Y016511D02*
X013109Y016511D01*
X013109Y016353D02*
X013110Y016353D01*
X013109Y016194D02*
X013110Y016194D01*
X013110Y016181D02*
X013550Y016181D01*
X013550Y016094D01*
X013483Y015932D01*
X013359Y015808D01*
X013197Y015741D01*
X013110Y015741D01*
X013110Y016181D01*
X013109Y016036D02*
X013110Y016036D01*
X013109Y015877D02*
X013110Y015877D01*
X013279Y015719D02*
X004415Y015719D01*
X004573Y015877D02*
X006848Y015877D01*
X006737Y016036D02*
X004732Y016036D01*
X004890Y016194D02*
X006710Y016194D01*
X006748Y016353D02*
X005049Y016353D01*
X005207Y016511D02*
X006874Y016511D01*
X006920Y016670D02*
X005366Y016670D01*
X005524Y016828D02*
X006920Y016828D01*
X006920Y016987D02*
X005683Y016987D01*
X005841Y017146D02*
X006920Y017146D01*
X006920Y017304D02*
X006000Y017304D01*
X006159Y017463D02*
X006920Y017463D01*
X006920Y017621D02*
X006317Y017621D01*
X006476Y017780D02*
X006920Y017780D01*
X007053Y017938D02*
X006632Y017938D01*
X006670Y018097D02*
X007211Y018097D01*
X007370Y018255D02*
X006670Y018255D01*
X006670Y018414D02*
X007529Y018414D01*
X007572Y018572D02*
X007687Y018572D01*
X007836Y018731D02*
X007846Y018731D01*
X007936Y018890D02*
X007989Y018890D01*
X007961Y019207D02*
X007963Y019207D01*
X007896Y019365D02*
X008029Y019365D01*
X008203Y019524D02*
X007721Y019524D01*
X007203Y019524D02*
X006721Y019524D01*
X006896Y019365D02*
X007029Y019365D01*
X006963Y019207D02*
X006961Y019207D01*
X006936Y018890D02*
X006989Y018890D01*
X007089Y018731D02*
X006836Y018731D01*
X006670Y018572D02*
X007353Y018572D01*
X007907Y018255D02*
X009370Y018255D01*
X009211Y018097D02*
X007749Y018097D01*
X007590Y017938D02*
X009053Y017938D01*
X008894Y017780D02*
X007432Y017780D01*
X007300Y017621D02*
X008736Y017621D01*
X008577Y017463D02*
X007300Y017463D01*
X007300Y017304D02*
X008419Y017304D01*
X008260Y017146D02*
X007300Y017146D01*
X007300Y016987D02*
X008102Y016987D01*
X007943Y016828D02*
X007300Y016828D01*
X007300Y016670D02*
X007920Y016670D01*
X007874Y016511D02*
X007345Y016511D01*
X007472Y016353D02*
X007748Y016353D01*
X007710Y016194D02*
X007510Y016194D01*
X007482Y016036D02*
X007737Y016036D01*
X007848Y015877D02*
X007371Y015877D01*
X008371Y015877D02*
X008848Y015877D01*
X008883Y015842D02*
X009030Y015781D01*
X009189Y015781D01*
X009336Y015842D01*
X009449Y015955D01*
X009510Y016102D01*
X009510Y016261D01*
X009449Y016408D01*
X009336Y016520D01*
X009189Y016581D01*
X009030Y016581D01*
X008883Y016520D01*
X008771Y016408D01*
X008710Y016261D01*
X008710Y016102D01*
X008771Y015955D01*
X008883Y015842D01*
X008737Y016036D02*
X008482Y016036D01*
X008510Y016194D02*
X008710Y016194D01*
X008748Y016353D02*
X008472Y016353D01*
X008345Y016511D02*
X008874Y016511D01*
X008480Y016828D02*
X010920Y016828D01*
X010920Y016670D02*
X008322Y016670D01*
X008639Y016987D02*
X010483Y016987D01*
X010355Y017146D02*
X008798Y017146D01*
X008956Y017304D02*
X010300Y017304D01*
X010300Y017463D02*
X009115Y017463D01*
X009273Y017621D02*
X010357Y017621D01*
X010487Y017780D02*
X009432Y017780D01*
X011132Y017780D02*
X011430Y017780D01*
X011314Y017621D02*
X011262Y017621D01*
X011300Y017146D02*
X011312Y017146D01*
X011300Y016987D02*
X011426Y016987D01*
X011300Y016828D02*
X011988Y016828D01*
X011920Y016670D02*
X011300Y016670D01*
X011345Y016511D02*
X011874Y016511D01*
X011748Y016353D02*
X011472Y016353D01*
X011510Y016194D02*
X011710Y016194D01*
X011737Y016036D02*
X011482Y016036D01*
X011371Y015877D02*
X011848Y015877D01*
X012371Y015877D02*
X012792Y015877D01*
X012694Y016036D02*
X012482Y016036D01*
X012510Y016194D02*
X012670Y016194D01*
X012704Y016353D02*
X012472Y016353D01*
X012345Y016511D02*
X012817Y016511D01*
X012525Y016828D02*
X013890Y016828D01*
X013890Y016670D02*
X012367Y016670D01*
X011810Y016987D02*
X011809Y016987D01*
X011809Y017146D02*
X011810Y017146D01*
X011809Y017304D02*
X011810Y017304D01*
X011809Y017463D02*
X011810Y017463D01*
X011809Y017621D02*
X011810Y017621D01*
X011809Y017780D02*
X011810Y017780D01*
X012189Y017780D02*
X012487Y017780D01*
X012357Y017621D02*
X012306Y017621D01*
X013320Y017463D02*
X013957Y017463D01*
X013852Y017304D02*
X013320Y017304D01*
X013264Y017146D02*
X013832Y017146D01*
X013881Y016987D02*
X013136Y016987D01*
X013515Y016353D02*
X013748Y016353D01*
X013710Y016194D02*
X013550Y016194D01*
X013525Y016036D02*
X013596Y016036D01*
X013438Y015877D02*
X013428Y015877D01*
X013121Y015560D02*
X004256Y015560D01*
X004097Y015402D02*
X012962Y015402D01*
X012804Y015243D02*
X003939Y015243D01*
X003780Y015084D02*
X012645Y015084D01*
X012486Y014926D02*
X003622Y014926D01*
X003507Y014767D02*
X012328Y014767D01*
X012169Y014609D02*
X003650Y014609D01*
X003808Y014450D02*
X012011Y014450D01*
X012429Y014133D02*
X016420Y014133D01*
X016420Y013975D02*
X012370Y013975D01*
X012370Y013816D02*
X016420Y013816D01*
X016420Y013658D02*
X012370Y013658D01*
X012370Y013499D02*
X012862Y013499D01*
X012883Y013520D02*
X012771Y013408D01*
X012710Y013261D01*
X012710Y013102D01*
X012771Y012955D01*
X012883Y012842D01*
X013030Y012781D01*
X013189Y012781D01*
X013336Y012842D01*
X013449Y012955D01*
X013510Y013102D01*
X013510Y013261D01*
X013449Y013408D01*
X013336Y013520D01*
X013189Y013581D01*
X013030Y013581D01*
X012883Y013520D01*
X012743Y013341D02*
X012477Y013341D01*
X012510Y013182D02*
X012710Y013182D01*
X012742Y013023D02*
X012635Y013023D01*
X012794Y012865D02*
X012860Y012865D01*
X012952Y012706D02*
X020367Y012706D01*
X020336Y012842D02*
X020449Y012955D01*
X020510Y013102D01*
X020510Y013261D01*
X020449Y013408D01*
X020336Y013520D01*
X020189Y013581D01*
X020030Y013581D01*
X019883Y013520D01*
X019771Y013408D01*
X019710Y013261D01*
X019710Y013102D01*
X019771Y012955D01*
X019883Y012842D01*
X020030Y012781D01*
X020189Y012781D01*
X020336Y012842D01*
X020359Y012865D02*
X020525Y012865D01*
X020477Y013023D02*
X020684Y013023D01*
X020842Y013182D02*
X020510Y013182D01*
X020477Y013341D02*
X021001Y013341D01*
X021160Y013499D02*
X020358Y013499D01*
X019862Y013499D02*
X019358Y013499D01*
X019336Y013520D02*
X019189Y013581D01*
X019030Y013581D01*
X018883Y013520D01*
X018771Y013408D01*
X018710Y013261D01*
X018710Y013102D01*
X018771Y012955D01*
X018883Y012842D01*
X019030Y012781D01*
X019189Y012781D01*
X019336Y012842D01*
X019449Y012955D01*
X019510Y013102D01*
X019510Y013261D01*
X019449Y013408D01*
X019336Y013520D01*
X019477Y013341D02*
X019743Y013341D01*
X019710Y013182D02*
X019510Y013182D01*
X019477Y013023D02*
X019742Y013023D01*
X019860Y012865D02*
X019359Y012865D01*
X018860Y012865D02*
X018359Y012865D01*
X018336Y012842D02*
X018449Y012955D01*
X018510Y013102D01*
X018510Y013261D01*
X018449Y013408D01*
X018336Y013520D01*
X018189Y013581D01*
X018030Y013581D01*
X017883Y013520D01*
X017771Y013408D01*
X017710Y013261D01*
X017710Y013102D01*
X017771Y012955D01*
X017883Y012842D01*
X018030Y012781D01*
X018189Y012781D01*
X018336Y012842D01*
X018477Y013023D02*
X018742Y013023D01*
X018710Y013182D02*
X018510Y013182D01*
X018477Y013341D02*
X018743Y013341D01*
X018862Y013499D02*
X018358Y013499D01*
X017862Y013499D02*
X017358Y013499D01*
X017477Y013341D02*
X017743Y013341D01*
X017710Y013182D02*
X017510Y013182D01*
X017477Y013023D02*
X017742Y013023D01*
X017860Y012865D02*
X017359Y012865D01*
X016860Y012865D02*
X016359Y012865D01*
X016336Y012842D02*
X016449Y012955D01*
X016510Y013102D01*
X016510Y013261D01*
X016449Y013408D01*
X016336Y013520D01*
X016189Y013581D01*
X016030Y013581D01*
X015883Y013520D01*
X015771Y013408D01*
X015710Y013261D01*
X015710Y013102D01*
X015771Y012955D01*
X015883Y012842D01*
X016030Y012781D01*
X016189Y012781D01*
X016336Y012842D01*
X016477Y013023D02*
X016742Y013023D01*
X016710Y013182D02*
X016510Y013182D01*
X016477Y013341D02*
X016682Y013341D01*
X016523Y013499D02*
X016358Y013499D01*
X015862Y013499D02*
X015358Y013499D01*
X015336Y013520D02*
X015189Y013581D01*
X015030Y013581D01*
X014883Y013520D01*
X014771Y013408D01*
X014710Y013261D01*
X014710Y013102D01*
X014771Y012955D01*
X014883Y012842D01*
X015030Y012781D01*
X015189Y012781D01*
X015336Y012842D01*
X015449Y012955D01*
X015510Y013102D01*
X015510Y013261D01*
X015449Y013408D01*
X015336Y013520D01*
X015477Y013341D02*
X015743Y013341D01*
X015710Y013182D02*
X015510Y013182D01*
X015477Y013023D02*
X015742Y013023D01*
X015860Y012865D02*
X015359Y012865D01*
X014860Y012865D02*
X014415Y012865D01*
X014359Y012808D02*
X014483Y012932D01*
X014550Y013094D01*
X014550Y013181D01*
X014110Y013181D01*
X014110Y013182D01*
X014109Y013182D01*
X014109Y013621D01*
X014022Y013621D01*
X013860Y013554D01*
X013737Y013431D01*
X013670Y013269D01*
X013670Y013182D01*
X013510Y013182D01*
X013670Y013181D02*
X013670Y013094D01*
X013737Y012932D01*
X013860Y012808D01*
X014022Y012741D01*
X014109Y012741D01*
X014109Y013181D01*
X013670Y013181D01*
X013670Y013182D02*
X014109Y013182D01*
X014110Y013182D01*
X014110Y013621D01*
X014197Y013621D01*
X014359Y013554D01*
X014483Y013431D01*
X014550Y013269D01*
X014550Y013182D01*
X014710Y013182D01*
X014550Y013182D02*
X014110Y013182D01*
X014109Y013182D02*
X014109Y013181D01*
X014110Y013181D01*
X014110Y012741D01*
X014197Y012741D01*
X014359Y012808D01*
X014110Y012865D02*
X014109Y012865D01*
X014109Y013023D02*
X014110Y013023D01*
X013804Y012865D02*
X013359Y012865D01*
X013477Y013023D02*
X013699Y013023D01*
X013699Y013341D02*
X013477Y013341D01*
X013358Y013499D02*
X013805Y013499D01*
X014109Y013499D02*
X014110Y013499D01*
X014109Y013341D02*
X014110Y013341D01*
X014414Y013499D02*
X014862Y013499D01*
X014743Y013341D02*
X014520Y013341D01*
X014520Y013023D02*
X014742Y013023D01*
X013269Y012389D02*
X017083Y012389D01*
X017536Y012389D02*
X018027Y012389D01*
X018073Y012436D02*
X017955Y012318D01*
X017892Y012165D01*
X017892Y012082D01*
X018309Y012082D01*
X018309Y012499D01*
X018226Y012499D01*
X018073Y012436D01*
X018309Y012389D02*
X018310Y012389D01*
X018310Y012499D02*
X018310Y012082D01*
X018309Y012082D01*
X018309Y012081D01*
X017892Y012081D01*
X017892Y011998D01*
X017955Y011845D01*
X018073Y011727D01*
X018226Y011664D01*
X018309Y011664D01*
X018309Y012081D01*
X018310Y012081D01*
X018310Y012082D01*
X018727Y012082D01*
X018727Y012165D01*
X018664Y012318D01*
X018546Y012436D01*
X018393Y012499D01*
X018310Y012499D01*
X018593Y012389D02*
X020050Y012389D01*
X019891Y012231D02*
X018700Y012231D01*
X018727Y012081D02*
X018310Y012081D01*
X018310Y011664D01*
X018393Y011664D01*
X018546Y011727D01*
X018664Y011845D01*
X018727Y011998D01*
X018727Y012081D01*
X018727Y012072D02*
X019733Y012072D01*
X020151Y011755D02*
X025315Y011755D01*
X025236Y011942D02*
X025349Y012055D01*
X025410Y012202D01*
X025410Y012361D01*
X025349Y012508D01*
X025236Y012620D01*
X025089Y012681D01*
X024930Y012681D01*
X024783Y012620D01*
X024671Y012508D01*
X024610Y012361D01*
X024610Y012202D01*
X024671Y012055D01*
X024783Y011942D01*
X024930Y011881D01*
X025089Y011881D01*
X025236Y011942D01*
X025167Y011914D02*
X025473Y011914D01*
X025356Y012072D02*
X025632Y012072D01*
X025790Y012231D02*
X025410Y012231D01*
X025398Y012389D02*
X025949Y012389D01*
X026107Y012548D02*
X025309Y012548D01*
X024710Y012548D02*
X022974Y012548D01*
X022974Y012706D02*
X026266Y012706D01*
X026424Y012865D02*
X022911Y012865D01*
X022892Y012883D02*
X022974Y012801D01*
X022974Y012036D01*
X022892Y011954D01*
X022127Y011954D01*
X022045Y012036D01*
X022045Y012801D01*
X022127Y012883D01*
X022892Y012883D01*
X022108Y012865D02*
X021261Y012865D01*
X021419Y013023D02*
X026583Y013023D01*
X026645Y012548D02*
X027710Y012548D01*
X027671Y012508D02*
X027610Y012361D01*
X027610Y012202D01*
X027671Y012055D01*
X027783Y011942D01*
X027930Y011881D01*
X028089Y011881D01*
X028236Y011942D01*
X028349Y012055D01*
X028410Y012202D01*
X028410Y012361D01*
X028349Y012508D01*
X028236Y012620D01*
X028089Y012681D01*
X027930Y012681D01*
X027783Y012620D01*
X027671Y012508D01*
X027621Y012389D02*
X026486Y012389D01*
X026328Y012231D02*
X027610Y012231D01*
X027663Y012072D02*
X026169Y012072D01*
X026010Y011914D02*
X027852Y011914D01*
X028167Y011914D02*
X028670Y011914D01*
X028670Y011894D02*
X028737Y011732D01*
X028860Y011608D01*
X029022Y011541D01*
X029109Y011541D01*
X029109Y011981D01*
X028670Y011981D01*
X028670Y011894D01*
X028670Y011982D02*
X029109Y011982D01*
X029109Y012421D01*
X029022Y012421D01*
X028860Y012354D01*
X028737Y012231D01*
X028410Y012231D01*
X028398Y012389D02*
X028944Y012389D01*
X029109Y012389D02*
X029110Y012389D01*
X029110Y012421D02*
X029110Y011982D01*
X029109Y011982D01*
X029109Y011981D01*
X029110Y011981D01*
X029110Y011982D01*
X029550Y011982D01*
X029550Y012069D01*
X029483Y012231D01*
X029793Y012231D01*
X029714Y012072D02*
X029548Y012072D01*
X029550Y011981D02*
X029110Y011981D01*
X029110Y011541D01*
X029197Y011541D01*
X029359Y011608D01*
X029483Y011732D01*
X029550Y011894D01*
X029550Y011981D01*
X029550Y011914D02*
X029710Y011914D01*
X029770Y011755D02*
X029492Y011755D01*
X029330Y011597D02*
X029994Y011597D01*
X030226Y011597D02*
X030356Y011597D01*
X030576Y011279D02*
X031239Y011279D01*
X031080Y011121D02*
X030418Y011121D01*
X030388Y011091D02*
X030688Y011391D01*
X030800Y011503D01*
X030800Y011581D01*
X031428Y011581D01*
X031510Y011663D01*
X031510Y012299D01*
X031428Y012381D01*
X030878Y012381D01*
X030988Y012491D01*
X031760Y012491D01*
X031760Y012201D01*
X032289Y012201D01*
X032289Y012161D01*
X031760Y012161D01*
X031760Y011800D01*
X031720Y011760D01*
X030420Y010460D01*
X030420Y010303D01*
X030420Y009937D01*
X030336Y010020D01*
X030189Y010081D01*
X030030Y010081D01*
X029883Y010020D01*
X029771Y009908D01*
X029710Y009761D01*
X029710Y009602D01*
X029771Y009455D01*
X029883Y009342D01*
X030030Y009281D01*
X030141Y009281D01*
X029731Y008871D01*
X027431Y008871D01*
X027320Y008760D01*
X026373Y007813D01*
X026410Y007902D01*
X026410Y008061D01*
X026394Y008098D01*
X027188Y008891D01*
X028231Y008891D01*
X028388Y008891D01*
X028688Y009191D01*
X028800Y009303D01*
X028800Y009369D01*
X028860Y009308D01*
X029022Y009241D01*
X029109Y009241D01*
X029109Y009681D01*
X029110Y009681D01*
X029110Y009682D01*
X029109Y009682D01*
X029109Y010121D01*
X029022Y010121D01*
X028860Y010054D01*
X028800Y009994D01*
X028800Y010103D01*
X029788Y011091D01*
X030231Y011091D01*
X030388Y011091D01*
X030735Y011438D02*
X031397Y011438D01*
X031443Y011597D02*
X031556Y011597D01*
X031510Y011755D02*
X031715Y011755D01*
X031760Y011914D02*
X031510Y011914D01*
X031510Y012072D02*
X031760Y012072D01*
X031760Y012231D02*
X031510Y012231D01*
X031760Y012389D02*
X030886Y012389D01*
X030507Y012548D02*
X028309Y012548D01*
X028356Y012072D02*
X028671Y012072D01*
X028670Y012069D02*
X028670Y011982D01*
X028670Y012069D02*
X028737Y012231D01*
X029109Y012231D02*
X029110Y012231D01*
X029109Y012072D02*
X029110Y012072D01*
X029109Y011914D02*
X029110Y011914D01*
X029109Y011755D02*
X029110Y011755D01*
X029109Y011597D02*
X029110Y011597D01*
X028889Y011597D02*
X025693Y011597D01*
X025852Y011755D02*
X028727Y011755D01*
X028349Y011408D02*
X028236Y011520D01*
X028089Y011581D01*
X027930Y011581D01*
X027783Y011520D01*
X027671Y011408D01*
X027610Y011261D01*
X027610Y011102D01*
X027671Y010955D01*
X027783Y010842D01*
X027930Y010781D01*
X028089Y010781D01*
X028236Y010842D01*
X028349Y010955D01*
X028410Y011102D01*
X028410Y011261D01*
X028349Y011408D01*
X028319Y011438D02*
X029597Y011438D01*
X029439Y011279D02*
X028402Y011279D01*
X028410Y011121D02*
X029280Y011121D01*
X029122Y010962D02*
X028352Y010962D01*
X028143Y010804D02*
X028963Y010804D01*
X028805Y010645D02*
X018549Y010645D01*
X018602Y010519D02*
X018602Y010082D01*
X018601Y010082D01*
X018601Y010081D01*
X018164Y010081D01*
X018164Y009994D01*
X018231Y009834D01*
X018354Y009711D01*
X018515Y009644D01*
X018601Y009644D01*
X018601Y010081D01*
X018602Y010081D01*
X018602Y009644D01*
X018689Y009644D01*
X018850Y009711D01*
X018973Y009834D01*
X019039Y009994D01*
X019039Y010081D01*
X018602Y010081D01*
X018602Y010082D01*
X019039Y010082D01*
X019039Y010168D01*
X018973Y010329D01*
X018850Y010452D01*
X018689Y010519D01*
X018602Y010519D01*
X018601Y010487D02*
X018602Y010487D01*
X018601Y010328D02*
X018602Y010328D01*
X018601Y010170D02*
X018602Y010170D01*
X018601Y010011D02*
X018602Y010011D01*
X018601Y009853D02*
X018602Y009853D01*
X018601Y009694D02*
X018602Y009694D01*
X018810Y009694D02*
X025570Y009694D01*
X025570Y009682D02*
X026009Y009682D01*
X026009Y010121D01*
X025922Y010121D01*
X025760Y010054D01*
X025637Y009931D01*
X025570Y009769D01*
X025570Y009682D01*
X025570Y009681D02*
X025570Y009594D01*
X025637Y009432D01*
X025760Y009308D01*
X025922Y009241D01*
X026009Y009241D01*
X026009Y009681D01*
X025570Y009681D01*
X025594Y009535D02*
X017870Y009535D01*
X017870Y009377D02*
X025692Y009377D01*
X026009Y009377D02*
X026010Y009377D01*
X026010Y009241D02*
X026097Y009241D01*
X026259Y009308D01*
X026383Y009432D01*
X026450Y009594D01*
X026450Y009681D01*
X026010Y009681D01*
X026010Y009682D01*
X026009Y009682D01*
X026009Y009681D01*
X026010Y009681D01*
X026010Y009241D01*
X026327Y009377D02*
X026748Y009377D01*
X026783Y009342D02*
X026671Y009455D01*
X026610Y009602D01*
X026610Y009761D01*
X026671Y009908D01*
X026783Y010020D01*
X026930Y010081D01*
X027089Y010081D01*
X027236Y010020D01*
X027349Y009908D01*
X027410Y009761D01*
X027410Y009602D01*
X027349Y009455D01*
X027236Y009342D01*
X027089Y009281D01*
X026930Y009281D01*
X026783Y009342D01*
X026978Y009218D02*
X017870Y009218D01*
X017870Y009060D02*
X026819Y009060D01*
X026661Y008901D02*
X022994Y008901D01*
X023014Y008881D02*
X022909Y008986D01*
X022538Y008986D01*
X022538Y008510D01*
X022481Y008510D01*
X022481Y008986D01*
X022110Y008986D01*
X022005Y008881D01*
X022005Y008510D01*
X022481Y008510D01*
X022481Y008453D01*
X022005Y008453D01*
X022005Y008082D01*
X022110Y007977D01*
X022481Y007977D01*
X022481Y008453D01*
X022538Y008453D01*
X022538Y008510D01*
X023014Y008510D01*
X023014Y008881D01*
X023014Y008743D02*
X026502Y008743D01*
X026344Y008584D02*
X023014Y008584D01*
X023014Y008453D02*
X022538Y008453D01*
X022538Y007977D01*
X022909Y007977D01*
X023014Y008082D01*
X023014Y008453D01*
X023014Y008426D02*
X026185Y008426D01*
X026405Y008109D02*
X026668Y008109D01*
X026564Y008267D02*
X026827Y008267D01*
X026723Y008426D02*
X026985Y008426D01*
X026881Y008584D02*
X027144Y008584D01*
X027040Y008743D02*
X027302Y008743D01*
X027523Y008426D02*
X031859Y008426D01*
X031800Y008267D02*
X029290Y008267D01*
X029236Y008320D02*
X029089Y008381D01*
X028930Y008381D01*
X028783Y008320D01*
X028671Y008208D01*
X028610Y008061D01*
X028610Y007902D01*
X028671Y007755D01*
X028783Y007642D01*
X028930Y007581D01*
X029089Y007581D01*
X029236Y007642D01*
X029349Y007755D01*
X029410Y007902D01*
X029410Y008061D01*
X029349Y008208D01*
X029236Y008320D01*
X029390Y008109D02*
X031800Y008109D01*
X031853Y007950D02*
X029410Y007950D01*
X029364Y007791D02*
X031978Y007791D01*
X032250Y007633D02*
X029214Y007633D01*
X029209Y007521D02*
X029122Y007521D01*
X028960Y007454D01*
X028837Y007331D01*
X028770Y007169D01*
X028770Y007082D01*
X029209Y007082D01*
X029209Y007521D01*
X029210Y007521D02*
X029210Y007082D01*
X029209Y007082D01*
X029209Y007081D01*
X028770Y007081D01*
X028770Y006994D01*
X028837Y006832D01*
X028960Y006708D01*
X029122Y006641D01*
X029209Y006641D01*
X029209Y007081D01*
X029210Y007081D01*
X029210Y007082D01*
X029650Y007082D01*
X029650Y007169D01*
X029583Y007331D01*
X029459Y007454D01*
X029297Y007521D01*
X029210Y007521D01*
X029209Y007474D02*
X029210Y007474D01*
X029209Y007316D02*
X029210Y007316D01*
X029209Y007157D02*
X029210Y007157D01*
X029210Y007081D02*
X029650Y007081D01*
X029650Y006994D01*
X029583Y006832D01*
X029459Y006708D01*
X029297Y006641D01*
X029210Y006641D01*
X029210Y007081D01*
X029209Y006999D02*
X029210Y006999D01*
X029209Y006840D02*
X029210Y006840D01*
X029209Y006682D02*
X029210Y006682D01*
X029394Y006682D02*
X030129Y006682D01*
X030130Y006681D02*
X030289Y006681D01*
X030436Y006742D01*
X030549Y006855D01*
X030610Y007002D01*
X030610Y007161D01*
X030549Y007308D01*
X030436Y007420D01*
X030289Y007481D01*
X030130Y007481D01*
X029983Y007420D01*
X029871Y007308D01*
X029810Y007161D01*
X029810Y007002D01*
X029871Y006855D01*
X029983Y006742D01*
X030130Y006681D01*
X030290Y006682D02*
X030891Y006682D01*
X030892Y006681D02*
X030810Y006763D01*
X030810Y007399D01*
X030892Y007481D01*
X031528Y007481D01*
X031610Y007399D01*
X031610Y006763D01*
X031528Y006681D01*
X030892Y006681D01*
X030810Y006840D02*
X030534Y006840D01*
X030608Y006999D02*
X030810Y006999D01*
X030810Y007157D02*
X030610Y007157D01*
X030541Y007316D02*
X030810Y007316D01*
X030885Y007474D02*
X030306Y007474D01*
X030113Y007474D02*
X029411Y007474D01*
X029589Y007316D02*
X029878Y007316D01*
X029810Y007157D02*
X029650Y007157D01*
X029650Y006999D02*
X029811Y006999D01*
X029885Y006840D02*
X029586Y006840D01*
X029025Y006682D02*
X028801Y006682D01*
X028810Y006661D02*
X028749Y006808D01*
X028636Y006920D01*
X028489Y006981D01*
X028330Y006981D01*
X028183Y006920D01*
X028071Y006808D01*
X028010Y006661D01*
X028010Y006502D01*
X028071Y006355D01*
X028183Y006242D01*
X028330Y006181D01*
X028489Y006181D01*
X028636Y006242D01*
X028749Y006355D01*
X028810Y006502D01*
X028810Y006661D01*
X028810Y006523D02*
X031890Y006523D01*
X031890Y006365D02*
X028753Y006365D01*
X028549Y006206D02*
X031823Y006206D01*
X031665Y006048D02*
X019055Y006048D01*
X018896Y006206D02*
X025271Y006206D01*
X025066Y006365D02*
X018737Y006365D01*
X018579Y006523D02*
X025010Y006523D01*
X025018Y006682D02*
X018379Y006682D01*
X018197Y006936D02*
X018110Y006936D01*
X018110Y007373D01*
X018109Y007373D01*
X017672Y007373D01*
X017672Y007286D01*
X017739Y007126D01*
X017862Y007003D01*
X018023Y006936D01*
X018109Y006936D01*
X018109Y007373D01*
X018109Y007374D01*
X017672Y007374D01*
X017672Y007461D01*
X017739Y007621D01*
X017862Y007744D01*
X018023Y007811D01*
X018109Y007811D01*
X018109Y007374D01*
X018110Y007374D01*
X018110Y007811D01*
X018197Y007811D01*
X018357Y007744D01*
X018480Y007621D01*
X018547Y007461D01*
X018547Y007374D01*
X018110Y007374D01*
X018110Y007373D01*
X018547Y007373D01*
X018547Y007286D01*
X018480Y007126D01*
X018357Y007003D01*
X018197Y006936D01*
X018110Y006999D02*
X018109Y006999D01*
X018109Y007157D02*
X018110Y007157D01*
X018109Y007316D02*
X018110Y007316D01*
X018109Y007474D02*
X018110Y007474D01*
X018109Y007633D02*
X018110Y007633D01*
X018109Y007791D02*
X018110Y007791D01*
X018244Y007791D02*
X025655Y007791D01*
X025610Y007950D02*
X017870Y007950D01*
X017870Y008109D02*
X022005Y008109D01*
X022005Y008267D02*
X017870Y008267D01*
X017870Y008426D02*
X022005Y008426D01*
X022005Y008584D02*
X017870Y008584D01*
X017870Y008743D02*
X022005Y008743D01*
X022025Y008901D02*
X017870Y008901D01*
X017350Y008426D02*
X016934Y008426D01*
X016857Y008584D02*
X016775Y008584D01*
X016791Y008743D02*
X016617Y008743D01*
X016721Y008901D02*
X010358Y008901D01*
X010200Y009060D02*
X016562Y009060D01*
X016404Y009218D02*
X010041Y009218D01*
X009883Y009377D02*
X016245Y009377D01*
X016087Y009535D02*
X009724Y009535D01*
X009566Y009694D02*
X015928Y009694D01*
X015770Y009853D02*
X009407Y009853D01*
X009249Y010011D02*
X015611Y010011D01*
X015453Y010170D02*
X009090Y010170D01*
X008931Y010328D02*
X015294Y010328D01*
X015136Y010487D02*
X008773Y010487D01*
X008614Y010645D02*
X009977Y010645D01*
X009818Y010804D02*
X008456Y010804D01*
X008297Y010962D02*
X009660Y010962D01*
X009501Y011121D02*
X008139Y011121D01*
X007980Y011279D02*
X009343Y011279D01*
X009184Y011438D02*
X007822Y011438D01*
X007663Y011597D02*
X009026Y011597D01*
X008867Y011755D02*
X007505Y011755D01*
X007346Y011914D02*
X008709Y011914D01*
X008550Y012072D02*
X007300Y012072D01*
X007300Y012231D02*
X008392Y012231D01*
X008233Y012389D02*
X007300Y012389D01*
X007300Y012548D02*
X008074Y012548D01*
X007920Y012706D02*
X007300Y012706D01*
X007359Y012865D02*
X007860Y012865D01*
X007742Y013023D02*
X007477Y013023D01*
X007510Y013182D02*
X007710Y013182D01*
X007743Y013341D02*
X007477Y013341D01*
X007358Y013499D02*
X007862Y013499D01*
X008358Y013499D02*
X008862Y013499D01*
X008743Y013341D02*
X008477Y013341D01*
X008510Y013182D02*
X008710Y013182D01*
X008742Y013023D02*
X008477Y013023D01*
X008359Y012865D02*
X008860Y012865D01*
X009216Y012706D02*
X008453Y012706D01*
X008612Y012548D02*
X009374Y012548D01*
X009595Y012865D02*
X009860Y012865D01*
X009883Y012842D02*
X010030Y012781D01*
X010189Y012781D01*
X010336Y012842D01*
X010449Y012955D01*
X010510Y013102D01*
X010510Y013261D01*
X010449Y013408D01*
X010336Y013520D01*
X010189Y013581D01*
X010030Y013581D01*
X009883Y013520D01*
X009771Y013408D01*
X009710Y013261D01*
X009710Y013102D01*
X009771Y012955D01*
X009883Y012842D01*
X009742Y013023D02*
X009477Y013023D01*
X009510Y013182D02*
X009710Y013182D01*
X009743Y013341D02*
X009477Y013341D01*
X009358Y013499D02*
X009862Y013499D01*
X010358Y013499D02*
X010862Y013499D01*
X010883Y013520D02*
X010771Y013408D01*
X010710Y013261D01*
X010710Y013102D01*
X010771Y012955D01*
X010883Y012842D01*
X011030Y012781D01*
X011189Y012781D01*
X011336Y012842D01*
X011449Y012955D01*
X011510Y013102D01*
X011510Y013261D01*
X011449Y013408D01*
X011336Y013520D01*
X011189Y013581D01*
X011030Y013581D01*
X010883Y013520D01*
X010743Y013341D02*
X010477Y013341D01*
X010510Y013182D02*
X010710Y013182D01*
X010742Y013023D02*
X010477Y013023D01*
X010359Y012865D02*
X010860Y012865D01*
X011359Y012865D02*
X011860Y012865D01*
X011853Y012706D02*
X012217Y012706D01*
X012376Y012548D02*
X012012Y012548D01*
X012170Y012389D02*
X012534Y012389D01*
X012693Y012231D02*
X012329Y012231D01*
X012488Y012072D02*
X012851Y012072D01*
X013010Y011914D02*
X012646Y011914D01*
X012805Y011755D02*
X017110Y011755D01*
X017357Y011597D02*
X012963Y011597D01*
X013122Y011438D02*
X017357Y011438D01*
X017357Y011279D02*
X015580Y011279D01*
X015739Y011121D02*
X017357Y011121D01*
X017357Y010962D02*
X015897Y010962D01*
X016056Y010804D02*
X017357Y010804D01*
X017357Y010645D02*
X016214Y010645D01*
X016373Y010487D02*
X017357Y010487D01*
X017302Y010328D02*
X016531Y010328D01*
X016690Y010170D02*
X017224Y010170D01*
X017220Y010011D02*
X016849Y010011D01*
X017007Y009853D02*
X017284Y009853D01*
X017347Y009694D02*
X017350Y009694D01*
X017610Y010074D02*
X017617Y010081D01*
X018015Y010011D02*
X018164Y010011D01*
X018165Y010170D02*
X018073Y010170D01*
X017951Y009853D02*
X018223Y009853D01*
X018394Y009694D02*
X017870Y009694D01*
X016809Y009377D02*
X016783Y009377D01*
X016787Y009535D02*
X016624Y009535D01*
X016628Y009694D02*
X016466Y009694D01*
X016470Y009853D02*
X016307Y009853D01*
X016311Y010011D02*
X016149Y010011D01*
X016153Y010170D02*
X015990Y010170D01*
X015994Y010328D02*
X015831Y010328D01*
X015836Y010487D02*
X015673Y010487D01*
X015677Y010645D02*
X015514Y010645D01*
X015518Y010804D02*
X015356Y010804D01*
X015400Y010760D02*
X015400Y010760D01*
X015360Y010962D02*
X010197Y010962D01*
X010039Y011121D02*
X012901Y011121D01*
X012743Y011279D02*
X009880Y011279D01*
X009722Y011438D02*
X012584Y011438D01*
X012426Y011597D02*
X009563Y011597D01*
X009405Y011755D02*
X012267Y011755D01*
X012109Y011914D02*
X009246Y011914D01*
X009088Y012072D02*
X011950Y012072D01*
X011792Y012231D02*
X008929Y012231D01*
X008770Y012389D02*
X011633Y012389D01*
X011742Y013023D02*
X011477Y013023D01*
X011510Y013182D02*
X011710Y013182D01*
X011743Y013341D02*
X011477Y013341D01*
X011358Y013499D02*
X011850Y013499D01*
X011850Y013658D02*
X002690Y013658D01*
X002690Y013816D02*
X011850Y013816D01*
X012588Y014292D02*
X016420Y014292D01*
X016420Y014450D02*
X012746Y014450D01*
X012905Y014609D02*
X015836Y014609D01*
X015712Y014767D02*
X013063Y014767D01*
X013222Y014926D02*
X015691Y014926D01*
X015763Y015084D02*
X013380Y015084D01*
X013539Y015243D02*
X015820Y015243D01*
X015820Y015402D02*
X013697Y015402D01*
X013856Y015560D02*
X015820Y015560D01*
X015820Y015719D02*
X014014Y015719D01*
X014371Y015877D02*
X014848Y015877D01*
X015371Y015877D02*
X015820Y015877D01*
X015737Y016036D02*
X015482Y016036D01*
X015510Y016194D02*
X015710Y016194D01*
X015748Y016353D02*
X015550Y016353D01*
X015708Y016511D02*
X015874Y016511D01*
X015867Y016670D02*
X016420Y016670D01*
X016420Y016828D02*
X015900Y016828D01*
X015900Y016987D02*
X016420Y016987D01*
X016420Y017146D02*
X015900Y017146D01*
X015900Y017304D02*
X016420Y017304D01*
X016420Y017463D02*
X015900Y017463D01*
X015900Y017621D02*
X016420Y017621D01*
X016420Y017780D02*
X015900Y017780D01*
X015900Y017938D02*
X016420Y017938D01*
X016420Y018097D02*
X015900Y018097D01*
X015907Y018255D02*
X016420Y018255D01*
X015961Y019207D02*
X015963Y019207D01*
X015896Y019365D02*
X016029Y019365D01*
X016203Y019524D02*
X015721Y019524D01*
X015488Y016828D02*
X015447Y016828D01*
X016345Y016511D02*
X016420Y016511D01*
X016420Y015877D02*
X016371Y015877D01*
X016420Y015719D02*
X016200Y015719D01*
X016200Y015560D02*
X016420Y015560D01*
X016420Y015402D02*
X016200Y015402D01*
X016200Y015243D02*
X016420Y015243D01*
X016420Y015084D02*
X016256Y015084D01*
X016328Y014926D02*
X016420Y014926D01*
X016420Y014767D02*
X016307Y014767D01*
X016420Y014609D02*
X016183Y014609D01*
X016800Y014609D02*
X022269Y014609D01*
X022111Y014450D02*
X016800Y014450D01*
X016800Y014292D02*
X021952Y014292D01*
X021794Y014133D02*
X016800Y014133D01*
X016800Y013975D02*
X021635Y013975D01*
X021477Y013816D02*
X016800Y013816D01*
X016902Y013658D02*
X021318Y013658D01*
X021578Y013182D02*
X030841Y013182D01*
X031000Y013341D02*
X027687Y013341D01*
X028093Y013499D02*
X031159Y013499D01*
X031317Y013658D02*
X028191Y013658D01*
X028210Y013816D02*
X031476Y013816D01*
X031800Y013975D02*
X028162Y013975D01*
X028005Y014133D02*
X031760Y014133D01*
X031760Y014292D02*
X027414Y014292D01*
X027205Y014292D02*
X024414Y014292D01*
X024205Y014292D02*
X024067Y014292D01*
X024225Y014133D02*
X027614Y014133D01*
X028044Y014450D02*
X031826Y014450D01*
X031959Y014609D02*
X028171Y014609D01*
X028210Y014767D02*
X031946Y014767D01*
X031820Y014926D02*
X028183Y014926D01*
X028072Y015084D02*
X031760Y015084D01*
X032290Y015084D02*
X032330Y015084D01*
X032330Y015161D02*
X032330Y014631D01*
X032330Y014202D01*
X032290Y014202D01*
X032290Y014631D01*
X032290Y015161D01*
X032330Y015161D01*
X032330Y015243D02*
X032290Y015243D01*
X032290Y015402D02*
X032330Y015402D01*
X032330Y015560D02*
X032290Y015560D01*
X031911Y015560D02*
X027692Y015560D01*
X027499Y016036D02*
X029337Y016036D01*
X029474Y016511D02*
X027715Y016511D01*
X027016Y016353D02*
X024547Y016353D01*
X024499Y016036D02*
X027120Y016036D01*
X026958Y015877D02*
X024661Y015877D01*
X024710Y015719D02*
X026910Y015719D01*
X026927Y015560D02*
X024692Y015560D01*
X024595Y015402D02*
X027024Y015402D01*
X026988Y014926D02*
X024631Y014926D01*
X024707Y014767D02*
X026912Y014767D01*
X026910Y014609D02*
X024710Y014609D01*
X024644Y014450D02*
X026975Y014450D01*
X026910Y013975D02*
X024582Y013975D01*
X024687Y013816D02*
X026910Y013816D01*
X029110Y012421D02*
X029197Y012421D01*
X029359Y012354D01*
X029483Y012231D01*
X029275Y012389D02*
X030420Y012389D01*
X031068Y012871D02*
X031688Y013491D01*
X031843Y013491D01*
X031760Y013291D01*
X031760Y013201D01*
X032289Y013201D01*
X032289Y013161D01*
X031760Y013161D01*
X031760Y013072D01*
X031843Y012871D01*
X031068Y012871D01*
X031220Y013023D02*
X031780Y013023D01*
X031379Y013182D02*
X032289Y013182D01*
X031780Y013341D02*
X031537Y013341D01*
X032290Y014292D02*
X032330Y014292D01*
X032330Y014450D02*
X032290Y014450D01*
X032290Y014609D02*
X032330Y014609D01*
X032330Y014767D02*
X032290Y014767D01*
X032290Y014926D02*
X032330Y014926D01*
X032709Y015560D02*
X032800Y015560D01*
X033820Y015560D02*
X033826Y015560D01*
X033820Y015402D02*
X033826Y015402D01*
X033820Y015243D02*
X033826Y015243D01*
X033820Y015084D02*
X033826Y015084D01*
X033820Y014926D02*
X033826Y014926D01*
X033820Y014767D02*
X033826Y014767D01*
X033826Y014609D02*
X033603Y014609D01*
X033750Y014450D02*
X033826Y014450D01*
X033816Y014292D02*
X033826Y014292D01*
X033820Y014133D02*
X033826Y014133D01*
X033826Y013975D02*
X033776Y013975D01*
X033826Y013816D02*
X033666Y013816D01*
X033826Y013658D02*
X033493Y013658D01*
X033713Y013499D02*
X033826Y013499D01*
X033826Y013341D02*
X033796Y013341D01*
X033820Y013182D02*
X033826Y013182D01*
X033826Y013023D02*
X033796Y013023D01*
X033826Y012865D02*
X033714Y012865D01*
X033826Y012706D02*
X033495Y012706D01*
X033664Y012548D02*
X033826Y012548D01*
X033826Y012389D02*
X033776Y012389D01*
X033820Y012231D02*
X033826Y012231D01*
X033816Y012072D02*
X033826Y012072D01*
X033826Y011914D02*
X033751Y011914D01*
X033826Y011755D02*
X033604Y011755D01*
X033616Y011597D02*
X033826Y011597D01*
X033826Y011438D02*
X033755Y011438D01*
X033820Y011279D02*
X033826Y011279D01*
X033820Y011121D02*
X033826Y011121D01*
X033826Y010962D02*
X033771Y010962D01*
X033826Y010804D02*
X033653Y010804D01*
X033530Y010645D02*
X033826Y010645D01*
X033826Y010487D02*
X033725Y010487D01*
X033801Y010328D02*
X033826Y010328D01*
X033820Y010170D02*
X033826Y010170D01*
X033826Y010011D02*
X033791Y010011D01*
X033826Y009853D02*
X033702Y009853D01*
X033826Y009694D02*
X033530Y009694D01*
X033677Y009535D02*
X033826Y009535D01*
X033826Y009377D02*
X033781Y009377D01*
X033820Y009218D02*
X033826Y009218D01*
X033811Y009060D02*
X033826Y009060D01*
X033826Y008901D02*
X033746Y008901D01*
X033826Y008743D02*
X033583Y008743D01*
X033820Y008584D02*
X033826Y008584D01*
X033820Y008426D02*
X033826Y008426D01*
X033820Y008267D02*
X033826Y008267D01*
X033820Y008109D02*
X033826Y008109D01*
X033820Y007950D02*
X033826Y007950D01*
X033820Y007791D02*
X033826Y007791D01*
X033826Y007633D02*
X033472Y007633D01*
X033310Y007781D02*
X033310Y008181D01*
X033310Y009181D01*
X033310Y010181D01*
X033310Y011181D01*
X032097Y010645D02*
X031142Y010645D01*
X030984Y010487D02*
X031894Y010487D01*
X031818Y010328D02*
X030825Y010328D01*
X030800Y010170D02*
X031800Y010170D01*
X031828Y010011D02*
X031498Y010011D01*
X031510Y009853D02*
X031917Y009853D01*
X032154Y009694D02*
X031510Y009694D01*
X031510Y009535D02*
X031942Y009535D01*
X031839Y009377D02*
X031510Y009377D01*
X031800Y009218D02*
X030615Y009218D01*
X030457Y009060D02*
X031808Y009060D01*
X031874Y008901D02*
X030298Y008901D01*
X030140Y008743D02*
X032036Y008743D01*
X031991Y008584D02*
X029981Y008584D01*
X029761Y008901D02*
X028398Y008901D01*
X028557Y009060D02*
X029919Y009060D01*
X030078Y009218D02*
X028715Y009218D01*
X029110Y009241D02*
X029197Y009241D01*
X029359Y009308D01*
X029483Y009432D01*
X029550Y009594D01*
X029550Y009681D01*
X029110Y009681D01*
X029110Y009241D01*
X029109Y009377D02*
X029110Y009377D01*
X029109Y009535D02*
X029110Y009535D01*
X029110Y009682D02*
X029550Y009682D01*
X029550Y009769D01*
X029483Y009931D01*
X029359Y010054D01*
X029197Y010121D01*
X029110Y010121D01*
X029110Y009682D01*
X029109Y009694D02*
X029110Y009694D01*
X029109Y009853D02*
X029110Y009853D01*
X029109Y010011D02*
X029110Y010011D01*
X028867Y010170D02*
X030420Y010170D01*
X030420Y010328D02*
X029025Y010328D01*
X029184Y010487D02*
X030446Y010487D01*
X030605Y010645D02*
X029342Y010645D01*
X029501Y010804D02*
X030763Y010804D01*
X030922Y010962D02*
X029659Y010962D01*
X028646Y010487D02*
X018766Y010487D01*
X018973Y010328D02*
X028488Y010328D01*
X028420Y010170D02*
X019039Y010170D01*
X019039Y010011D02*
X025717Y010011D01*
X025604Y009853D02*
X018980Y009853D01*
X018437Y010487D02*
X018390Y010487D01*
X018708Y010804D02*
X024876Y010804D01*
X024667Y010962D02*
X018866Y010962D01*
X019025Y011121D02*
X024610Y011121D01*
X024617Y011279D02*
X019183Y011279D01*
X018765Y011597D02*
X017877Y011597D01*
X017877Y011755D02*
X018045Y011755D01*
X017927Y011914D02*
X017841Y011914D01*
X017892Y012072D02*
X017687Y012072D01*
X017657Y012231D02*
X017919Y012231D01*
X018309Y012231D02*
X018310Y012231D01*
X018309Y012072D02*
X018310Y012072D01*
X018309Y011914D02*
X018310Y011914D01*
X018309Y011755D02*
X018310Y011755D01*
X018574Y011755D02*
X018924Y011755D01*
X019099Y011914D02*
X018692Y011914D01*
X018606Y011438D02*
X017877Y011438D01*
X017877Y011279D02*
X018448Y011279D01*
X018289Y011121D02*
X017877Y011121D01*
X017877Y010962D02*
X018131Y010962D01*
X017972Y010804D02*
X017877Y010804D01*
X019801Y011438D02*
X024701Y011438D01*
X025156Y011597D02*
X019992Y011597D01*
X020309Y011914D02*
X024852Y011914D01*
X024663Y012072D02*
X022974Y012072D01*
X022974Y012231D02*
X024610Y012231D01*
X024621Y012389D02*
X022974Y012389D01*
X022045Y012389D02*
X020785Y012389D01*
X020627Y012231D02*
X022045Y012231D01*
X022045Y012072D02*
X020468Y012072D01*
X020208Y012548D02*
X013111Y012548D01*
X016800Y014767D02*
X022661Y014767D01*
X022776Y015084D02*
X016800Y015084D01*
X016800Y014926D02*
X022986Y014926D01*
X022993Y015064D02*
X023146Y015127D01*
X023264Y015245D01*
X023327Y015398D01*
X023327Y015481D01*
X022910Y015481D01*
X022910Y015064D01*
X022993Y015064D01*
X023043Y015084D02*
X023145Y015084D01*
X023262Y015243D02*
X023304Y015243D01*
X023327Y015402D02*
X023350Y015402D01*
X023350Y015560D02*
X023327Y015560D01*
X023350Y015719D02*
X023263Y015719D01*
X022910Y015719D02*
X022909Y015719D01*
X022909Y015560D02*
X022910Y015560D01*
X022909Y015402D02*
X022910Y015402D01*
X022909Y015243D02*
X022910Y015243D01*
X022909Y015084D02*
X022910Y015084D01*
X022557Y015243D02*
X016800Y015243D01*
X016800Y015402D02*
X022492Y015402D01*
X022492Y015560D02*
X016800Y015560D01*
X016800Y015719D02*
X022556Y015719D01*
X024570Y016987D02*
X025847Y016987D01*
X026225Y016828D02*
X026894Y016828D01*
X026870Y016670D02*
X026067Y016670D01*
X025908Y016511D02*
X026904Y016511D01*
X026993Y016987D02*
X026384Y016987D01*
X026790Y017938D02*
X026830Y017938D01*
X026830Y018097D02*
X026790Y018097D01*
X026790Y018255D02*
X026830Y018255D01*
X026830Y018414D02*
X026790Y018414D01*
X026790Y018572D02*
X026830Y018572D01*
X027196Y018572D02*
X027660Y018572D01*
X027660Y018626D02*
X027660Y018201D01*
X027660Y018255D02*
X027360Y018255D01*
X027309Y018414D02*
X027660Y018414D01*
X027660Y018626D02*
X027765Y018731D01*
X032784Y019682D02*
X003731Y019682D01*
X004026Y019524D02*
X004912Y019524D01*
X004912Y019099D01*
X005442Y019099D01*
X005442Y019629D01*
X005018Y019629D01*
X004912Y019524D01*
X004912Y019365D02*
X004185Y019365D01*
X004258Y019207D02*
X004912Y019207D01*
X004912Y019048D02*
X004324Y019048D01*
X004324Y018890D02*
X004912Y018890D01*
X004912Y018731D02*
X004324Y018731D01*
X004264Y018572D02*
X004974Y018572D01*
X005442Y018572D02*
X005482Y018572D01*
X005482Y018731D02*
X005442Y018731D01*
X005442Y018890D02*
X005482Y018890D01*
X005482Y019048D02*
X005442Y019048D01*
X005442Y019207D02*
X005482Y019207D01*
X005482Y019365D02*
X005442Y019365D01*
X005442Y019524D02*
X005482Y019524D01*
X006012Y019365D02*
X006029Y019365D01*
X006410Y019026D02*
X006462Y019079D01*
X006089Y018731D02*
X006012Y018731D01*
X005950Y018572D02*
X006150Y018572D01*
X006150Y018414D02*
X004198Y018414D01*
X004041Y018255D02*
X006150Y018255D01*
X006057Y018097D02*
X003767Y018097D01*
X003221Y018097D02*
X002690Y018097D01*
X002690Y018255D02*
X002947Y018255D01*
X002789Y018414D02*
X002690Y018414D01*
X002690Y018572D02*
X002724Y018572D01*
X002690Y017938D02*
X005899Y017938D01*
X005740Y017780D02*
X002690Y017780D01*
X002690Y017621D02*
X005582Y017621D01*
X005423Y017463D02*
X002690Y017463D01*
X002690Y017304D02*
X005265Y017304D01*
X005106Y017146D02*
X003515Y017146D01*
X003547Y017113D02*
X003442Y017219D01*
X003110Y017219D01*
X003110Y016782D01*
X003547Y016782D01*
X003547Y017113D01*
X003547Y016987D02*
X004948Y016987D01*
X004789Y016828D02*
X003547Y016828D01*
X003547Y016781D02*
X003110Y016781D01*
X003110Y016344D01*
X003442Y016344D01*
X003547Y016449D01*
X003547Y016781D01*
X003547Y016670D02*
X004630Y016670D01*
X004472Y016511D02*
X003547Y016511D01*
X003451Y016353D02*
X004313Y016353D01*
X004155Y016194D02*
X002690Y016194D01*
X002690Y016036D02*
X002802Y016036D01*
X002773Y016007D02*
X002712Y015860D01*
X002712Y015702D01*
X002773Y015556D01*
X002884Y015444D01*
X003031Y015384D01*
X003189Y015384D01*
X003335Y015444D01*
X003447Y015556D01*
X003507Y015702D01*
X003507Y015860D01*
X003447Y016007D01*
X003335Y016118D01*
X003189Y016179D01*
X003031Y016179D01*
X002884Y016118D01*
X002773Y016007D01*
X002719Y015877D02*
X002690Y015877D01*
X002690Y015719D02*
X002712Y015719D01*
X002690Y015560D02*
X002771Y015560D01*
X002690Y015402D02*
X002988Y015402D01*
X003231Y015402D02*
X003362Y015402D01*
X003448Y015560D02*
X003521Y015560D01*
X003507Y015719D02*
X003679Y015719D01*
X003838Y015877D02*
X003500Y015877D01*
X003417Y016036D02*
X003996Y016036D01*
X003109Y016353D02*
X003110Y016353D01*
X003109Y016511D02*
X003110Y016511D01*
X003109Y016670D02*
X003110Y016670D01*
X003109Y016828D02*
X003110Y016828D01*
X003109Y016987D02*
X003110Y016987D01*
X003109Y017146D02*
X003110Y017146D01*
X002704Y017146D02*
X002690Y017146D01*
X002690Y016353D02*
X002769Y016353D01*
X002690Y015243D02*
X003204Y015243D01*
X002851Y015084D02*
X002690Y015084D01*
X002690Y014926D02*
X002739Y014926D01*
X002712Y014767D02*
X002690Y014767D01*
X002690Y014609D02*
X002751Y014609D01*
X002690Y014450D02*
X002879Y014450D01*
X002690Y014292D02*
X003232Y014292D01*
X003390Y014133D02*
X002690Y014133D01*
X002690Y013975D02*
X003549Y013975D01*
X002690Y013499D02*
X006862Y013499D01*
X006743Y013341D02*
X002690Y013341D01*
X002690Y013182D02*
X006710Y013182D01*
X006742Y013023D02*
X006301Y013023D01*
X006430Y012970D02*
X006088Y013111D01*
X005718Y013111D01*
X005376Y012970D01*
X005115Y012708D01*
X004973Y012366D01*
X004973Y011996D01*
X005115Y011655D01*
X005376Y011393D01*
X005718Y011251D01*
X005802Y011251D01*
X005802Y008243D01*
X005765Y008207D01*
X005704Y008060D01*
X005704Y007902D01*
X005765Y007756D01*
X005877Y007644D01*
X005910Y007631D01*
X005910Y006516D01*
X005889Y006495D01*
X005832Y006357D01*
X005832Y006206D01*
X005627Y006206D01*
X005627Y006198D02*
X005627Y006281D01*
X005210Y006281D01*
X005210Y006282D01*
X005209Y006282D01*
X005209Y006699D01*
X005126Y006699D01*
X004973Y006636D01*
X004855Y006518D01*
X004792Y006365D01*
X004263Y006365D01*
X004324Y006523D02*
X004860Y006523D01*
X004792Y006365D02*
X004792Y006282D01*
X005209Y006282D01*
X005209Y006281D01*
X004792Y006281D01*
X004792Y006198D01*
X004855Y006045D01*
X004973Y005927D01*
X005126Y005864D01*
X005209Y005864D01*
X005209Y006281D01*
X005210Y006281D01*
X005210Y005864D01*
X005293Y005864D01*
X005446Y005927D01*
X005564Y006045D01*
X005627Y006198D01*
X005627Y006282D02*
X005210Y006282D01*
X005210Y006699D01*
X005293Y006699D01*
X005446Y006636D01*
X005564Y006518D01*
X005627Y006365D01*
X005835Y006365D01*
X005832Y006206D02*
X005889Y006067D01*
X005996Y005961D01*
X006134Y005904D01*
X006285Y005904D01*
X006424Y005961D01*
X006444Y005981D01*
X007670Y005981D01*
X007670Y005744D01*
X007737Y005582D01*
X007860Y005458D01*
X008022Y005391D01*
X008197Y005391D01*
X008359Y005458D01*
X008483Y005582D01*
X008550Y005744D01*
X008550Y006519D01*
X008483Y006681D01*
X008359Y006804D01*
X008197Y006871D01*
X008022Y006871D01*
X007860Y006804D01*
X007737Y006681D01*
X007695Y006581D01*
X006510Y006581D01*
X006510Y007814D01*
X006510Y007933D01*
X006499Y007958D01*
X006499Y008060D01*
X006439Y008207D01*
X006402Y008243D01*
X006402Y011381D01*
X006430Y011393D01*
X006692Y011655D01*
X006833Y011996D01*
X006833Y012366D01*
X006692Y012708D01*
X006430Y012970D01*
X006535Y012865D02*
X006860Y012865D01*
X006920Y012706D02*
X006692Y012706D01*
X006758Y012548D02*
X006920Y012548D01*
X006920Y012389D02*
X006824Y012389D01*
X006833Y012231D02*
X006920Y012231D01*
X006920Y012072D02*
X006833Y012072D01*
X006799Y011914D02*
X006920Y011914D01*
X006967Y011755D02*
X006733Y011755D01*
X006634Y011597D02*
X007126Y011597D01*
X007284Y011438D02*
X006475Y011438D01*
X006402Y011279D02*
X007443Y011279D01*
X007601Y011121D02*
X006402Y011121D01*
X006402Y010962D02*
X007760Y010962D01*
X007918Y010804D02*
X006402Y010804D01*
X006402Y010645D02*
X008077Y010645D01*
X008236Y010487D02*
X006402Y010487D01*
X006402Y010328D02*
X008394Y010328D01*
X008553Y010170D02*
X006402Y010170D01*
X006402Y010011D02*
X008711Y010011D01*
X008870Y009853D02*
X006402Y009853D01*
X006402Y009694D02*
X009028Y009694D01*
X009187Y009535D02*
X006402Y009535D01*
X006402Y009377D02*
X009345Y009377D01*
X009504Y009218D02*
X006402Y009218D01*
X006402Y009060D02*
X009662Y009060D01*
X009821Y008901D02*
X006402Y008901D01*
X006402Y008743D02*
X009980Y008743D01*
X010138Y008584D02*
X006402Y008584D01*
X006402Y008426D02*
X010297Y008426D01*
X010272Y006840D02*
X013147Y006840D01*
X012938Y006682D02*
X010482Y006682D01*
X010548Y006523D02*
X012871Y006523D01*
X012870Y006365D02*
X011151Y006365D01*
X011413Y006206D02*
X011943Y006206D01*
X011826Y006048D02*
X011550Y006048D01*
X011587Y005889D02*
X011792Y005889D01*
X011820Y005730D02*
X011685Y005730D01*
X011843Y005572D02*
X011928Y005572D01*
X012210Y005882D02*
X012210Y006299D01*
X012293Y006299D01*
X012446Y006236D01*
X012564Y006118D01*
X012627Y005965D01*
X012627Y005882D01*
X012210Y005882D01*
X012209Y005889D02*
X012210Y005889D01*
X012209Y006048D02*
X012210Y006048D01*
X012209Y006206D02*
X012210Y006206D01*
X012476Y006206D02*
X012870Y006206D01*
X012801Y006048D02*
X012593Y006048D01*
X012627Y005889D02*
X012643Y005889D01*
X013016Y005413D02*
X013110Y005413D01*
X013269Y005255D02*
X012857Y005255D01*
X012699Y005096D02*
X013427Y005096D01*
X013644Y004938D02*
X012540Y004938D01*
X011629Y004938D02*
X011095Y004938D01*
X011136Y004920D02*
X010989Y004981D01*
X010830Y004981D01*
X010683Y004920D01*
X010571Y004808D01*
X010510Y004661D01*
X010510Y004502D01*
X010571Y004355D01*
X010683Y004242D01*
X010740Y004219D01*
X010740Y004069D01*
X010680Y004044D01*
X010557Y003921D01*
X010490Y003759D01*
X010490Y003584D01*
X010557Y003422D01*
X010680Y003298D01*
X010842Y003231D01*
X011017Y003231D01*
X011179Y003298D01*
X011303Y003422D01*
X011370Y003584D01*
X011370Y003759D01*
X011303Y003921D01*
X011179Y004044D01*
X011120Y004069D01*
X011120Y004235D01*
X011136Y004242D01*
X011249Y004355D01*
X011310Y004502D01*
X011310Y004661D01*
X011249Y004808D01*
X011136Y004920D01*
X011261Y004779D02*
X013515Y004779D01*
X013537Y004831D02*
X013470Y004669D01*
X013470Y004582D01*
X013909Y004582D01*
X013909Y005021D01*
X013822Y005021D01*
X013660Y004954D01*
X013537Y004831D01*
X013909Y004779D02*
X013910Y004779D01*
X013909Y004621D02*
X013910Y004621D01*
X013910Y004582D02*
X013909Y004582D01*
X013909Y004581D01*
X013470Y004581D01*
X013470Y004494D01*
X013537Y004332D01*
X013660Y004208D01*
X013822Y004141D01*
X013909Y004141D01*
X013909Y004581D01*
X013910Y004581D01*
X013910Y004582D01*
X013910Y005021D01*
X013997Y005021D01*
X014159Y004954D01*
X014283Y004831D01*
X014350Y004669D01*
X014350Y004582D01*
X013910Y004582D01*
X013910Y004581D02*
X014350Y004581D01*
X014350Y004494D01*
X014283Y004332D01*
X014159Y004208D01*
X013997Y004141D01*
X013910Y004141D01*
X013910Y004581D01*
X013909Y004462D02*
X013910Y004462D01*
X013909Y004304D02*
X013910Y004304D01*
X013909Y004145D02*
X013910Y004145D01*
X014006Y004145D02*
X014550Y004145D01*
X014550Y004073D02*
X014480Y004044D01*
X014357Y003921D01*
X014290Y003759D01*
X014290Y003584D01*
X014357Y003422D01*
X014480Y003298D01*
X014642Y003231D01*
X014817Y003231D01*
X014979Y003298D01*
X015103Y003422D01*
X015131Y003491D01*
X016250Y003491D01*
X016329Y003412D01*
X016446Y003363D01*
X016573Y003363D01*
X016690Y003412D01*
X016779Y003501D01*
X016828Y003618D01*
X016828Y003745D01*
X016779Y003862D01*
X016690Y003951D01*
X016573Y003999D01*
X016446Y003999D01*
X016329Y003951D01*
X016250Y003871D01*
X015123Y003871D01*
X015103Y003921D01*
X014979Y004044D01*
X014930Y004065D01*
X014930Y004198D01*
X015036Y004242D01*
X015149Y004355D01*
X015210Y004502D01*
X015210Y004661D01*
X015149Y004808D01*
X015036Y004920D01*
X014889Y004981D01*
X014730Y004981D01*
X014583Y004920D01*
X014471Y004808D01*
X014410Y004661D01*
X014410Y004502D01*
X014471Y004355D01*
X014550Y004276D01*
X014550Y004073D01*
X014422Y003986D02*
X013797Y003986D01*
X013739Y004044D02*
X013863Y003921D01*
X013930Y003759D01*
X013930Y003584D01*
X013863Y003422D01*
X013739Y003298D01*
X013577Y003231D01*
X013402Y003231D01*
X013240Y003298D01*
X013117Y003422D01*
X013050Y003584D01*
X013050Y003759D01*
X013117Y003921D01*
X013240Y004044D01*
X013402Y004111D01*
X013577Y004111D01*
X013739Y004044D01*
X013813Y004145D02*
X011120Y004145D01*
X011197Y004304D02*
X013565Y004304D01*
X013483Y004462D02*
X011293Y004462D01*
X011310Y004621D02*
X013470Y004621D01*
X013909Y004938D02*
X013910Y004938D01*
X014176Y004938D02*
X014625Y004938D01*
X014459Y004779D02*
X014304Y004779D01*
X014350Y004621D02*
X014410Y004621D01*
X014426Y004462D02*
X014336Y004462D01*
X014254Y004304D02*
X014522Y004304D01*
X014930Y004145D02*
X017713Y004145D01*
X017722Y004141D02*
X017809Y004141D01*
X017809Y004581D01*
X017370Y004581D01*
X017370Y004494D01*
X017437Y004332D01*
X017560Y004208D01*
X017722Y004141D01*
X017809Y004145D02*
X017810Y004145D01*
X017810Y004141D02*
X017897Y004141D01*
X018059Y004208D01*
X018183Y004332D01*
X018250Y004494D01*
X018250Y004581D01*
X017810Y004581D01*
X017810Y004582D01*
X017809Y004582D01*
X017809Y005021D01*
X017722Y005021D01*
X017560Y004954D01*
X017437Y004831D01*
X017370Y004669D01*
X017370Y004582D01*
X017809Y004582D01*
X017809Y004581D01*
X017810Y004581D01*
X017810Y004141D01*
X017906Y004145D02*
X033826Y004145D01*
X033826Y003986D02*
X017597Y003986D01*
X017539Y004044D02*
X017663Y003921D01*
X017730Y003759D01*
X017730Y003584D01*
X017663Y003422D01*
X017539Y003298D01*
X017377Y003231D01*
X017202Y003231D01*
X017040Y003298D01*
X016917Y003422D01*
X016850Y003584D01*
X016850Y003759D01*
X016917Y003921D01*
X017040Y004044D01*
X017202Y004111D01*
X017377Y004111D01*
X017539Y004044D01*
X017465Y004304D02*
X015097Y004304D01*
X015193Y004462D02*
X017383Y004462D01*
X017370Y004621D02*
X015210Y004621D01*
X015161Y004779D02*
X017415Y004779D01*
X017544Y004938D02*
X014995Y004938D01*
X014947Y005572D02*
X014722Y005572D01*
X014787Y005730D02*
X014875Y005730D01*
X014870Y005889D02*
X014790Y005889D01*
X014790Y006048D02*
X014870Y006048D01*
X014870Y006206D02*
X014790Y006206D01*
X014790Y006365D02*
X014870Y006365D01*
X014871Y006523D02*
X014790Y006523D01*
X014725Y006682D02*
X014938Y006682D01*
X015147Y006840D02*
X014577Y006840D01*
X014330Y006840D02*
X014290Y006840D01*
X014290Y006682D02*
X014330Y006682D01*
X014330Y006523D02*
X014290Y006523D01*
X014290Y006365D02*
X014330Y006365D01*
X014330Y006206D02*
X014290Y006206D01*
X013830Y006206D02*
X013750Y006206D01*
X013750Y006048D02*
X013830Y006048D01*
X013830Y005889D02*
X013750Y005889D01*
X013744Y005730D02*
X013832Y005730D01*
X013898Y005572D02*
X013687Y005572D01*
X013750Y006365D02*
X013830Y006365D01*
X013830Y006523D02*
X013748Y006523D01*
X013682Y006682D02*
X013894Y006682D01*
X014042Y006840D02*
X013472Y006840D01*
X015472Y006840D02*
X016201Y006840D01*
X016042Y006682D02*
X015682Y006682D01*
X015748Y006523D02*
X015884Y006523D01*
X016460Y006365D02*
X017325Y006365D01*
X017484Y006523D02*
X016619Y006523D01*
X016778Y006682D02*
X017840Y006682D01*
X017871Y006999D02*
X017095Y006999D01*
X017253Y007157D02*
X017726Y007157D01*
X017672Y007316D02*
X017412Y007316D01*
X017570Y007474D02*
X017678Y007474D01*
X017729Y007633D02*
X017750Y007633D01*
X017854Y007791D02*
X017976Y007791D01*
X018469Y007633D02*
X025806Y007633D01*
X026034Y007474D02*
X018541Y007474D01*
X018547Y007316D02*
X025875Y007316D01*
X025717Y007157D02*
X018494Y007157D01*
X018348Y006999D02*
X025558Y006999D01*
X025801Y006682D02*
X028018Y006682D01*
X028010Y006523D02*
X025810Y006523D01*
X025753Y006365D02*
X028066Y006365D01*
X028271Y006206D02*
X025549Y006206D01*
X025937Y006840D02*
X028103Y006840D01*
X028716Y006840D02*
X028833Y006840D01*
X028770Y006999D02*
X026096Y006999D01*
X026254Y007157D02*
X028770Y007157D01*
X028830Y007316D02*
X026413Y007316D01*
X026571Y007474D02*
X029009Y007474D01*
X028806Y007633D02*
X026730Y007633D01*
X026888Y007791D02*
X028655Y007791D01*
X028610Y007950D02*
X027047Y007950D01*
X027205Y008109D02*
X028629Y008109D01*
X028730Y008267D02*
X027364Y008267D01*
X026510Y007950D02*
X026410Y007950D01*
X025730Y008267D02*
X023014Y008267D01*
X023014Y008109D02*
X025629Y008109D01*
X025103Y006840D02*
X016936Y006840D01*
X016518Y007157D02*
X006510Y007157D01*
X006510Y006999D02*
X016359Y006999D01*
X016676Y007316D02*
X006510Y007316D01*
X006510Y007474D02*
X016835Y007474D01*
X016994Y007633D02*
X006510Y007633D01*
X006510Y007791D02*
X016850Y007791D01*
X016791Y007950D02*
X006503Y007950D01*
X006479Y008109D02*
X016714Y008109D01*
X016555Y008267D02*
X006402Y008267D01*
X005802Y008267D02*
X005450Y008267D01*
X005488Y008229D02*
X005365Y008352D01*
X005204Y008419D01*
X005118Y008419D01*
X005118Y007982D01*
X005117Y007982D01*
X005117Y008419D01*
X005030Y008419D01*
X004870Y008352D01*
X004747Y008229D01*
X004680Y008068D01*
X004680Y007982D01*
X005117Y007982D01*
X005117Y007981D01*
X004680Y007981D01*
X004680Y007894D01*
X004747Y007734D01*
X004870Y007611D01*
X005030Y007544D01*
X005117Y007544D01*
X005117Y007981D01*
X005118Y007981D01*
X005118Y007982D01*
X005555Y007982D01*
X005555Y008068D01*
X005488Y008229D01*
X005538Y008109D02*
X005724Y008109D01*
X005704Y007950D02*
X005555Y007950D01*
X005555Y007981D02*
X005118Y007981D01*
X005118Y007544D01*
X005204Y007544D01*
X005365Y007611D01*
X005488Y007734D01*
X005555Y007894D01*
X005555Y007981D01*
X005512Y007791D02*
X005750Y007791D01*
X005904Y007633D02*
X005388Y007633D01*
X005118Y007633D02*
X005117Y007633D01*
X005117Y007791D02*
X005118Y007791D01*
X005117Y007950D02*
X005118Y007950D01*
X005117Y008109D02*
X005118Y008109D01*
X005117Y008267D02*
X005118Y008267D01*
X004785Y008267D02*
X002690Y008267D01*
X002690Y008109D02*
X004697Y008109D01*
X004680Y007950D02*
X002690Y007950D01*
X002690Y007791D02*
X004723Y007791D01*
X004847Y007633D02*
X002690Y007633D01*
X002690Y007474D02*
X003249Y007474D01*
X002958Y007316D02*
X002690Y007316D01*
X002690Y007157D02*
X002800Y007157D01*
X002729Y006999D02*
X002690Y006999D01*
X002690Y006365D02*
X002725Y006365D01*
X002690Y006206D02*
X002791Y006206D01*
X002690Y006048D02*
X002950Y006048D01*
X002690Y005889D02*
X003229Y005889D01*
X003759Y005889D02*
X005065Y005889D01*
X005209Y005889D02*
X005210Y005889D01*
X005354Y005889D02*
X007670Y005889D01*
X007675Y005730D02*
X002690Y005730D01*
X002690Y005572D02*
X007747Y005572D01*
X007969Y005413D02*
X002690Y005413D01*
X002690Y005255D02*
X011312Y005255D01*
X011153Y005413D02*
X010250Y005413D01*
X010472Y005572D02*
X010985Y005572D01*
X010863Y005730D02*
X010544Y005730D01*
X009969Y005413D02*
X009355Y005413D01*
X009381Y005424D02*
X009516Y005559D01*
X009590Y005736D01*
X009590Y006111D01*
X009130Y006111D01*
X009130Y006151D01*
X009590Y006151D01*
X009590Y006527D01*
X009516Y006703D01*
X009381Y006838D01*
X009205Y006911D01*
X009130Y006911D01*
X009130Y006152D01*
X009090Y006152D01*
X009090Y006911D01*
X009014Y006911D01*
X008838Y006838D01*
X008703Y006703D01*
X008630Y006527D01*
X008630Y006151D01*
X009089Y006151D01*
X009089Y006111D01*
X008630Y006111D01*
X008630Y005736D01*
X008703Y005559D01*
X008838Y005424D01*
X009014Y005351D01*
X009090Y005351D01*
X009090Y006111D01*
X009130Y006111D01*
X009130Y005351D01*
X009205Y005351D01*
X009381Y005424D01*
X009522Y005572D02*
X009747Y005572D01*
X009675Y005730D02*
X009587Y005730D01*
X009590Y005889D02*
X009670Y005889D01*
X009670Y006048D02*
X009590Y006048D01*
X009590Y006206D02*
X009670Y006206D01*
X009670Y006365D02*
X009590Y006365D01*
X009590Y006523D02*
X009671Y006523D01*
X009738Y006682D02*
X009525Y006682D01*
X009377Y006840D02*
X009947Y006840D01*
X009130Y006840D02*
X009090Y006840D01*
X009090Y006682D02*
X009130Y006682D01*
X009130Y006523D02*
X009090Y006523D01*
X009090Y006365D02*
X009130Y006365D01*
X009130Y006206D02*
X009090Y006206D01*
X009090Y006048D02*
X009130Y006048D01*
X009130Y005889D02*
X009090Y005889D01*
X009090Y005730D02*
X009130Y005730D01*
X009130Y005572D02*
X009090Y005572D01*
X009090Y005413D02*
X009130Y005413D01*
X008865Y005413D02*
X008250Y005413D01*
X008472Y005572D02*
X008698Y005572D01*
X008632Y005730D02*
X008544Y005730D01*
X008550Y005889D02*
X008630Y005889D01*
X008630Y006048D02*
X008550Y006048D01*
X008550Y006206D02*
X008630Y006206D01*
X008630Y006365D02*
X008550Y006365D01*
X008548Y006523D02*
X008630Y006523D01*
X008694Y006682D02*
X008482Y006682D01*
X008272Y006840D02*
X008842Y006840D01*
X007947Y006840D02*
X006510Y006840D01*
X006510Y006682D02*
X007738Y006682D01*
X005910Y006682D02*
X005335Y006682D01*
X005210Y006682D02*
X005209Y006682D01*
X005084Y006682D02*
X004324Y006682D01*
X004324Y006840D02*
X005910Y006840D01*
X005910Y006999D02*
X004259Y006999D01*
X004188Y007157D02*
X005910Y007157D01*
X005910Y007316D02*
X004029Y007316D01*
X003739Y007474D02*
X005910Y007474D01*
X005802Y008426D02*
X002690Y008426D01*
X002690Y008584D02*
X005802Y008584D01*
X005802Y008743D02*
X002690Y008743D01*
X002690Y008901D02*
X005802Y008901D01*
X005802Y009060D02*
X002690Y009060D01*
X002690Y009218D02*
X005802Y009218D01*
X005802Y009377D02*
X004954Y009377D01*
X004915Y009361D02*
X005272Y009509D01*
X005544Y009782D01*
X005692Y010138D01*
X005692Y010251D01*
X004802Y010251D01*
X004802Y009361D01*
X004915Y009361D01*
X004802Y009377D02*
X004642Y009377D01*
X004642Y009361D02*
X004642Y010251D01*
X003752Y010251D01*
X003752Y010138D01*
X003900Y009782D01*
X004173Y009509D01*
X004529Y009361D01*
X004642Y009361D01*
X004491Y009377D02*
X002690Y009377D01*
X002690Y009535D02*
X004146Y009535D01*
X003987Y009694D02*
X002690Y009694D01*
X002690Y009853D02*
X003870Y009853D01*
X003805Y010011D02*
X002690Y010011D01*
X002690Y010170D02*
X003752Y010170D01*
X003752Y010411D02*
X004642Y010411D01*
X004642Y010251D01*
X004802Y010251D01*
X004802Y010411D01*
X004642Y010411D01*
X004642Y011301D01*
X004529Y011301D01*
X004173Y011153D01*
X003900Y010880D01*
X003752Y010524D01*
X003752Y010411D01*
X003752Y010487D02*
X002690Y010487D01*
X002690Y010645D02*
X003802Y010645D01*
X003868Y010804D02*
X002690Y010804D01*
X002690Y010962D02*
X003982Y010962D01*
X004140Y011121D02*
X002690Y011121D01*
X002690Y011279D02*
X003184Y011279D01*
X003461Y011279D02*
X003621Y011279D01*
X003621Y011438D02*
X003461Y011438D01*
X003461Y011597D02*
X003621Y011597D01*
X003621Y011755D02*
X003461Y011755D01*
X003461Y011914D02*
X003621Y011914D01*
X003621Y012072D02*
X003461Y012072D01*
X003621Y012231D02*
X004973Y012231D01*
X004983Y012389D02*
X004505Y012389D01*
X004439Y012548D02*
X005048Y012548D01*
X005114Y012706D02*
X004374Y012706D01*
X004229Y012865D02*
X005272Y012865D01*
X005506Y013023D02*
X004043Y013023D01*
X003621Y013023D02*
X003461Y013023D01*
X003461Y012865D02*
X003621Y012865D01*
X003621Y012706D02*
X003461Y012706D01*
X003461Y012548D02*
X003621Y012548D01*
X003621Y012389D02*
X003461Y012389D01*
X002853Y012865D02*
X002690Y012865D01*
X002690Y013023D02*
X003039Y013023D01*
X002709Y012706D02*
X002690Y012706D01*
X004414Y011755D02*
X005073Y011755D01*
X005008Y011914D02*
X004480Y011914D01*
X004511Y012072D02*
X004973Y012072D01*
X005173Y011597D02*
X004328Y011597D01*
X004169Y011438D02*
X005331Y011438D01*
X005272Y011153D02*
X004915Y011301D01*
X004802Y011301D01*
X004802Y010411D01*
X005692Y010411D01*
X005692Y010524D01*
X005544Y010880D01*
X005272Y011153D01*
X005304Y011121D02*
X005802Y011121D01*
X005802Y010962D02*
X005463Y010962D01*
X005576Y010804D02*
X005802Y010804D01*
X005802Y010645D02*
X005642Y010645D01*
X005692Y010487D02*
X005802Y010487D01*
X005802Y010328D02*
X004802Y010328D01*
X004802Y010170D02*
X004642Y010170D01*
X004642Y010328D02*
X002690Y010328D01*
X002690Y011438D02*
X002913Y011438D01*
X002754Y011597D02*
X002690Y011597D01*
X003898Y011279D02*
X004477Y011279D01*
X004642Y011279D02*
X004802Y011279D01*
X004802Y011121D02*
X004642Y011121D01*
X004642Y010962D02*
X004802Y010962D01*
X004802Y010804D02*
X004642Y010804D01*
X004642Y010645D02*
X004802Y010645D01*
X004802Y010487D02*
X004642Y010487D01*
X004642Y010011D02*
X004802Y010011D01*
X004802Y009853D02*
X004642Y009853D01*
X004642Y009694D02*
X004802Y009694D01*
X004802Y009535D02*
X004642Y009535D01*
X005298Y009535D02*
X005802Y009535D01*
X005802Y009694D02*
X005457Y009694D01*
X005574Y009853D02*
X005802Y009853D01*
X005802Y010011D02*
X005640Y010011D01*
X005692Y010170D02*
X005802Y010170D01*
X005651Y011279D02*
X004967Y011279D01*
X009371Y015877D02*
X009848Y015877D01*
X009883Y015842D02*
X010030Y015781D01*
X010189Y015781D01*
X010336Y015842D01*
X010449Y015955D01*
X010510Y016102D01*
X010510Y016261D01*
X010449Y016408D01*
X010336Y016520D01*
X010189Y016581D01*
X010030Y016581D01*
X009883Y016520D01*
X009771Y016408D01*
X009710Y016261D01*
X009710Y016102D01*
X009771Y015955D01*
X009883Y015842D01*
X009737Y016036D02*
X009482Y016036D01*
X009510Y016194D02*
X009710Y016194D01*
X009748Y016353D02*
X009472Y016353D01*
X009345Y016511D02*
X009874Y016511D01*
X010345Y016511D02*
X010874Y016511D01*
X010748Y016353D02*
X010472Y016353D01*
X010510Y016194D02*
X010710Y016194D01*
X010737Y016036D02*
X010482Y016036D01*
X010371Y015877D02*
X010848Y015877D01*
X016800Y015877D02*
X016848Y015877D01*
X020676Y018572D02*
X021479Y018572D01*
X021102Y012706D02*
X022045Y012706D01*
X022045Y012548D02*
X020944Y012548D01*
X025143Y010804D02*
X027876Y010804D01*
X027667Y010962D02*
X025352Y010962D01*
X025410Y011121D02*
X027610Y011121D01*
X027617Y011279D02*
X025402Y011279D01*
X025535Y011438D02*
X027701Y011438D01*
X026259Y010054D02*
X026097Y010121D01*
X026010Y010121D01*
X026010Y009682D01*
X026450Y009682D01*
X026450Y009769D01*
X026383Y009931D01*
X026259Y010054D01*
X026302Y010011D02*
X026774Y010011D01*
X026648Y009853D02*
X026415Y009853D01*
X026450Y009694D02*
X026610Y009694D01*
X026637Y009535D02*
X026425Y009535D01*
X026010Y009535D02*
X026009Y009535D01*
X026009Y009694D02*
X026010Y009694D01*
X026009Y009853D02*
X026010Y009853D01*
X026009Y010011D02*
X026010Y010011D01*
X027246Y010011D02*
X027621Y010011D01*
X027610Y009853D02*
X027372Y009853D01*
X027410Y009694D02*
X027610Y009694D01*
X027610Y009535D02*
X027382Y009535D01*
X027271Y009377D02*
X027610Y009377D01*
X028410Y009535D02*
X028420Y009535D01*
X028410Y009694D02*
X028420Y009694D01*
X028410Y009853D02*
X028420Y009853D01*
X028420Y010011D02*
X028398Y010011D01*
X028800Y010011D02*
X028817Y010011D01*
X029402Y010011D02*
X029874Y010011D01*
X029748Y009853D02*
X029515Y009853D01*
X029550Y009694D02*
X029710Y009694D01*
X029737Y009535D02*
X029525Y009535D01*
X029427Y009377D02*
X029848Y009377D01*
X030346Y010011D02*
X030420Y010011D01*
X031301Y010804D02*
X031800Y010804D01*
X031800Y010962D02*
X031459Y010962D01*
X031618Y011121D02*
X031800Y011121D01*
X031800Y011279D02*
X031776Y011279D01*
X033310Y007781D02*
X033110Y007581D01*
X032510Y007581D01*
X032110Y007181D01*
X032110Y006181D01*
X031610Y005681D01*
X019110Y005681D01*
X018402Y006389D01*
X018110Y006389D01*
X018323Y006048D02*
X018432Y006048D01*
X018591Y005889D02*
X017585Y005889D01*
X017743Y006048D02*
X017896Y006048D01*
X017426Y005730D02*
X018749Y005730D01*
X018890Y005590D02*
X018890Y005590D01*
X018908Y005572D02*
X017268Y005572D01*
X017109Y005413D02*
X033826Y005413D01*
X033826Y005255D02*
X016951Y005255D01*
X016792Y005096D02*
X033826Y005096D01*
X033826Y004938D02*
X018076Y004938D01*
X018059Y004954D02*
X017897Y005021D01*
X017810Y005021D01*
X017810Y004582D01*
X018250Y004582D01*
X018250Y004669D01*
X018183Y004831D01*
X018059Y004954D01*
X018204Y004779D02*
X033826Y004779D01*
X033826Y004621D02*
X018250Y004621D01*
X018236Y004462D02*
X033826Y004462D01*
X033826Y004304D02*
X018154Y004304D01*
X017810Y004304D02*
X017809Y004304D01*
X017809Y004462D02*
X017810Y004462D01*
X017809Y004621D02*
X017810Y004621D01*
X017809Y004779D02*
X017810Y004779D01*
X017809Y004938D02*
X017810Y004938D01*
X016532Y005572D02*
X015672Y005572D01*
X015744Y005730D02*
X016691Y005730D01*
X016850Y005889D02*
X015954Y005889D01*
X016143Y006048D02*
X017008Y006048D01*
X017167Y006206D02*
X016302Y006206D01*
X016415Y003986D02*
X015037Y003986D01*
X014318Y003828D02*
X013901Y003828D01*
X013930Y003669D02*
X014290Y003669D01*
X014320Y003511D02*
X013899Y003511D01*
X013793Y003352D02*
X014426Y003352D01*
X015033Y003352D02*
X016986Y003352D01*
X016880Y003511D02*
X016783Y003511D01*
X016828Y003669D02*
X016850Y003669D01*
X016878Y003828D02*
X016793Y003828D01*
X016604Y003986D02*
X016982Y003986D01*
X017701Y003828D02*
X033826Y003828D01*
X033826Y003669D02*
X017730Y003669D01*
X017699Y003511D02*
X033826Y003511D01*
X033826Y003352D02*
X017593Y003352D01*
X017377Y002331D02*
X017202Y002331D01*
X017040Y002264D01*
X016917Y002141D01*
X016850Y001979D01*
X016850Y001804D01*
X016917Y001642D01*
X017040Y001518D01*
X017202Y001451D01*
X017377Y001451D01*
X017539Y001518D01*
X017663Y001642D01*
X017730Y001804D01*
X017730Y001979D01*
X017663Y002141D01*
X017539Y002264D01*
X017377Y002331D01*
X017561Y002242D02*
X033826Y002242D01*
X033826Y002084D02*
X017686Y002084D01*
X017730Y001925D02*
X027686Y001925D01*
X027700Y001931D02*
X027498Y001848D01*
X027343Y001693D01*
X027288Y001559D01*
X027242Y001670D01*
X027098Y001814D01*
X026911Y001891D01*
X026708Y001891D01*
X026521Y001814D01*
X026377Y001670D01*
X026300Y001483D01*
X026300Y001280D01*
X026377Y001093D01*
X026521Y000949D01*
X026708Y000871D01*
X026911Y000871D01*
X027098Y000949D01*
X027242Y001093D01*
X027288Y001204D01*
X027343Y001070D01*
X027498Y000915D01*
X027700Y000831D01*
X027809Y000831D01*
X027809Y001381D01*
X027810Y001381D01*
X027810Y001382D01*
X027809Y001382D01*
X027809Y001931D01*
X027700Y001931D01*
X027809Y001925D02*
X027810Y001925D01*
X027810Y001931D02*
X027919Y001931D01*
X028121Y001848D01*
X028276Y001693D01*
X028360Y001491D01*
X028360Y001382D01*
X027810Y001382D01*
X027810Y001931D01*
X027933Y001925D02*
X033826Y001925D01*
X033826Y001767D02*
X028202Y001767D01*
X028311Y001608D02*
X033826Y001608D01*
X033826Y001450D02*
X028360Y001450D01*
X028360Y001381D02*
X027810Y001381D01*
X027810Y000831D01*
X027919Y000831D01*
X028121Y000915D01*
X028276Y001070D01*
X028360Y001272D01*
X028360Y001381D01*
X028360Y001291D02*
X033826Y001291D01*
X033826Y001133D02*
X028302Y001133D01*
X028180Y000974D02*
X033826Y000974D01*
X033826Y000816D02*
X002690Y000816D01*
X002690Y000974D02*
X026496Y000974D01*
X026361Y001133D02*
X026127Y001133D01*
X026149Y001155D02*
X026210Y001302D01*
X026210Y001461D01*
X026149Y001608D01*
X026036Y001720D01*
X025889Y001781D01*
X025730Y001781D01*
X025583Y001720D01*
X025471Y001608D01*
X023148Y001608D01*
X023149Y001608D02*
X023036Y001720D01*
X022889Y001781D01*
X022730Y001781D01*
X022583Y001720D01*
X022471Y001608D01*
X017629Y001608D01*
X017714Y001767D02*
X022695Y001767D01*
X022924Y001767D02*
X025695Y001767D01*
X025924Y001767D02*
X026474Y001767D01*
X026352Y001608D02*
X026148Y001608D01*
X026210Y001450D02*
X026300Y001450D01*
X026300Y001291D02*
X026205Y001291D01*
X026149Y001155D02*
X026036Y001042D01*
X025889Y000981D01*
X025730Y000981D01*
X025583Y001042D01*
X025471Y001155D01*
X025410Y001302D01*
X025410Y001461D01*
X025471Y001608D01*
X025410Y001450D02*
X023210Y001450D01*
X023210Y001461D02*
X023149Y001608D01*
X023210Y001461D02*
X023210Y001302D01*
X023149Y001155D01*
X023036Y001042D01*
X022889Y000981D01*
X022730Y000981D01*
X022583Y001042D01*
X022471Y001155D01*
X022410Y001302D01*
X022410Y001461D01*
X022471Y001608D01*
X022410Y001450D02*
X002690Y001450D01*
X002690Y001608D02*
X003390Y001608D01*
X003357Y001642D02*
X003480Y001518D01*
X003642Y001451D01*
X003817Y001451D01*
X003979Y001518D01*
X004103Y001642D01*
X004170Y001804D01*
X004170Y001979D01*
X004103Y002141D01*
X003979Y002264D01*
X003817Y002331D01*
X003642Y002331D01*
X003480Y002264D01*
X003357Y002141D01*
X003290Y001979D01*
X003290Y001804D01*
X003357Y001642D01*
X003305Y001767D02*
X002690Y001767D01*
X002690Y001925D02*
X003290Y001925D01*
X003333Y002084D02*
X002690Y002084D01*
X002690Y002242D02*
X003458Y002242D01*
X004001Y002242D02*
X006018Y002242D01*
X006040Y002264D02*
X005917Y002141D01*
X005850Y001979D01*
X005850Y001804D01*
X005917Y001642D01*
X006040Y001518D01*
X006202Y001451D01*
X006377Y001451D01*
X006539Y001518D01*
X006663Y001642D01*
X006730Y001804D01*
X006730Y001979D01*
X006663Y002141D01*
X006539Y002264D01*
X006377Y002331D01*
X006202Y002331D01*
X006040Y002264D01*
X005893Y002084D02*
X004126Y002084D01*
X004170Y001925D02*
X005850Y001925D01*
X005865Y001767D02*
X004154Y001767D01*
X004069Y001608D02*
X005950Y001608D01*
X006629Y001608D02*
X006990Y001608D01*
X006957Y001642D02*
X007080Y001518D01*
X007242Y001451D01*
X007417Y001451D01*
X007579Y001518D01*
X007703Y001642D01*
X007770Y001804D01*
X007770Y001979D01*
X007703Y002141D01*
X007579Y002264D01*
X007417Y002331D01*
X007242Y002331D01*
X007080Y002264D01*
X006957Y002141D01*
X006890Y001979D01*
X006890Y001804D01*
X006957Y001642D01*
X006905Y001767D02*
X006714Y001767D01*
X006730Y001925D02*
X006890Y001925D01*
X006933Y002084D02*
X006686Y002084D01*
X006561Y002242D02*
X007058Y002242D01*
X007601Y002242D02*
X009618Y002242D01*
X009640Y002264D02*
X009517Y002141D01*
X009450Y001979D01*
X009450Y001804D01*
X009517Y001642D01*
X009640Y001518D01*
X009802Y001451D01*
X009977Y001451D01*
X010139Y001518D01*
X010263Y001642D01*
X010330Y001804D01*
X010330Y001979D01*
X010263Y002141D01*
X010139Y002264D01*
X009977Y002331D01*
X009802Y002331D01*
X009640Y002264D01*
X009493Y002084D02*
X007726Y002084D01*
X007770Y001925D02*
X009450Y001925D01*
X009465Y001767D02*
X007754Y001767D01*
X007669Y001608D02*
X009550Y001608D01*
X010229Y001608D02*
X010590Y001608D01*
X010557Y001642D02*
X010680Y001518D01*
X010842Y001451D01*
X011017Y001451D01*
X011179Y001518D01*
X011303Y001642D01*
X011370Y001804D01*
X011370Y001979D01*
X011303Y002141D01*
X011179Y002264D01*
X011017Y002331D01*
X010842Y002331D01*
X010680Y002264D01*
X010557Y002141D01*
X010490Y001979D01*
X010490Y001804D01*
X010557Y001642D01*
X010505Y001767D02*
X010314Y001767D01*
X010330Y001925D02*
X010490Y001925D01*
X010533Y002084D02*
X010286Y002084D01*
X010161Y002242D02*
X010658Y002242D01*
X011201Y002242D02*
X013218Y002242D01*
X013240Y002264D02*
X013117Y002141D01*
X013050Y001979D01*
X013050Y001804D01*
X013117Y001642D01*
X013240Y001518D01*
X013402Y001451D01*
X013577Y001451D01*
X013739Y001518D01*
X013863Y001642D01*
X013930Y001804D01*
X013930Y001979D01*
X013863Y002141D01*
X013739Y002264D01*
X013577Y002331D01*
X013402Y002331D01*
X013240Y002264D01*
X013093Y002084D02*
X011326Y002084D01*
X011370Y001925D02*
X013050Y001925D01*
X013065Y001767D02*
X011354Y001767D01*
X011269Y001608D02*
X013150Y001608D01*
X013829Y001608D02*
X014390Y001608D01*
X014357Y001642D02*
X014480Y001518D01*
X014642Y001451D01*
X014817Y001451D01*
X014979Y001518D01*
X015103Y001642D01*
X015170Y001804D01*
X015170Y001979D01*
X015103Y002141D01*
X014979Y002264D01*
X014817Y002331D01*
X014642Y002331D01*
X014480Y002264D01*
X014357Y002141D01*
X014290Y001979D01*
X014290Y001804D01*
X014357Y001642D01*
X014305Y001767D02*
X013914Y001767D01*
X013930Y001925D02*
X014290Y001925D01*
X014333Y002084D02*
X013886Y002084D01*
X013761Y002242D02*
X014458Y002242D01*
X015001Y002242D02*
X017018Y002242D01*
X016893Y002084D02*
X015126Y002084D01*
X015170Y001925D02*
X016850Y001925D01*
X016865Y001767D02*
X015154Y001767D01*
X015069Y001608D02*
X016950Y001608D01*
X013186Y003352D02*
X011233Y003352D01*
X011339Y003511D02*
X013080Y003511D01*
X013050Y003669D02*
X011370Y003669D01*
X011341Y003828D02*
X013078Y003828D01*
X013182Y003986D02*
X011237Y003986D01*
X010740Y004145D02*
X010106Y004145D01*
X010097Y004141D02*
X010259Y004208D01*
X010383Y004332D01*
X010450Y004494D01*
X010450Y004581D01*
X010010Y004581D01*
X010010Y004582D01*
X010009Y004582D01*
X010009Y005021D01*
X009922Y005021D01*
X009760Y004954D01*
X009637Y004831D01*
X009570Y004669D01*
X009570Y004582D01*
X010009Y004582D01*
X010009Y004581D01*
X009570Y004581D01*
X009570Y004494D01*
X009637Y004332D01*
X009760Y004208D01*
X009922Y004141D01*
X010009Y004141D01*
X010009Y004581D01*
X010010Y004581D01*
X010010Y004141D01*
X010097Y004141D01*
X010010Y004145D02*
X010009Y004145D01*
X009977Y004111D02*
X009802Y004111D01*
X009640Y004044D01*
X009517Y003921D01*
X009450Y003759D01*
X009450Y003584D01*
X009517Y003422D01*
X009640Y003298D01*
X009802Y003231D01*
X009977Y003231D01*
X010139Y003298D01*
X010263Y003422D01*
X010330Y003584D01*
X010330Y003759D01*
X010263Y003921D01*
X010139Y004044D01*
X009977Y004111D01*
X009913Y004145D02*
X007200Y004145D01*
X007200Y004094D02*
X007200Y004227D01*
X007236Y004242D01*
X007349Y004355D01*
X007410Y004502D01*
X007410Y004661D01*
X007349Y004808D01*
X007236Y004920D01*
X007089Y004981D01*
X006930Y004981D01*
X006783Y004920D01*
X006671Y004808D01*
X006631Y004713D01*
X006583Y004831D01*
X006459Y004954D01*
X006297Y005021D01*
X006210Y005021D01*
X006210Y004582D01*
X006209Y004582D01*
X006209Y005021D01*
X006122Y005021D01*
X005960Y004954D01*
X005837Y004831D01*
X005770Y004669D01*
X005770Y004582D01*
X006209Y004582D01*
X006209Y004581D01*
X005770Y004581D01*
X005770Y004494D01*
X005837Y004332D01*
X005960Y004208D01*
X006122Y004141D01*
X006209Y004141D01*
X006209Y004581D01*
X006210Y004581D01*
X006210Y004141D01*
X006297Y004141D01*
X006459Y004208D01*
X006583Y004332D01*
X006631Y004450D01*
X006671Y004355D01*
X006783Y004242D01*
X006820Y004227D01*
X006820Y004070D01*
X006820Y003913D01*
X006914Y003818D01*
X006890Y003759D01*
X006890Y003584D01*
X006957Y003422D01*
X007080Y003298D01*
X007242Y003231D01*
X007417Y003231D01*
X007579Y003298D01*
X007703Y003422D01*
X007770Y003584D01*
X007770Y003759D01*
X007703Y003921D01*
X007579Y004044D01*
X007417Y004111D01*
X007242Y004111D01*
X007200Y004094D01*
X007297Y004304D02*
X009665Y004304D01*
X009583Y004462D02*
X007393Y004462D01*
X007410Y004621D02*
X009570Y004621D01*
X009615Y004779D02*
X007361Y004779D01*
X007195Y004938D02*
X009744Y004938D01*
X010009Y004938D02*
X010010Y004938D01*
X010010Y005021D02*
X010097Y005021D01*
X010259Y004954D01*
X010383Y004831D01*
X010450Y004669D01*
X010450Y004582D01*
X010010Y004582D01*
X010010Y005021D01*
X010009Y004779D02*
X010010Y004779D01*
X010009Y004621D02*
X010010Y004621D01*
X010009Y004462D02*
X010010Y004462D01*
X010009Y004304D02*
X010010Y004304D01*
X010354Y004304D02*
X010622Y004304D01*
X010526Y004462D02*
X010436Y004462D01*
X010450Y004621D02*
X010510Y004621D01*
X010559Y004779D02*
X010404Y004779D01*
X010276Y004938D02*
X010725Y004938D01*
X011470Y005096D02*
X002690Y005096D01*
X002690Y004938D02*
X003025Y004938D01*
X002983Y004920D02*
X002871Y004808D01*
X002810Y004661D01*
X002810Y004502D01*
X002871Y004355D01*
X002983Y004242D01*
X003020Y004227D01*
X003020Y004113D01*
X003314Y003818D01*
X003290Y003759D01*
X003290Y003584D01*
X003357Y003422D01*
X003480Y003298D01*
X003642Y003231D01*
X003817Y003231D01*
X003979Y003298D01*
X004103Y003422D01*
X004170Y003584D01*
X004170Y003759D01*
X004103Y003921D01*
X003979Y004044D01*
X003817Y004111D01*
X003642Y004111D01*
X003583Y004087D01*
X003430Y004240D01*
X003436Y004242D01*
X003549Y004355D01*
X003610Y004502D01*
X003610Y004661D01*
X003549Y004808D01*
X003436Y004920D01*
X003289Y004981D01*
X003130Y004981D01*
X002983Y004920D01*
X002859Y004779D02*
X002690Y004779D01*
X002690Y004621D02*
X002810Y004621D01*
X002826Y004462D02*
X002690Y004462D01*
X002690Y004304D02*
X002922Y004304D01*
X003020Y004145D02*
X002690Y004145D01*
X002690Y003986D02*
X003146Y003986D01*
X003304Y003828D02*
X002690Y003828D01*
X002690Y003669D02*
X003290Y003669D01*
X003320Y003511D02*
X002690Y003511D01*
X002690Y003352D02*
X003426Y003352D01*
X004033Y003352D02*
X005986Y003352D01*
X006040Y003298D02*
X006202Y003231D01*
X006377Y003231D01*
X006539Y003298D01*
X006663Y003422D01*
X006730Y003584D01*
X006730Y003759D01*
X006663Y003921D01*
X006539Y004044D01*
X006377Y004111D01*
X006202Y004111D01*
X006040Y004044D01*
X005917Y003921D01*
X005850Y003759D01*
X005850Y003584D01*
X005917Y003422D01*
X006040Y003298D01*
X005880Y003511D02*
X004139Y003511D01*
X004170Y003669D02*
X005850Y003669D01*
X005878Y003828D02*
X004141Y003828D01*
X004037Y003986D02*
X005982Y003986D01*
X006113Y004145D02*
X003525Y004145D01*
X003497Y004304D02*
X005865Y004304D01*
X005783Y004462D02*
X003593Y004462D01*
X003610Y004621D02*
X005770Y004621D01*
X005815Y004779D02*
X003561Y004779D01*
X003395Y004938D02*
X005944Y004938D01*
X006209Y004938D02*
X006210Y004938D01*
X006209Y004779D02*
X006210Y004779D01*
X006209Y004621D02*
X006210Y004621D01*
X006209Y004462D02*
X006210Y004462D01*
X006209Y004304D02*
X006210Y004304D01*
X006209Y004145D02*
X006210Y004145D01*
X006306Y004145D02*
X006820Y004145D01*
X006820Y003986D02*
X006597Y003986D01*
X006701Y003828D02*
X006904Y003828D01*
X006890Y003669D02*
X006730Y003669D01*
X006699Y003511D02*
X006920Y003511D01*
X007026Y003352D02*
X006593Y003352D01*
X007633Y003352D02*
X009586Y003352D01*
X009480Y003511D02*
X007739Y003511D01*
X007770Y003669D02*
X009450Y003669D01*
X009478Y003828D02*
X007741Y003828D01*
X007637Y003986D02*
X009582Y003986D01*
X010197Y003986D02*
X010622Y003986D01*
X010518Y003828D02*
X010301Y003828D01*
X010330Y003669D02*
X010490Y003669D01*
X010520Y003511D02*
X010299Y003511D01*
X010193Y003352D02*
X010626Y003352D01*
X006722Y004304D02*
X006554Y004304D01*
X006604Y004779D02*
X006659Y004779D01*
X006825Y004938D02*
X006476Y004938D01*
X005909Y006048D02*
X005565Y006048D01*
X005627Y006282D02*
X005627Y006365D01*
X005559Y006523D02*
X005910Y006523D01*
X005210Y006523D02*
X005209Y006523D01*
X005209Y006365D02*
X005210Y006365D01*
X005209Y006206D02*
X005210Y006206D01*
X005209Y006048D02*
X005210Y006048D01*
X004854Y006048D02*
X004038Y006048D01*
X004196Y006206D02*
X004792Y006206D01*
X002690Y003194D02*
X033826Y003194D01*
X033826Y003035D02*
X002690Y003035D01*
X002690Y002877D02*
X033826Y002877D01*
X033826Y002718D02*
X002690Y002718D01*
X002690Y002560D02*
X033826Y002560D01*
X033826Y002401D02*
X002690Y002401D01*
X002690Y001291D02*
X022414Y001291D01*
X022493Y001133D02*
X002690Y001133D01*
X002690Y000657D02*
X033826Y000657D01*
X033826Y000499D02*
X002690Y000499D01*
X011210Y005781D02*
X011210Y005881D01*
X017251Y008267D02*
X017350Y008267D01*
X022481Y008267D02*
X022538Y008267D01*
X022538Y008109D02*
X022481Y008109D01*
X022481Y008426D02*
X022538Y008426D01*
X022538Y008584D02*
X022481Y008584D01*
X022481Y008743D02*
X022538Y008743D01*
X022538Y008901D02*
X022481Y008901D01*
X031535Y007474D02*
X032092Y007474D01*
X031933Y007316D02*
X031610Y007316D01*
X031610Y007157D02*
X031890Y007157D01*
X031890Y006999D02*
X031610Y006999D01*
X031610Y006840D02*
X031890Y006840D01*
X031890Y006682D02*
X031528Y006682D01*
X032287Y006048D02*
X032478Y006048D01*
X032201Y005961D02*
X032201Y005961D01*
X032128Y005889D02*
X032756Y005889D01*
X033287Y005889D02*
X033826Y005889D01*
X033826Y006048D02*
X033565Y006048D01*
X033724Y006206D02*
X033826Y006206D01*
X033826Y006365D02*
X033790Y006365D01*
X033787Y006999D02*
X033826Y006999D01*
X033826Y007157D02*
X033715Y007157D01*
X033826Y007316D02*
X033557Y007316D01*
X033314Y007474D02*
X033826Y007474D01*
X033826Y005730D02*
X031970Y005730D01*
X031830Y005590D02*
X031830Y005590D01*
X031811Y005572D02*
X033826Y005572D01*
X027810Y001767D02*
X027809Y001767D01*
X027809Y001608D02*
X027810Y001608D01*
X027809Y001450D02*
X027810Y001450D01*
X027809Y001291D02*
X027810Y001291D01*
X027809Y001133D02*
X027810Y001133D01*
X027809Y000974D02*
X027810Y000974D01*
X027439Y000974D02*
X027124Y000974D01*
X027259Y001133D02*
X027317Y001133D01*
X027308Y001608D02*
X027268Y001608D01*
X027145Y001767D02*
X027417Y001767D01*
X025493Y001133D02*
X023127Y001133D01*
X023205Y001291D02*
X025414Y001291D01*
X033103Y016987D02*
X033826Y016987D01*
X033826Y017146D02*
X033110Y017146D01*
X033050Y017304D02*
X033826Y017304D01*
X033826Y018097D02*
X033294Y018097D01*
X033568Y018255D02*
X033826Y018255D01*
X033826Y018414D02*
X033726Y018414D01*
X033791Y018572D02*
X033826Y018572D01*
X009482Y019524D02*
X009442Y019524D01*
X009129Y019524D02*
X008721Y019524D01*
X008896Y019365D02*
X008986Y019365D01*
D24*
X016010Y014881D03*
X017110Y009481D03*
X017110Y008781D03*
X017110Y007981D03*
X023510Y007181D03*
X016510Y003681D03*
D25*
X014740Y003681D01*
X014740Y004511D01*
X014810Y004581D01*
X014740Y003681D02*
X014730Y003671D01*
X010930Y003671D02*
X010930Y004561D01*
X010910Y004581D01*
X007330Y003671D02*
X007010Y003991D01*
X007010Y004581D01*
X003730Y003671D02*
X003210Y004191D01*
X003210Y004581D01*
X010410Y008581D02*
X016510Y008581D01*
X017110Y007981D01*
X017110Y008781D02*
X015210Y010681D01*
X010210Y010681D01*
X008110Y012781D01*
X008110Y013181D01*
X009110Y013181D02*
X009110Y013081D01*
X009610Y012581D01*
X011710Y012581D01*
X013110Y011181D01*
X015410Y011181D01*
X017110Y009481D01*
X017110Y013181D02*
X016610Y013681D01*
X016610Y018181D01*
X017462Y019034D01*
X017462Y019079D01*
X016462Y019079D02*
X015710Y018326D01*
X015710Y016781D01*
X015110Y016181D01*
X016010Y016081D02*
X016010Y014881D01*
X016010Y016081D02*
X016110Y016181D01*
X017110Y016181D02*
X017110Y017726D01*
X018462Y019079D01*
X018510Y017781D02*
X019310Y016981D01*
X020110Y016981D01*
X020110Y016181D01*
X019510Y017781D02*
X021410Y017781D01*
X021810Y018181D01*
X024310Y016681D02*
X025810Y016681D01*
X026310Y017181D01*
X029610Y017181D01*
X029710Y017081D01*
X030110Y017081D01*
X031210Y018181D01*
X033210Y014181D02*
X033310Y014181D01*
X033210Y014181D02*
X032710Y013681D01*
X031610Y013681D01*
X030810Y012881D01*
X026710Y012881D01*
X025010Y011181D01*
X027110Y009081D02*
X028310Y009081D01*
X028610Y009381D01*
X028610Y010181D01*
X029710Y011281D01*
X030310Y011281D01*
X030610Y011581D01*
X030610Y012381D01*
X030910Y012681D01*
X032810Y012681D01*
X033310Y013181D01*
X033310Y012181D02*
X032810Y011681D01*
X031910Y011681D01*
X030610Y010381D01*
X030610Y009481D01*
X029810Y008681D01*
X027510Y008681D01*
X025410Y006581D01*
X026010Y007981D02*
X027110Y009081D01*
X012810Y017381D02*
X012110Y016681D01*
X012110Y016181D01*
X011110Y016181D02*
X011110Y017081D01*
X010810Y017381D01*
X010462Y019079D02*
X008110Y016726D01*
X008110Y016181D01*
X007110Y016181D02*
X007110Y017726D01*
X008462Y019079D01*
X007110Y013181D02*
X007110Y011881D01*
X010410Y008581D01*
D26*
X007960Y006281D02*
X008110Y006131D01*
X007960Y006281D02*
X006210Y006281D01*
X006210Y007874D01*
X006102Y007981D01*
X006102Y011983D01*
X005903Y012181D01*
X010110Y006131D02*
X010960Y006131D01*
X011210Y005881D01*
X011210Y005781D02*
X011810Y005181D01*
X012360Y005181D01*
X013310Y006131D01*
D27*
X013310Y005581D01*
X013610Y005281D01*
X016610Y005281D01*
X017717Y006389D01*
X018110Y006389D01*
X017610Y007881D02*
X015860Y006131D01*
X015310Y006131D01*
X017610Y007881D02*
X017610Y010074D01*
X017617Y010081D02*
X019217Y011681D01*
X019710Y011681D01*
X022510Y014481D01*
X022910Y014481D01*
X023610Y015181D01*
X023610Y016981D01*
X024810Y018181D01*
X023610Y016981D02*
X023110Y016981D01*
X022910Y014481D02*
X023510Y014481D01*
X024310Y013681D01*
X017617Y011774D02*
X017617Y010081D01*
X017617Y011774D02*
X017310Y012081D01*
X013210Y012081D01*
X012110Y013181D01*
X012110Y014181D01*
X003710Y014181D01*
X003110Y014781D01*
X006410Y018081D01*
X006410Y019026D01*
X012110Y014181D02*
X014110Y016181D01*
M02*
