%
M48
M72
T01C0.0236
T02C0.0276
T03C0.0315
T04C0.0320
T05C0.0400
T06C0.0433
T07C0.1180
T08C0.1300
%
T01
X21000Y7000
X14600Y7800
X14600Y8600
X14600Y9300
X14000Y3500
X13500Y14700
T02
X16000Y17600
X17000Y17600
X14800Y11900
X15800Y11900
X20400Y14300
X20400Y15300
X11700Y17000
X12700Y17000
X3700Y6100
X2700Y6100
X8700Y5700
X9700Y5700
T03
X9300Y17200
X8300Y17200
X10300Y17200
X15600Y7192
X15600Y6208
X16092Y9900
X15108Y9900
X2608Y7800
X3592Y7800
X600Y16600
X600Y15600
X600Y14600
T04
X24800Y13500
X24800Y14500
X24800Y15500
X24800Y16500
X21800Y16500
X21800Y15500
X21800Y14500
X21800Y13500
X25300Y14600
X25300Y13600
X17600Y16000
X16600Y16000
X15600Y16000
X14600Y16000
X13600Y16000
X12600Y16000
X11600Y16000
X10600Y16000
X9600Y16000
X8600Y16000
X7600Y16000
X6600Y16000
X5600Y16000
X4600Y16000
X4600Y13000
X5600Y13000
X6600Y13000
X7600Y13000
X8600Y13000
X9600Y13000
X10600Y13000
X11600Y13000
X12600Y13000
X13600Y13000
X14600Y13000
X15600Y13000
X16600Y13000
X17600Y13000
X17600Y16800
X20600Y16800
X25900Y6400
X22900Y6400
X26500Y7800
X23500Y7800
X25500Y11000
X22500Y11000
X30200Y16900
X27200Y16900
X30200Y16000
X27200Y16000
X26700Y6900
X28700Y6900
X27700Y6900
X26600Y9500
X28600Y9500
X27600Y9500
X23500Y9500
X25500Y9500
X24500Y9500
X26600Y11800
X28600Y11800
X27600Y11800
X22500Y12100
X25500Y12100
X8400Y4400
X11400Y4400
X12300Y4400
X15300Y4400
X700Y4400
X3700Y4400
X4500Y4400
X7500Y4400
X24300Y1200
X25300Y1200
X23300Y1200
X20300Y1200
T05
X24300Y18000
X23300Y18000
X22300Y18000
X21300Y18000
X20300Y18000
X19300Y18000
X10800Y5950
X11800Y5950
X12800Y5950
X5600Y5950
X6600Y5950
X7600Y5950
X2953Y18898
X3953Y18898
X4953Y18898
X5953Y18898
X6953Y18898
X7953Y18898
X8953Y18898
X9953Y18898
X10953Y18898
X11953Y18898
X12953Y18898
X13953Y18898
X14953Y18898
X15953Y18898
X16953Y18898
X17953Y18898
X25700Y18000
X26700Y18000
X27700Y18000
X28700Y18000
X8420Y3490
X10980Y3490
X8420Y1710
X10980Y1710
X12220Y3490
X14780Y3490
X12220Y1710
X14780Y1710
X1220Y3490
X3780Y3490
X1220Y1710
X3780Y1710
X4820Y3490
X7380Y3490
X4820Y1710
X7380Y1710
X30800Y15000
X30800Y14000
X30800Y13000
X30800Y12000
X29800Y12000
X29800Y13000
X29800Y14000
X29800Y15000
X30800Y8000
X30800Y9000
X30800Y10000
X30800Y11000
X29800Y11000
X29800Y10000
X29800Y9000
X29800Y8000
T06
X20000Y8300
X20000Y12237
T07
X3394Y12000
X1031Y12000
X2213Y10150
T08
X30512Y18701
X30512Y6496
X984Y6496
X984Y18701
M30
