G75*
G70*
%OFA0B0*%
%FSLAX24Y24*%
%IPPOS*%
%LPD*%
%AMOC8*
5,1,8,0,0,1.08239X$1,22.5*
%
%ADD10C,0.0000*%
D10*
X002510Y000181D02*
X002510Y019866D01*
X034006Y019866D01*
X034006Y000181D01*
X002510Y000181D01*
X002844Y006677D02*
X002846Y006727D01*
X002852Y006777D01*
X002862Y006827D01*
X002875Y006875D01*
X002892Y006923D01*
X002913Y006969D01*
X002937Y007013D01*
X002965Y007055D01*
X002996Y007095D01*
X003030Y007132D01*
X003067Y007167D01*
X003106Y007198D01*
X003147Y007227D01*
X003191Y007252D01*
X003237Y007274D01*
X003284Y007292D01*
X003332Y007306D01*
X003381Y007317D01*
X003431Y007324D01*
X003481Y007327D01*
X003532Y007326D01*
X003582Y007321D01*
X003632Y007312D01*
X003680Y007300D01*
X003728Y007283D01*
X003774Y007263D01*
X003819Y007240D01*
X003862Y007213D01*
X003902Y007183D01*
X003940Y007150D01*
X003975Y007114D01*
X004008Y007075D01*
X004037Y007034D01*
X004063Y006991D01*
X004086Y006946D01*
X004105Y006899D01*
X004120Y006851D01*
X004132Y006802D01*
X004140Y006752D01*
X004144Y006702D01*
X004144Y006652D01*
X004140Y006602D01*
X004132Y006552D01*
X004120Y006503D01*
X004105Y006455D01*
X004086Y006408D01*
X004063Y006363D01*
X004037Y006320D01*
X004008Y006279D01*
X003975Y006240D01*
X003940Y006204D01*
X003902Y006171D01*
X003862Y006141D01*
X003819Y006114D01*
X003774Y006091D01*
X003728Y006071D01*
X003680Y006054D01*
X003632Y006042D01*
X003582Y006033D01*
X003532Y006028D01*
X003481Y006027D01*
X003431Y006030D01*
X003381Y006037D01*
X003332Y006048D01*
X003284Y006062D01*
X003237Y006080D01*
X003191Y006102D01*
X003147Y006127D01*
X003106Y006156D01*
X003067Y006187D01*
X003030Y006222D01*
X002996Y006259D01*
X002965Y006299D01*
X002937Y006341D01*
X002913Y006385D01*
X002892Y006431D01*
X002875Y006479D01*
X002862Y006527D01*
X002852Y006577D01*
X002846Y006627D01*
X002844Y006677D01*
X002844Y018882D02*
X002846Y018932D01*
X002852Y018982D01*
X002862Y019032D01*
X002875Y019080D01*
X002892Y019128D01*
X002913Y019174D01*
X002937Y019218D01*
X002965Y019260D01*
X002996Y019300D01*
X003030Y019337D01*
X003067Y019372D01*
X003106Y019403D01*
X003147Y019432D01*
X003191Y019457D01*
X003237Y019479D01*
X003284Y019497D01*
X003332Y019511D01*
X003381Y019522D01*
X003431Y019529D01*
X003481Y019532D01*
X003532Y019531D01*
X003582Y019526D01*
X003632Y019517D01*
X003680Y019505D01*
X003728Y019488D01*
X003774Y019468D01*
X003819Y019445D01*
X003862Y019418D01*
X003902Y019388D01*
X003940Y019355D01*
X003975Y019319D01*
X004008Y019280D01*
X004037Y019239D01*
X004063Y019196D01*
X004086Y019151D01*
X004105Y019104D01*
X004120Y019056D01*
X004132Y019007D01*
X004140Y018957D01*
X004144Y018907D01*
X004144Y018857D01*
X004140Y018807D01*
X004132Y018757D01*
X004120Y018708D01*
X004105Y018660D01*
X004086Y018613D01*
X004063Y018568D01*
X004037Y018525D01*
X004008Y018484D01*
X003975Y018445D01*
X003940Y018409D01*
X003902Y018376D01*
X003862Y018346D01*
X003819Y018319D01*
X003774Y018296D01*
X003728Y018276D01*
X003680Y018259D01*
X003632Y018247D01*
X003582Y018238D01*
X003532Y018233D01*
X003481Y018232D01*
X003431Y018235D01*
X003381Y018242D01*
X003332Y018253D01*
X003284Y018267D01*
X003237Y018285D01*
X003191Y018307D01*
X003147Y018332D01*
X003106Y018361D01*
X003067Y018392D01*
X003030Y018427D01*
X002996Y018464D01*
X002965Y018504D01*
X002937Y018546D01*
X002913Y018590D01*
X002892Y018636D01*
X002875Y018684D01*
X002862Y018732D01*
X002852Y018782D01*
X002846Y018832D01*
X002844Y018882D01*
X032371Y018882D02*
X032373Y018932D01*
X032379Y018982D01*
X032389Y019032D01*
X032402Y019080D01*
X032419Y019128D01*
X032440Y019174D01*
X032464Y019218D01*
X032492Y019260D01*
X032523Y019300D01*
X032557Y019337D01*
X032594Y019372D01*
X032633Y019403D01*
X032674Y019432D01*
X032718Y019457D01*
X032764Y019479D01*
X032811Y019497D01*
X032859Y019511D01*
X032908Y019522D01*
X032958Y019529D01*
X033008Y019532D01*
X033059Y019531D01*
X033109Y019526D01*
X033159Y019517D01*
X033207Y019505D01*
X033255Y019488D01*
X033301Y019468D01*
X033346Y019445D01*
X033389Y019418D01*
X033429Y019388D01*
X033467Y019355D01*
X033502Y019319D01*
X033535Y019280D01*
X033564Y019239D01*
X033590Y019196D01*
X033613Y019151D01*
X033632Y019104D01*
X033647Y019056D01*
X033659Y019007D01*
X033667Y018957D01*
X033671Y018907D01*
X033671Y018857D01*
X033667Y018807D01*
X033659Y018757D01*
X033647Y018708D01*
X033632Y018660D01*
X033613Y018613D01*
X033590Y018568D01*
X033564Y018525D01*
X033535Y018484D01*
X033502Y018445D01*
X033467Y018409D01*
X033429Y018376D01*
X033389Y018346D01*
X033346Y018319D01*
X033301Y018296D01*
X033255Y018276D01*
X033207Y018259D01*
X033159Y018247D01*
X033109Y018238D01*
X033059Y018233D01*
X033008Y018232D01*
X032958Y018235D01*
X032908Y018242D01*
X032859Y018253D01*
X032811Y018267D01*
X032764Y018285D01*
X032718Y018307D01*
X032674Y018332D01*
X032633Y018361D01*
X032594Y018392D01*
X032557Y018427D01*
X032523Y018464D01*
X032492Y018504D01*
X032464Y018546D01*
X032440Y018590D01*
X032419Y018636D01*
X032402Y018684D01*
X032389Y018732D01*
X032379Y018782D01*
X032373Y018832D01*
X032371Y018882D01*
X032371Y006677D02*
X032373Y006727D01*
X032379Y006777D01*
X032389Y006827D01*
X032402Y006875D01*
X032419Y006923D01*
X032440Y006969D01*
X032464Y007013D01*
X032492Y007055D01*
X032523Y007095D01*
X032557Y007132D01*
X032594Y007167D01*
X032633Y007198D01*
X032674Y007227D01*
X032718Y007252D01*
X032764Y007274D01*
X032811Y007292D01*
X032859Y007306D01*
X032908Y007317D01*
X032958Y007324D01*
X033008Y007327D01*
X033059Y007326D01*
X033109Y007321D01*
X033159Y007312D01*
X033207Y007300D01*
X033255Y007283D01*
X033301Y007263D01*
X033346Y007240D01*
X033389Y007213D01*
X033429Y007183D01*
X033467Y007150D01*
X033502Y007114D01*
X033535Y007075D01*
X033564Y007034D01*
X033590Y006991D01*
X033613Y006946D01*
X033632Y006899D01*
X033647Y006851D01*
X033659Y006802D01*
X033667Y006752D01*
X033671Y006702D01*
X033671Y006652D01*
X033667Y006602D01*
X033659Y006552D01*
X033647Y006503D01*
X033632Y006455D01*
X033613Y006408D01*
X033590Y006363D01*
X033564Y006320D01*
X033535Y006279D01*
X033502Y006240D01*
X033467Y006204D01*
X033429Y006171D01*
X033389Y006141D01*
X033346Y006114D01*
X033301Y006091D01*
X033255Y006071D01*
X033207Y006054D01*
X033159Y006042D01*
X033109Y006033D01*
X033059Y006028D01*
X033008Y006027D01*
X032958Y006030D01*
X032908Y006037D01*
X032859Y006048D01*
X032811Y006062D01*
X032764Y006080D01*
X032718Y006102D01*
X032674Y006127D01*
X032633Y006156D01*
X032594Y006187D01*
X032557Y006222D01*
X032523Y006259D01*
X032492Y006299D01*
X032464Y006341D01*
X032440Y006385D01*
X032419Y006431D01*
X032402Y006479D01*
X032389Y006527D01*
X032379Y006577D01*
X032373Y006627D01*
X032371Y006677D01*
M02*
